<svg width="138" height="99" fill="none" xmlns="http://www.w3.org/2000/svg"><g clip-path="url(#clip0)" fill="#1C384A"><path d="M80.3 34.4v-6.3H60.1v43.3h20.8v-6.3H67.5V52.2h10.1v-6.3H67.5V34.4h12.8zm-41.2 37V53.7h4l5.4 17.7h7.3L50 52.1c2.9-1.9 4.8-5.3 4.8-9.1v-4.1c0-5.9-4.5-10.7-10.1-10.7H32v43.3h7.1v-.1zm0-37h3.8c.6 0 1.2.1 1.8.4 1.7.8 2.9 2.7 2.9 4.9V42c0 .5-.1 1.1-.2 1.6-.6 2.2-2.4 3.8-4.5 3.8h-3.8v-13zm58.6-6.3H85.2v43.3h12.4c5.9 0 10.7-4.8 10.7-10.7V38.8c.1-5.9-4.7-10.7-10.6-10.7zm3.1 31.6c0 3-1.9 5.4-4.3 5.4h-3.9V34.4h3.9c2.4 0 4.3 2.4 4.3 5.4v19.9zM117.2 0l-6.1 6.1c11.2 11 18.2 26.2 18.2 43.1 0 16.9-7 32.2-18.2 43.1l6.1 6.1c12.8-12.5 20.7-29.9 20.7-49.2 0-19.3-7.9-36.7-20.7-49.2zM20.7 0C7.9 12.5 0 29.9 0 49.2c0 19.3 7.9 36.7 20.7 49.2l6.1-6.1C15.5 81.4 8.6 66.1 8.6 49.2c0-16.9 7-32.2 18.2-43.1L20.7 0z"/></g><defs><clipPath id="clip0"><path fill="#fff" d="M0 0h137.9v98.4H0z"/></clipPath></defs></svg>