<svg width="153" height="64" fill="none" xmlns="http://www.w3.org/2000/svg"><g clip-path="url(#clip0)" fill="#1C384A"><path d="M24.2 29.2c-5.7.4-13 1.5-12.9 3.5.1 2.1 5.4 6.1 12.5 8.7.3-4.2.4-8.8.4-12.2zM3.3 7.7C1.5 7.7 0 6.9 0 5.8 0 5 1.8 2.3 2.9 1.9 3.7 1.6 7.4.2 13.6 0c2.3-.1 6.2.2 9.5.7 19.2 2.8 39.4 17.5 39.8 30.5.3 8.8-7.4 17.1-22.3 17.6-3.9.1-7.6-.4-10.9-1.2-.1 2.2.1 3.3-3 3.4-1.9.1-2.6-3-2.9-5.5-9-4-14.4-10.5-14.5-13-.1-3.8 6.8-7 14.9-8.3.1-3.2.6-11.2 2.3-11.2.7 0 2.1 1.5 2.6 3.9.5 2.2.5 6.1.5 6.8h.6c11.4-.3 18.2 3.2 18.3 7.4.1 3.3-2.8 4.9-4.3 5-1.5 0-3.3-.8-3.3-1.3 0-.9 3.2-1.1 3.2-2.6C44 30 35 29 29.4 29v5.7c0 1.5.1 5.3.2 8.5 2.5.5 5.1.8 7.7.7 6-.2 19.7-2.4 19.4-12.7-.3-14.4-28.8-27.6-44-27.2-6 .2-9.7.9-9.6 1.5C3.1 5.8 6 6 6 6.8s-1.6.9-2.7.9z"/><path fill-rule="evenodd" clip-rule="evenodd" d="M67.3 23.4c1 0 2.4 2.3 2.4 3.8s.4 9.2.5 11.4c.1 2.2 0 4.3-.1 5.3s-.5 1.5-2.2 1.5c-1.7.1-2.5-1-2.6-2.4-.1-1.5-.3-5.7-.2-7.8.1-2.1.2-6.2.4-8.7.3-2.5 1-3 1.8-3.1zm9.8-17.3c-.3-.7-1.2-2.1-4.6-2-7.3.3-12.9 5.7-12.8 9.9 0 1.4.7 2.6 1.7 3.6-.3.7-.3 1.2-.3 1.4 0 .7 1.1 2.7 2 2.7.7 0 1.2-.7 1.9-1.8 1.2.5 2.4.7 3.3.7 6.9-.2 13.1-6.6 13-10.8 0-1.9-1.3-3.7-4.2-3.7zM66.7 16.4c.8-1.2 5.2-7.1 9.7-7.2 1.3 0 1.7.8 1.7 1.7 0 1.4-2.5 5.5-8.3 5.7-1.2 0-2.3-.1-3.1-.2zm-3.6-2c-.1-.2-.2-.4-.2-.9 0-.9 1.6-4.6 5.7-4.9-1 .7-2.1 1.6-3.1 2.8-1 1.2-1.8 2.2-2.4 3zm22 8.6c4-.1 9.1.4 9.1 1.7 0 .8-.4 2.3-2.5 2.5-2.5.3-15.3.8-15.2 2.4 0 .8 3.9 1 7.4 1.2 3.6.2 9.4.4 9.6 6.2.1 4.6-1.6 5.6-2.4 6-1 .5-4.4 1.7-6.9 1.8-7.8.2-10.9-4.2-11-6.5-.1-2 2-3.8 5.5-3.9 3.5-.1 8.9 1.2 8.9 2.6 0 1.2-2.3 1.8-3.4 1.8-4.7.1-4.5-1.8-7.2-1.7-1.6 0-3.7 3.4 4.1 3.1 7-.2 9.1-2.5 9-3.7 0-1.6-5-2.4-7.9-2.6-2.9-.2-7.2-.1-8.7-1.1-1.5-.9-1.3-3-.8-4.8.9-3.6 8.4-4.8 12.4-5zm13.7 1.6c2.7-.1 8.4 12.2 9.4 12.2s.2-2.9-.4-6c-1.4-7.1-3.5-10.8-1.5-10.8 1.5 0 6.4 4.7 6.6 13.8.1 4.2-.5 9.8-4.3 9.9-3.6.1-7.8-11.4-8.7-11.4-.5 0-.5 7.1-.7 9.3-.1 2.1-.9 3.3-2.1 3.3-1.8.1-2.6-1.7-2.7-5.1 0-3.5 1.1-15.1 4.4-15.2z"/><path d="M126.5 31.2c1.3 0 2.4-.3 2.3 1.4-.1 1.7-.2 2.3-1.5 2.4l-6.9.2c-.2.8-.8 2.7-1.1 3.6-.3 1 .7.8 2.1.4 1.3-.4 5-1.1 6.5-1.1s2.6 2.4 1.8 3.2c-.9.8-5.5 4.8-10.4 4.9-2.1.1-4.9-1.8-5-5-.1-1.7.6-4 1.3-5.8-.2-.1-.3-.3-.4-.9-.2-1.2-.7-2.5 1.2-2.7.2 0 .4 0 .6-.1l1.6-3.3c-.7-.1-1.2-.2-1.7-.4-1.2-.6-2.1-2-2.1-2.7 0-1.4 10.4-2.3 12.9-2.4 2.6-.1 3.3.4 4.2 1.6.8 1.2 1.1 2 1.2 2.4 0 .3-.3 1.1-3.4 1.2-1.6 0-4.2.3-6.7.4l-1.1 2.9 4.6-.2z"/><path fill-rule="evenodd" clip-rule="evenodd" d="M133.6 41.1c-2.8 5.6-4.7 11.4-4.6 15.9.1 5 3.2 6.9 4.1 6.8.9 0 1-1.5 1.1-2.6.9-6.2 2.6-11.8 4.4-16.4.7.2 1.5.3 2.1.3 5.7-.2 12.3-7 12.1-14.3-.1-3.8-1.6-6.6-4-6.5-3.6.1-8.8 5.5-12.9 12.4-.4-2.8 1.8-7 3.7-10 1.3-2.1 1.1-4.6.5-4.6-.8 0-8.1 6.3-7.9 14.8.2 1.7.7 3.1 1.4 4.2zm7.6-1.7c3.4-6.7 7-10.6 8.2-10.6 2.2 0 .4 9.7-8.2 10.6z"/></g><defs><clipPath id="clip0"><path fill="#fff" d="M0 0h153v63.8H0z"/></clipPath></defs></svg>