<svg width="47" height="49" fill="none" xmlns="http://www.w3.org/2000/svg"><path d="M42.392 31.967V20.3s0-2.567-2.534-2.567h-7.603v-1.4h9.216c.46 0 .921-.466.921-.933V14c0-.467-.46-.933-.921-.933h-9.216v-9.8C32.255 1.4 30.873 0 29.029 0H18.892c-1.843 0-3.225 1.4-3.225 3.267v9.8H5.99c-.691-.234-.921.233-.921.933v1.4c0 .467.23.933.921.933h9.677v1.4H8.294S5.07 17.267 5.07 21.7v10.5L0 40.133v6.3S.23 49 2.304 49h42.162S47 48.533 47 46.433v-6.3l-4.608-8.166zm-24.191-28h11.52v9.1H18.2v-9.1zm0 12.366h11.52v7.934H18.2v-7.934zm3.917 18.9c0-.7.46-1.4 1.382-1.4.922 0 1.382.467 1.382 1.4 0 .7-.46 1.4-1.382 1.4-.922 0-1.382-.7-1.382-1.4zm.23 4.434c0 .7-.46 1.4-1.382 1.4-.922 0-1.152-.7-1.152-1.4s.46-1.4 1.382-1.4c.922 0 1.152.7 1.152 1.4zm3.686-1.167c.692 0 1.383.467 1.383 1.4 0 .7-.461 1.4-1.383 1.4-.921 0-1.382-.467-1.382-1.4 0-.933.46-1.4 1.382-1.4zm1.152-3.267c0-.7.461-1.4 1.383-1.4.69 0 1.382.467 1.382 1.4 0 .7-.46 1.4-1.382 1.4-.922-.233-1.383-.7-1.383-1.4zm-8.524-1.4c.69 0 1.382.467 1.382 1.4 0 .7-.46 1.4-1.382 1.4-.691 0-1.383-.466-1.383-1.4 0-.7.692-1.4 1.383-1.4zM6.45 41.067c-.691 0-1.382-.467-1.382-1.4 0-.7.46-1.4 1.382-1.4.691 0 1.382.466 1.382 1.4 0 .7-.69 1.4-1.382 1.4zM8.985 36.4c-.69 0-1.382-.467-1.382-1.4 0-.7.46-1.4 1.382-1.4.691 0 1.383.467 1.383 1.4-.23.933-.692 1.4-1.383 1.4zm2.304 4.667c-.691 0-1.382-.467-1.382-1.4 0-.7.46-1.4 1.382-1.4.691 0 1.383.466 1.383 1.4 0 .7-.692 1.4-1.383 1.4zm2.534-4.667c-.69 0-1.382-.467-1.382-1.4 0-.7.461-1.4 1.382-1.4.692 0 1.383.467 1.383 1.4-.23.933-.691 1.4-1.383 1.4zm1.152 3.267c0-.7.461-1.4 1.383-1.4.921 0 1.382.466 1.382 1.4 0 .7-.46 1.4-1.382 1.4-.922 0-1.383-.7-1.383-1.4zm16.589 4.9c0 .466-.23.7-.692.7H16.128c-.461 0-.692-.234-.692-.7v-.7c0-.467.23-.7.692-.7h14.975c.46 0 .691.233.691.7v.7h-.23zm-.692-3.5c-.69 0-1.382-.467-1.382-1.4 0-.7.461-1.4 1.383-1.4.921 0 1.382.466 1.382 1.4-.23.7-.691 1.4-1.383 1.4zm2.304-4.667c-.69 0-1.382-.467-1.382-1.4 0-.7.46-1.4 1.382-1.4.692 0 1.383.467 1.383 1.4 0 .933-.691 1.4-1.383 1.4zm2.535 4.667c-.691 0-1.383-.467-1.383-1.4 0-.7.461-1.4 1.383-1.4.691 0 1.382.466 1.382 1.4-.23.7-.691 1.4-1.382 1.4zm2.304-4.667c-.691 0-1.383-.467-1.383-1.4 0-.7.461-1.4 1.383-1.4.69 0 1.382.467 1.382 1.4 0 .933-.691 1.4-1.382 1.4zm2.534 4.667c-.691 0-1.382-.467-1.382-1.4 0-.7.46-1.4 1.382-1.4.691 0 1.382.466 1.382 1.4-.23.7-.69 1.4-1.382 1.4zM44.466 20.3c.69 0 1.152-.467 1.152-1.167v-8.866c0-.7-.461-1.167-1.152-1.167h-.23c-.692 0-1.153.467-1.153 1.167v8.866c.23.7.692 1.167 1.383 1.167zM25.343 6.767L26.956 8.4l-1.613 1.867.691.7L28.57 8.4l-2.535-2.567-.69.934zm-3.916-.7L18.892 8.4l2.535 2.567.69-.7-1.15-1.867 1.152-1.633-.691-.7z" fill="#F7F4ED"/></svg>