<svg width="71" height="112" fill="none" xmlns="http://www.w3.org/2000/svg"><g clip-path="url(#clip0)" fill="#1C384A"><path d="M.5 105.7H.3c-.3-.2-.4-.5-.3-.7 5.4-11.7 8.6-36.6 2.6-48.7-.1 0-.2-.1-.2-.2-.1-.2-.1-.4-.2-.5l-.3-.6c-.1-.2-.1-.5.1-.6.2-.2.4-.2.6 0 .4.3.5.6.5.8 6.7 12 3.5 38.1-2.1 50.2-.1.2-.3.3-.5.3z"/><path d="M10.8 87.8c-1.9-6.5-3.5-13.4-4.5-18.1-.2-1.2-.4-2.5-.6-3.9-.5-4-1.1-8.4-3.6-10.7l.7-.7c2.7 2.5 3.4 7.2 3.9 11.3.2 1.4.4 2.7.6 3.8 1 4.6 2.6 11.5 4.5 18l-1 .3z"/><path d="M11.1 87.7c-.3 0-.5-.2-.5-.5.1-11.2 3.1-42.7 7.9-52.9.1-.3.4-.4.7-.2.3.1.4.4.2.7-4.3 9.3-7.7 40-7.8 52.5 0 .1-.3.4-.5.4z"/><path d="M22.9 111.7c-.2 0-.4-.2-.5-.4-.7-3.1-2-5.8-3.4-8.7-.8-1.6-1.6-3.3-2.4-5.2-1.5-3.6-1.8-8.3-2.2-12.5-.1-1.3-.2-2.6-.3-3.7-.6-5.2 1.5-21.3 3-33.1.8-6.4 1.5-11.9 1.5-13 0-.3.2-.5.5-.5s.5.2.5.5c.1 1.2-.6 6.2-1.5 13.2-1.5 11.7-3.6 27.8-3 32.8.1 1.2.2 2.4.3 3.7.3 4.1.7 8.7 2.1 12.2.7 1.8 1.6 3.5 2.4 5.1 1.4 2.9 2.8 5.7 3.5 8.9.1.3-.1.5-.4.6l-.1.1z"/><path d="M25.2 85.1c-.8 0-1.8-.6-2.8-1.8-.5-.5-.8-1.1-1.1-1.8l-.3 1.8c0 .3-.3.4-.6.4-.3-.1-.5-.3-.4-.6.2-1.2.5-2.5.7-3.9-.6-3.6.1-8.2.6-11.8.2-1.2.3-2.2.4-3.1.1-1 .3-2.2.4-3.4.2-1.3.4-2.6.5-4 0-2.4-.1-4.9-.3-7.2 0-.3.1-.5.4-.5.2-.1.5.1.6.3.7 2.1.6 4.8.4 7.5 0 7.8-.9 15.7-1.9 22.2.2 1.4.7 2.7 1.4 3.5 1 1.1 1.8 1.6 2.4 1.4 1.7-.6 1.9-7.3 2-10.8 0-1.6.1-2.8.2-3.4.1-.3.1-.9.2-1.2 0-.3.3-.5.5-.5.3 0 .5.2.5.4s0 .3.1.5c1.3-2 3.5-2.1 5.4-2 .3 0 .5.3.5.5 0 .3-.3.5-.5.5-2-.1-4 0-4.9 2.3-.1.2-.3.3-.5.3-.1 0-.2 0-.3-.1 0 .6-.1 1.6-.1 2.6-.4 5.8-.7 11-2.9 11.8-.2.1-.4.1-.6.1zm29.2 18.4c-2.1 0-4.2-.6-6.1-1.8-7.4-4.5-7.8-17.5-8.1-27-.1-1.7-.1-3.4-.2-4.8-.1-1.6-.2-3.1-.2-4.7h-.1l.1-1.1c0-2.6 0-5.3.1-7.9-3.6-3.8-5.8-7.7-6.6-11.8-1.5-7.5 1.4-15.8 9.1-26.2 3-4.1 6.5-8.2 9.9-12.1C54 4.1 55.8 2 57.5 0l.8.6c-1.7 2-3.5 4.1-5.2 6.1-3.4 3.9-6.8 7.9-9.9 12C35.7 29 32.9 37 34.3 44.3c.7 3.7 2.6 7.2 5.7 10.6.2-4.5.5-9 .8-13.5.2-3.8.5-7.7.7-11.4h1c.6 8.5 0 17.6-.8 26.6 2.9 2.8 6.6 5.6 11.2 8.5 7.1 4.3 16.8 10.3 17.2 20.3.3 6.2-3.6 13-9.2 16.3-2.1 1.2-4.3 1.8-6.5 1.8zM40.8 64.2c0 1.9.1 3.8.2 5.7.1 1.4.1 3.1.2 4.8.3 9.2.7 21.9 7.6 26.2 3.6 2.2 7.7 2.2 11.5-.1 5.3-3.1 8.9-9.6 8.7-15.4-.4-9.5-9.9-15.3-16.8-19.5-4.4-2.7-8-5.4-10.8-8-.2 2.1-.4 4.2-.6 6.2v.1z"/></g><defs><clipPath id="clip0"><path fill="#fff" d="M0 0h70.1v111.7H0z"/></clipPath></defs></svg>