<svg width="147" height="31" fill="none" xmlns="http://www.w3.org/2000/svg"><g clip-path="url(#clip0)" fill-rule="evenodd" clip-rule="evenodd" fill="#1C384A"><path d="M66.7 22.3c-2.1-2.5-3.9-4.7-4.9-5.9-1.4 1.9-4.8 7.2-6.3 10.2 1 .2 1.9.3 2.9.4l.3 1.9H58c-.6 0-4-.2-6.2-.2-1.7 0-3.4.1-5.1.2l.7-2c.9-.1 1.8-.2 2.6-.5 1.7-1.1 8.4-10 10.1-12.3-1.4-1.7-3.2-4.1-4.9-6.3-1.8-2.3-3.4-4.3-4.3-5.3-.9-.3-1.8-.4-2.7-.6L48 0c2.1.4 4.5.3 6.6.3 2.4 0 4.9-.1 7.3-.2l-.6 2c-1 .1-1.9.2-2.9.4 1.1 1.7 3.9 5.9 5.2 7.6 1.3-1.8 4-5.6 5.1-7.6l-.7-.1c-.4-.2-1-.3-1.5-.4l-.4-2c2 .2 4.1.2 6.2.2C73.9.2 75.4.1 77 0l-.3 2c-.9.2-1.8.4-2.8.6l-.3.3C72.3 4.2 71 5.6 69.8 7c-1.8 2-3.6 4.2-4.5 5.2 4.3 5.9 8.6 11.9 13 17.7l-3.2.6c-3-2.3-5.9-5.3-8.4-8.2zm53.4-19.7c-1.4-.2-2.8-.3-4.1-.4l-.3-1.9h9.4c3.7 0 8.8 0 11.6 1.1 2.2.9 3.7 2.5 3.7 5 0 2.6-2.8 5.8-5.7 7.6 2.8 4.7 8 11.9 11.5 15.7l-3.2.3c-2.8-1.3-11.4-11.1-13.9-14-1.1.1-2.2.2-2.9.2v.5c0 2.3.1 7.7.2 9.9 1.3.2 2.7.3 4 .5l.4 2c-2.4-.2-5-.2-7.4-.2-2.5 0-5.2 0-7.7.2l.4-2c1.4-.1 2.8-.2 4.1-.5.1-1.9.2-8.6.2-12.4v-2.4c-.1-1.4-.2-7.6-.3-9.2zm10 10.5c1.6-.6 4.1-2.2 4.1-5.7 0-2-1.7-4.8-7.9-5-.1 2.3-.2 8.3-.2 10.8v.6c1.3 0 2.6-.2 4-.7zm-27.7 13.4c-1.2-3.5-2.2-7.1-3.7-10.4-1.7 0-6.5.3-8.2.4-.4 1.4-2 7.1-2.5 10 1.1.2 2.1.3 3.2.5l.4 2c-2.3-.1-4.7-.2-7-.2-1.7 0-3.5.1-5.2.2l.3-2c1.2-.1 2.3-.3 3.5-.5 1.5-3 8-20.3 9.3-24-1-.2-1.9-.3-2.9-.4l-.1-2c2 .1 4 .2 6 .2 2.6 0 5.2 0 7.7-.2L103 2c-.9.1-1.8.2-2.7.4.7 2.2 2.6 7.6 3.9 11.3 1.1 2.9 3.4 9.2 5.1 12.7 1.2.2 2.4.4 3.6.5l.3 2c-2.3-.4-5.2-.3-7.5-.3-2.4 0-4.9 0-7.3.2l.5-2c1.1.1 2.3-.1 3.5-.3zM94.8 4.4c-1.1 3.1-2.7 7.4-3.4 9.3l6.6.1c-.8-2.5-2.4-6.8-3.2-9.4zM38.6 26.5c1.3.2 2.7.4 4 .5l.5 2c-2.8-.3-5.7-.2-8.4-.2-2.3 0-4.5.1-6.8.2l.4-2c1.3-.1 2.7-.3 4.1-.5.1-2.2.2-8.7.2-12.2V12c0-1.2 0-7.4-.2-9.4-1.4-.2-2.7-.4-4-.5l-.5-2c2.8.3 5.8.2 8.5.2 2.2 0 4.6 0 6.8-.3l-.5 2c-1.3.1-2.7.4-4 .5-.1 1.4-.1 5.3-.1 9.6v2.4c-.1 4.7-.1 10.4 0 12zm-28 0c1.6.2 3.3.4 4.9.5l.5 2c-2.7-.2-5.5-.2-8.2-.2-2.6 0-5.2 0-7.8.2l.4-2c1.4-.2 2.7-.3 4.1-.5.1-2.4.1-9.8.1-13.2v-1.5c0-1.2 0-7.3-.1-9.2-1.4-.4-2.8-.4-4.2-.5L0 .1h9.7c4.3 0 8 .3 10 1.2 3.7 1.6 4.2 4.2 4.2 5.3 0 6.8-6.7 9.9-12.5 10.7l.2-2.1c3.5-.9 6.1-2.8 6.1-7.2 0-2.2-1.1-3.9-2.8-4.8-1-.5-2.7-.7-4.3-.8-.1 1.8-.1 6.5-.1 9.4v1.6c0 3.1 0 10.9.1 13.1z"/></g><defs><clipPath id="clip0"><path fill="#fff" d="M0 0h146.3v30.6H0z"/></clipPath></defs></svg>