<svg width="190" height="39" fill="none" xmlns="http://www.w3.org/2000/svg"><path d="M123.2 0h-39v39h39V0z" fill="#1C384A"/><path fill-rule="evenodd" clip-rule="evenodd" d="M99.5 27.9c-.4 0-.8 0-1-.1h-.9c-.9-.2-2.4-.7-3.2-.5v-.4c.1 0 .1-.1.2-.1-.5 0-.8-.2-1.2-.3-.9-.2-2.1-.2-2.8-.5l-.3-.3c-.1-.1-.2-.2-.3-.2-.1 0-.5-.1-.5-.1-.1 0-.1 0-.2-.1s-.2-.1-.3-.3c-.1 0-.5-.3-.5-.4.1 0 .3.1.4.1 0 0-.2-.6-.1-.6s.4-.1.4-.1c-.1 0-.1-.1-.2-.1h-.2c-.1 0-.4-.3-.4-.3s.4-.1.9-.1c.4 0 .9-.1.9-.5-.2-.1-.4-.1-.3-.2 0 0 .6-.1.9-.1v-.1l-.1-.2.2-.1-.3-.2 1.1.1c0-.1-.7-.3-.7-.4l.2-.1.1-.1c.1 0 .4.1.6.1 0-.1.1-.2.1-.2.4 0 .7.3 1 .3.2 0 .5-.3.8-.2 1.5.3 3.5.1 5.2.4.7.1 1.7-.2 2.6 0 1.2.2 2.8 0 3.8.1.4 0 1.3.2 1.9.1.8-.1 3.1-.2 4.1-.1h1c1.5.3 2.2.7 3.1 1.6.4.4.9.8 1.1 1.4.2.7-.2 1.7-.5 2-.2.2-.7.2-.8.5-.1.3.1.3 0 .5s-.7 1.1-1.3 1.3c-.7 0-1.1.1-1.8.1-.8.1.1.1-.7.2-1.1.2-3.4.3-4.6.1-1.1-.2-2.2.2-2.8-.2l-.1-.1s0 .1.1.1h-.1s-1.2-.3-1.4-.4c-.1.2 0 .1-.1.2v-.1l-.2-.1h-.1c-.2-.3-.3-.1-.5-.1v-.4c-.1.1-.5.2-.7.2 0-.1-.1-.3-.2-.4-.1.1 0 .2-.1.2-.3 0-.8-.1-.9-.3.2-.1.5-.1.7-.1-.2-.1-.7-.4-1-.4zm6.7 1.1l.1-.1c.1.1.1.1.2.1l-.1.1c-.1 0-.2-.1-.2-.1zm-.1.1s-.1-.3-.2-.2v.1l.2.1zm.5-.6s0-.1 0 0c.1-.1.2-.1.3-.1h.1s0 .1.1.1c-.1 0-.2 0-.2.1.2.1.4.1.5.3.1-.1 0 0 .1 0v-.2c.1.1 0 .1.2.1 0 0 0 .1.1.1h-.9.1c-.3-.1-.2-.3-.4-.4zm-1.7.5c0-.1 0-.2-.1-.2h-.1c.1.1.1.2.2.2zm.2-.2c.1 0 .1 0 0 0 .1 0 .1.1.1.1l-.1-.1zm-.7.2c0-.2.1-.3-.3-.3 0-.1 0 0 0 0v.2c.1 0 .1 0 .3.1zm-1.1 0c-.1 0-.1-.1 0 0 0-.1 0-.1 0 0 0-.1 0 0 0 0zm2-.2c.2.1.1 0 .1.1 0-.1 0 0-.1-.1zm-1.3.1c-.1 0-.1-.1-.2-.1.1.1.2.1.2.1zm-1.2.1c0-.1 0-.2-.1-.3l-.1-.1v.3l.1-.1c0 .1 0 .1.1.2zm5-.3c-.1-.1-.1-.1-.2-.1.1-.1.2-.1.2-.2.4.1 1.3.4 1.7.1-.1.2 0 .1-.1.2s0 0-.1 0v.1c-.2-.1-1.2 0-1.5-.1zm-.8.1v-.1.1zm-1.3 0c0-.2-.1-.2-.3-.4 0 .3.1.3.3.4zm4.2-.2v.1c-.2-.1-.1-.2-.2-.3.2 0 .1-.1.2.2.1-.1 0 0 .1-.2h.2l.1.1c.3 0 .5-.1.6 0h.2s0-.1-.1-.1c.1.1.1.1.1.2-.4 0-.8.2-1.2 0zm-4.9.2c0-.1.1-.1.1-.2v-.2h-.4v.2c.1.1.2.2.3.2zm1.4-.2s.1 0 .1-.1h.1v.1c-.1.1-.1.1-.2 0zm5.1-.1c.2-.2.4-.1.6-.3-.2 0-.5 0-.7.1-.1.1 0 0-.1.2h.2zm-4.1.1c-.1 0-.1 0 0 0-.1-.1-.1-.1-.1-.2 0 0 .1 0 .1-.1l.1.1s0 .1.1.1c-.1.1-.2.1-.2.1zm.5 0c-.1-.1-.1-.1 0 0-.1-.1 0-.1 0 0zm-1.9 0v-.1s.1 0 .1-.1c0 .1 0 .1.1.2h-.2zm-.3 0v-.1h-.1c.1 0 .1.1.1.1zm-.4 0c0-.1 0-.1 0 0-.1 0-.1 0 0 0zm-1.3 0v-.2h-.1c-.1 0-.2 0-.2.1h.2v.1h.1zm-.5.1v-.2h-.2l.2.2zm.9-.2c.1-.1 0-.1.1 0 0 .1-.1.1-.1 0zm-.7.1s0-.1 0 0c0-.1-.1-.1 0 0-.1-.1 0 0 0 0zm-.7-.5v-.2h-.2c.1.2.1.2.2.2zm-.3 0v-.2c-.3 0-1.2-.2-1.5 0v.1h.1c-.2.1-.1 0-.1.2h.2c.3-.3.9-.1 1.3-.1zm-2.1-.1v-.1c.1 0 .2 0 .2-.1 0 0 0 .1.1.1 0 .1-.1.1-.1.1-.1.1 0 .1-.2 0zm5.2-.6s-.1-.1-.2-.1l.2-.2c-.1-.1-.1-.2-.2-.2v.1c0 .1-.1.2-.1.3.2 0 .3 0 .3.1zm-3.7-.2c.2-.1.1 0 .1.1l-.1-.1zm-.2-.3s.1 0 0 0c0 .2-.1.1 0 .4-.2-.2-.1-.3 0-.4zm-1.2.3l.1-.1v.1h-.1zm6.6-.2v-.3h.1c0 .1.1.3.1.4 0-.1-.1-.1-.2-.1zm-4.8.2c0-.1 0-.1 0 0-.1-.1-.1-.1 0 0-.1-.1-.1-.1 0 0-.1 0-.1 0 0 0zm-2.2 0c0-.1.1-.1.1-.1 0 .1 0 .1-.1.1.1 0 0 0 0 0zm3.3-.4c0-.1 0-.1 0 0 0-.1 0-.1 0 0v.2c-.1-.2-.1-.1 0-.2zm6.1-.1v-.1l.1.1v-.1c-.1 0-.2-.1-.2-.1-.1.2 0 .1-.1.1-.1-.1-.8-.1-.9-.2.1.1.8.1.9.2 0 0 .1.1.2.1zm-10.5.2c0-.1 0-.1-.1-.1v.1h.1zm-.4 0s0-.1 0 0c0-.1 0-.1 0 0 .2-.1.1-.1.1 0h-.1zm4.3-.2v-.2c.1 0 .3.1.4.1-.1 0-.2.1-.4.1.1 0 0 0 0 0zm-.4 0c0-.1 0-.1 0 0 .1 0 .1 0 0 0zm-3.5-.1c.2.1.4 0 .5 0h.1v.2c-.3 0-.4 0-.6-.2zm-2.5.3c0-.1 0-.1 0 0 .2-.1.1-.1.1 0h-.1zm1.2-.1s0-.1 0 0c0-.1-.1-.1-.1 0h.1zm-1.5 0c0-.1-.1-.1-.1-.1 0 .1.1.1.1.1zm11.1-.3c0-.1 0-.3.1-.4-.1 0-.1-.1-.2-.1 0 .1-.1.2-.1.2h-.1c.1.2.2.2.3.3zm-2.1.1c0-.2.1-.4.1-.5h-.1c-.1 0-.2 0-.3.2.1 0 .2.1.3.3zm-1.2 0c0-.1 0-.2-.1-.3 0 0-.1 0-.1-.1-.1.2-.1 0-.3.2 0 0 .1 0 .1-.1v.2c.2-.1.2 0 .4.1zm-1.4 0c0-.2 0-.1.1-.3l-.3-.3v.1l-.1.1.1.1s-.1 0-.1.1c.1.1.1.2.2.3 0-.1 0-.1.1-.1zm3.2-.3c-.1 0-.1 0 0 0-.2-.1-.1 0-.2 0h-.1v-.2c.1 0 .2 0 .3-.1l.2.2-.3.3c.1-.1.1-.2.1-.2zm-1.5.2v-.1h.1v.1h-.1zm-7.3 0c0 .1 0 .1-.1.2-.1-.2-.1-.1.1-.2zm12.5-.2v-.1c.1.1.4 0 .5-.2-.1-.1-.2-.1-.2-.2l.1-.1c-.2 0 0 0-.2-.1v.3c-.1 0-.5-.1-.5 0 0 0-.8 0-.8.1.2.1.9.2 1.1.3zm.7-1h.8c.1.1.5.1.5 0v.3c.2 0 0-.1.2-.1l-.1-.1c.1-.1.1-.2.2-.2-.1-.1-.5-.2-.5-.2h-.1v-.1c-.1.1-.8.2-1 .4zm-4 1s0-.1 0 0c.1-.2.2-.2.3-.3l.1.1h.1c.1-.1-.1-.1.1-.1l.1.1c0 .1-.1.1-.1.2-.2 0-.1 0-.2.1-.1 0-.3 0-.4-.1zm-4.6.2c.1-.1.2-.3 0-.4v.1c.1.1.1 0 .1.1h-.1s-.1-.1-.2-.1v.2h.1c0 .1 0 .1.1.1zm-5.3 0c.1.1-.1.1-.1.1 0-.1-.1-.1.1-.1zm-1 .1v-.1h.2c0 .1-.1.1-.2.1.1 0 0 0 0 0zm12.5-.3c0-.1.1-.2.1-.3l-.3-.3v.1c0 .1.1.3.2.5zm-3 0c0-.1 0-.2-.1-.2h-.1v.1c.1.2.1.1.2.1zm-.3 0c-.1-.1-.1-.2-.3-.2v.1c.2.1.2.1.3.1zm-1.6 0l-.1-.1.2-.2c.1 0 .1.2.2.4-.1 0-.2-.1-.3-.1zm-2.2.1c0-.2 0-.1-.1-.2 0 .1 0 .1.1.2-.1 0-.1 0 0 0zm-.3 0c-.1 0-.1 0 0 0v-.2c.1.1.1.1.1.2h-.1zm-1.3 0c.1-.2.1-.2-.1-.3h-.1c-.1.1-.1.1-.1.3h.1v-.1s.1 0 .2.1zm-1.8 0c0-.1 0-.1 0 0 0-.1.1-.1.1-.1s0 .1.1.1h-.2zm-.2-.4c.1 0 .1.1 0 0 .1.1.1.1.1.2s0 .1-.1.2V26zm.5.3v-.2h.1l.1.1v.2c0-.1-.1-.1-.2-.1zm8.4-.2V26h.1l-.1.1c.1 0 .1 0 0 0zm-12.3.1s.1 0 .1-.1v.2c0-.1 0-.1-.1-.1zm16.6-.3c0-.1.1-.2.1-.2l-.2.2v-.2h-.4l.1-.1c.2-.1.4 0 .6.1 0 .2-.1.2 0 .3-.1-.1-.2-.1-.2-.1zm-6.5-.3c-.1 0-.1 0 0 0 .1-.1.1-.1.2-.1.1.1 0 .1.1.1.2.2.2 0 .1.3-.2 0-.4-.1-.4-.3zm-1.2.4c0-.1.1-.1.1-.1v.1h-.1zm-9 .3c0-.1.1-.1-.1-.1 0-.1 0 0 .1.1h-.1.1zm-.7-.1c.2 0 .1-.1.1 0s0 0-.1 0zm15-.3c0-.1 0-.1-.1-.2v-.1h.1c.1.1.2.2.3.2 0-.1.8-.2.8-.2s0 .1.1.1l.1-.1c0 .1.1.1.1.2v-.2h-.1c.1-.1.1-.1 0-.2h-.2c-.2.2-1.7.1-2 .1v.1h.4c.4.2.4.2.5.3zm3.4.2c0-.1 0-.1-.1-.2v-.1h.1c.1.1.2.2.3.2 0-.1.8-.2.8-.2 0 .1 0 .1.1.1l.1-.1c0 .1.1.1.1.2h.1v-.2h-.1c0-.1.1-.1 0-.2h-.2c-.2.2-1.7.1-2 .1v.1h.4c.2.3.2.3.4.3zm-11.8-.3c.2 0 .1-.1.1 0v.2s-.1-.1-.1-.2zm7.3-.2l-.1.1c-.2-.1-.1-.1-.2-.2.2 0 .3 0 .4-.1 0 0 0 .1.1.1v.3c-.2 0-.2 0-.2-.2zm-.5.3c0-.1.1-.2 0-.3h-.1v.2l.1.1zm-.9 0c.1 0 .1 0 .2-.1v-.1h-.3v.1c0 .1 0 .1.1.1zm.3-.1c0-.1-.1-.1 0 0-.1 0-.1 0 0 0-.1 0 0 0 0 0zm-8.1.2c.1-.1.2-.1.2-.3h-.2c0-.1-.1-.2-.2-.2l-.2.2v.1h.1c0-.2-.1-.1 0-.1.2.3.2.2.3.3zm-5.6.1c.1-.2.1 0 .1-.2h-.1c0 .2-.1.1 0 .2zm7.1-.2h-.2v-.2c.2.1.2.1.5.1v.1l-.1-.1v.2c-.1-.1-.2-.1-.2-.1zm-.6-.1c0-.1.1-.1.1-.2v-.1c.1.1.1.2.1.3 0 .1-.1.1-.2 0zm-4.9.3c0-.1.1-.2.1-.3h.3c-.1 0-.3-.1-.4-.1v.1c0 .1-.1.1 0 .3zm7.2-.3l.2-.2v-.1c-.3 0-.5 0-.6-.1v.1c.1.2 0 .1 0 .2.3.1.2.1.4.1zm-.8.1h.2v-.1s0-.1-.1-.1-.2-.1-.2-.1c.1.2 0 .1.1.3zm-4.5.1c0-.1-.1-.1-.2-.2v.1c.1 0 0 0 .2.1zm-1.6 0s0-.1 0 0c0-.1-.1-.1-.1-.1 0 .1.1.1.1.1zm-1.7-.1h.1v-.1c0 .1-.1.1-.1.1l-.1-.1c.2.1.2.1.2.3 0-.1 0-.1-.1-.2zm13.3-.4c0-.1.1-.1.1-.1.1.1.1.1.2.1v.1c-.2 0-.2.1-.3-.1zm-.4.2v-.2l-.1.1v.1h.1zm-10.4.2c.1 0 .1 0 0 0 .1 0 .1 0 0 0 0-.1 0-.1-.1-.1.1 0 .1.1.1.1zm6.5-.2c0-.1.1-.1.1-.1h.1c0 .1 0 .1-.2.1.1 0 .1 0 0 0zm-6.4 0c.1 0 .1 0 0 0h.2c0 .1 0 .1-.1.1l-.1-.1zm-.6.1c.1 0 .1 0 0 0h.2l-.1.1c-.2-.1-.1-.1-.1-.1zm4.1-.2c0-.1 0-.1 0 0 .1-.1.1-.1 0 0 .2.1.1 0 .1.2 0-.1 0-.2-.1-.2zm3-.1s.1 0 .1-.1c0 .1-.1.1-.1.1 0 .1 0 0 0 0zm-1 .1c0-.2 0-.2.1-.3-.2-.1-.3-.1-.5-.2 0 0 .1-.1 0-.1v-.1c-.1.1-.4.2-.4.4 0 0 0 .1.1.1h.1c.1-.1.1-.1.3-.2.1.3.2.3.3.4zm1.9-.1s0-.1-.1-.1h-.2v.1h.3zm-2.2.1c0-.1 0-.1 0 0 0-.1 0-.1 0 0-.1-.1-.1-.1 0 0zm-.7-.1s-.1 0 0 0c-.1 0 0 0 0 0 0 .1 0 .1 0 0zm-3 .2c0-.1 0-.1.1-.2h-.2l.1-.1h.2c0 .1 0 0-.1.1v.1c0 .1-.1.1-.1.1zm-4.2 0c0-.1.1-.1.1-.1v.1h-.1zm11-.3c-.1-.1 0 0 0-.1-.2.1-.2 0-.3.2-.2-.1-.2-.1-.3-.2-.1-.1 0 0-.1 0 0 0 0-.1-.1-.1.1-.1.2 0 .2-.3 0 0 0 .1.1.1.2-.1.1-.1.1-.2.1.1.1 0 .1.2 0 0 .1 0 .1-.1 0 .1 0 .1.1.2.1-.1.2-.1.3-.2v-.1c0 .1 0 .1.1.1.1.1.3.2.4.2v.2c-.4 0-.4 0-.7.1.1-.1.1 0 0 0zm-.2 0h-.1.1zm-1.9 0s0-.1-.1-.2c.1-.2 0-.1.2-.2l-.1-.1h.1c.2.1.1 0 .2 0 0 .1 0 .1-.1.1.1 0 .1 0 .2-.1.1.1.1.2.1.3.1.1 0 0 .2.1v.2c-.4-.1-.5-.3-.7-.1zm-5.1.2c0-.2.1 0 .2-.2l-.1-.1c-.2.1-.4.1-.5.3.1-.1.2 0 .4 0zm3-.3c.1 0 .1.1.1.1-.1-.1-.1 0-.1-.1-.2.1-.1.1-.2.2h-.1v-.2c.1-.1.2-.1.3 0zm11.1-.1v-.1c-.1 0-.3-.1-.4-.1l-.1.1c.2 0 .2.1.5.1zm-2.7 0c.3-.1.9 0 1-.2v-.1c-.2 0-.1 0-.2-.1v.1l-.1-.1c-.2.1-.5.2-.7.1 0 .2 0 .2-.1.3-.1-.2-.1-.3-.3-.3h-.4l-.1.1c0 .1.1.1.1.2h-.1c.1.1 0 .1.3.1h.1v-.2h.1v.1l-.1.1h.1c.2-.1.2-.2.4-.1zm-1.5-.3c-.1.1-.2.2-.2.3h-.5c0-.2 0-.2.1-.2v-.1c-.1 0-.1 0-.2.1v.4h-.7V25c.1 0 .2.1.3.2.2-.1.1-.1.3-.3.1-.1.5 0 .6.1.1 0 0 0 0 0 .2.1.4.2.7.2 0 .2 0 .2-.1.3-.2-.3-.2-.4-.3-.6zm-3.6.4c0-.1.1-.1.1-.1 0 .1 0 .1-.1.1.1 0 0 0 0 0zm-.3 0c-.1-.2 0-.1-.2-.1 0-.3 0-.2.1-.4h.1l-.1.1h.1l.1-.1s.1 0 .1-.1h.1c-.1.2-.2.3-.1.5 0 0-.1 0-.1.1h-.1zm-6.8.2s0-.1 0 0c-.1-.1-.1-.1-.2-.1.1.1.2.1.2.1zm-2.8.1c0-.1 0-.1 0 0-.1-.1-.1-.1-.2 0h.2zm17.2-.5c0-.1-.1-.2-.2-.3 0 0-.8 0-.8.1v.2h1zm-5.6.1c-.1-.2 0-.2-.2-.3v-.1h.3c-.1.2-.1.2.1.4h-.2c.1 0 .1 0 0 0zm-9.4.3v-.2h-.3s-.1 0-.2.1v.1h.1c.1-.2.3-.1.4 0zm12.5-.5c-.1.1 0 0 0 0 0 .1 0 .1 0 0zm-2.2.2l-.1-.1.1.1v-.1.1zm-6.6.1v-.1h-.1c.1 0 .1.1.1.1zm9.4-.2c0-.1-.1-.1 0 0-.1-.1 0-.1 0 0 0-.1 0-.1 0 0zm-7.7 0h-.1l.1.1v-.1zm-6.2.2c0-.1 0-.1 0 0 .1-.1.1-.1.2-.1v.2c-.1-.1-.1-.1-.2-.1zm-1.3.1c.1-.1.1-.1.1-.2h-.1s-.1 0-.1.1h-.1s.1 0 .2.1zm-.8 0c.1-.1.1-.1.1 0h-.1zm1.5-.1c.1-.1.3-.1.3-.1h-.1c-.1-.1-.1-.1-.3-.1 0 .2 0 .1.1.2-.1 0-.1 0 0 0zM108 25c-.1-.1-.1 0-.1-.1h.1v.1zm-7.5.1c0-.1 0-.1 0 0-.1-.1-.1-.1-.3-.1v.1c.2-.1.2-.1.3 0zm-8.8.1c0-.1.1-.1.1-.2h.1c0 .1 0 .2.1.2h-.3zm9.1-.2c0-.1 0-.1 0 0 0-.1.1-.1.1-.1v.1h-.1zm-.2-.1s0-.1 0 0h.1c0 .1-.1 0-.1 0zm-7.4-.1v.2c-.3 0-.1-.1-.3 0 0-.1-.1-.2-.1-.3.4 0 2.4 0 2.7.2v-.1c.2 0 .2 0 .2.2l.4-.2s0 .1.1.1c0 0 .1 0 .1-.1h.2c-.1.2-.1.2-.3.2v.1c-.9-.2-2.6 0-3-.3zm3.9.2c-.3 0-.3 0-.4-.1 0-.1.1-.1.1-.2.1.1.3 0 .5 0 0-.1-.1-.2-.2-.3l.1-.1c.1 0 .3.1.4.1h.1c-.1 0-.2.1-.2.1h-.1c.1.2.3.1.4.2-.2.1-.4.1-.6.2 0 .1-.1.1-.1.1zm5.5-.2c0-.1 0-.2-.1-.1l.1.1zm-.8 0v-.1c.1 0 .1.1 0 .1.1 0 .1 0 0 0zm-4-.3c.1 0 .2 0 .3-.1 0 .1-.1.1-.1.2h.1s.1 0 .1-.1v-.2c.4 0 .9.1 1.3 0l.1.1c-.3.1-.9.2-1.2.1-.1.1 0 .1-.1.2-.1 0-.2.1-.3.1h-.1l-.1-.3zm-5.1.4s.1 0 0 0c0-.2 0-.2-.1-.3l-.3.3c-.2-.2-.4-.2-.7-.3v.1c.2.1 0 .1.1.1.4.1.7.1 1 .1zm-1.2 0c0-.1.1-.2.1-.3 0 .1-.1.1-.1.2-.1-.1-.1 0 0 .1-.1 0-.1 0 0 0zm8.4-.3c.1 0 .1-.1 0 0 .1-.1.1-.1 0 0 0-.2-.1-.2-.2-.2v.1c.1.1.2.1.2.1zm-9.1.2s0-.1 0 0c.1-.1.2-.1.2-.1s-.1 0-.1.1h-.1zm6.3-.2c-.1-.1-.2-.2-.2-.1l-.1.1h.3zm-6 .2c0-.1.1-.1 0 0v-.1h.1s0 .1.1.1h-.2zm-.4 0s0-.1-.1-.1v.1h.1zm10.1-.3s0-.1 0 0c.1-.1.1 0 .2 0h-.2zm-.3 0c0-.1 0-.1 0 0 .3-.1.2-.1.2 0h-.2zm-10.7.1c0-.1.1-.1.1-.1h.3c.1 0 0 .1-.1.1h-.3zm14.8-.4s0-.1-.1-.1h-.1v.1c.1-.1.1-.1.2 0zm-.9-.1V24c.3 0 .3 0 .3.1h-.3zm-.6 0c0-.2 0-.1-.2-.1v.1h.2zm-9.5.2h-.2c0-.1.1-.2.1-.2.3 0 .5.2.6.1v.1c-.1.1-.1 0-.2.1-.1-.1-.2-.1-.3-.1zm9.3-.2c-.1-.1-.3-.2-.3 0h.3zm-.6 0l.1-.1v.1h-.1zm-.6 0c.1-.1.1 0 .1-.1h-.3v.1h.2zm-8.8.2v-.2c.1 0 .1.1 0 .2.1-.1.1-.1.1-.2.2.1.2.1.3.2h-.4zm-.7 0s0-.1-.1-.1-.1.1-.2.1l-.1-.1-1.9-.1s.1 0 .1-.1v-.3l.1.1c.2-.1.8 0 1.1.2 0-.1.1-.1.1-.2.1.1.6.2.8.2 0-.1.1-.2.1-.2h.1c.1.1.1.1.1.2h.2v.1c-.2.2-.3.2-.4.2zm9-.4h.2l-.1.1c-.1 0 0 0-.1-.1zm-.4.2V24h.3v.1h-.3zm-.2 0c0-.1-.1-.1 0 0 .1 0 0-.1.1 0h-.1zm-.2 0V24c-.3 0-.9 0-1 .1h1zm-3.6.1s0-.1 0 0c0-.1.1-.1.1-.1s0 .1-.1.1zm-2.3 0c-.1-.2 0-.1-.1-.1-.1.1-.1 0-.2 0v.2h.1c.1-.1.1-.1.2-.1zm-1.7.1c0-.1-.1-.1-.1-.2v.1c.1.1-.1 0 .1.1zm5.9-.2c-.1 0-.1 0 0 0 0-.1-.1-.1-.1-.1h.4v.1h-.3zm-3.5.1c0-.1 0-.1-.2-.1v.1h.2zm-5.7.1l-.2-.2v.1h.1c0 .1.1.1.1.1zm9.7-.3c0-.1 0-.1 0 0-.1 0-.1 0 0 0zm-9.5.1c0-.1 0-.1 0 0 .1-.1.1-.1.2-.1v.1h-.2zm4.9-.4c-.1 0-.2-.1-.3-.1v.1h.3zm19-13.7c1.3.2 1.3.5 2.1 1.2.3.3 1 .7 1 1 .2 1.2-.6 2.5-.9 2.9-.2.4-1.2 1.5-1.8 1.9-.1.1-.4.1-1.3.1-1 0-1.7.1-2.6.1-1.5.3-4.7.2-5.9-.1-1.1-.3-2.8.1-3.1-.4v-.2c0 .1-.1.1-.1.2h-.2s-1.1-.5-1.2-.5c-.3.2 0 .1-.3.2l.1-.1c.1-.1.2-.2.2-.3h-.2l.1-.1h-.1c0 .1-.1.2-.2.2s-.5-.1-.5-.1l.2-.2c.1 0 .3-.1.3-.1s0-.1-.1-.1-1 .3-1 .2c0 0 .2-.3.2-.5 0 0-.1 0-.1.1-.2.1-.3.1-.4.2-.3 0-.8-.2-.7-.3.2-.1 1-.3 1-.3l.1-.1v-.2c-.2.1-1.4 0-1.8-.1-.2 0-.7 0-1-.1-.7-.2-1.3-.8-2.4-.7.2-.1.3-.3.5-.4.1 0 .2-.1.3-.1-.4 0-.5-.3-.8-.3-.6-.2-1.9-.2-2.1-.6 0-.1.1-.2.1-.3-.3.1-.4.1-.3-.1l.2-.1c-.3 0-.2-.1-.3-.1h-.3s.3-.2.4-.4l.2-.2c.2-.2.4-.3.5-.4h.2c.1 0 .1 0 .1-.1v-.1h.2s-.4-.1-.3-.2c.1-.1.6-.2.9-.2.3 0 1-.1 1.4-.4-.1 0 .5-.2.8-.2l.1-.1s.1-.1.2-.1c.1-.1.1 0 .2-.1s.5 0 .7-.1c.2 0 .4-.2.6-.2h1c.2 0 .6-.2.9-.1 1 .2 2.8.2 4 .4.5.1 1.5-.1 2.2.1.9.2 2.4.1 3.2.2.4 0 1.1.1 1.6.1h3.6c.3.3.6.3.6.3zm-9.7 5.9s.1 0 0 0c.1-.1.2-.1.2-.2v-.1c.1.1.1.1.1.2-.1 0-.2.1-.3.1.1 0 .1 0 0 0zm-.1.1s.1-.3-.1-.2c-.1 0-.1.1-.1.1.1 0 0 0 .2.1zm1.1-.7l.1-.1h.5v.1h-.3c.1.2.4.1.3.3.2-.1 0 0 .2 0l.2-.2c0 .2 0 .1.1.2v.2c-.3 0-.6-.1-1.1 0v.1l.1.1c-.3-.3 0-.5-.1-.7zm-2.5.5c.1-.1.1-.2.2-.3h-.1v.1c-.1.1-.1.2-.1.2zm-.5 0c.2-.2.3-.3 0-.3v-.1l-.1.1v.1l-.1.1c.1 0 0 0 .2.1zm-1.3 0l.1-.1h.1l-.1.1h-.1zm-.5-.1c.1-.1.2-.3.3-.4v-.2l-.3.3-.1.1c.1 0 .2-.1.3-.1-.2.3-.2.2-.2.3zm6-.1c-.1-.1 0-.1-.1-.2v-.1c.2 0 .2-.1.4-.2.4.1 1.6.5 2.2.3v.1c-.2.2 0 .1-.2.2-.1.1 0 0-.1 0-.1.1-.1.1-.1.2-.3-.1-1.9-.2-2.1-.3zm-1 .1v-.1h.1l-.1.1zm-1.6 0c.1-.2.1-.2 0-.4-.1.2-.1.2 0 .4zm5.5-.1c0 .1-.1.1-.1.2-.1-.1 0-.2 0-.3v-.1c.2 0 .1 0 .1.2.2-.1 0 0 .2-.2l.1.1h.1v-.2.2c.3 0 .6-.1.7 0h.2v-.2c.1.1.1.1 0 .3-.4.1-1.1.3-1.3 0zm-6.2 0c.1-.1.2-.1.3-.2v-.1l.1-.1c-.3 0-.3 0-.5-.1 0 .1-.1.1-.1.2v.1c0 .1.1.2.2.2zm1.7-.1s.1-.1 0 0h.3l-.2.2c0-.2 0-.2-.1-.2zm6.3.2c.3-.2.5-.1.8-.2h-.9l-.2.2c.1-.1.2 0 .3 0zm-5.1-.2h-.1c0-.1.1-.1.1-.2h.1c.1 0 .1 0 .1-.1v.3h-.2zm.6 0h-.1c0-.1 0-.1.1 0 0-.1 0-.1 0 0zm-2.2-.1l.2-.2c.1 0 .1 0 .2-.1h.1c0 .1-.1.1-.1.2-.3.1-.3.1-.4.1zm-2.3 0c.1-.1.2-.1.2-.2h-.1c-.1 0-.2 0-.3.1.1 0 .1 0 .2.1-.1 0-.1.1-.2.1.1-.1.2-.1.2-.1zm-.6 0c.1-.1.2-.1.2-.2-.1 0-.1 0-.2-.1v.3zm0-.6c.1-.1.2-.1.2-.2h-.2v.2zm-2.3-.2l.2-.2c.1 0 .2 0 .3-.1h.1c0 .1-.1.1-.1.2-.1 0-.2.1-.3.2-.1-.1-.1-.1-.2-.1zm6-.5V14c.2-.1.5-.1.8-.2 0-.1 0-.1-.1-.2 0 0 0 .1-.1.1-.1.1-.6.2-.7.3 0 .1.1.1.1.1zm-3.7-.3c.2 0 .2 0 0 .1-.1 0-.1.1 0-.1zm5 .2h.2c-.1-.1 0-.1-.1-.1l-.1.1zm-4.9-.4c-.3.2-.2.1-.4.4-.1-.2.1-.3.4-.4zm-1.7.2c.1 0 .1-.1.2-.1h.1c-.1.1-.2.1-.3.1.1.1 0 .1 0 0zm7.5.1c.1-.1.1-.2.2-.3h.1c0 .1-.1.2-.1.4 0-.1-.1-.1-.2-.1zm-1.2 0c0-.1.1-.1.1-.2h-.1l-.2.2h.2zm-2.1-.1c0-.1.1-.2.1-.2l-.1.1h-.1c0 .1 0 .1.1.1zm-2.2 0c0-.1 0-.1 0 0 0-.1-.1 0-.1 0h.1zm-2.4 0l.1-.1h.1l-.1.1h-.1zm9.2-.2c0 .1-.1.1 0 0l-.2.2h-.2c0-.1.1-.1.1-.2h.3zm-.9.1l.1-.1c0 .1.1 0 0 .1h-.1zm-1.4-.2s.1 0 .1.1c0 0 0 .1-.1.1-.1-.2-.1 0 0-.2zm3.7.1l.1-.1c0 .1 0 0 .1.1v-.1c-.1-.1-.1-.1-.2-.1-.2.2 0 .1-.2.1 0-.1-.7-.1-.8-.2.1.1.7.2.8.2 0 .1.1.1.2.1zm-11.4-.1c.1-.1.1 0 0 0-.1-.1-.1 0-.2 0h.2zm-.3 0s0-.1 0 0c.1-.1.1-.1.2-.1s.1 0 0 .1h-.2zm4.5-.1c.1-.1.1-.2.2-.2s.2.1.3.1c-.1 0-.2.1-.5.1.1 0 .1 0 0 0zm-.4 0c.1-.1.2-.1.2-.1l-.1.1h-.1zm-3.5-.2c.1.1.4 0 .5 0h.1l-.2.2c-.2 0-.4 0-.4-.2zm-2.4.3l.1-.1c.1 0 .1 0 0 .1h-.1zm11.4-.1l.4-.4-.1-.1c-.1.1-.2.1-.2.2h-.1c-.2.1-.1.2 0 .3zm-2.3 0l.5-.5h-.1c-.1 0-.2 0-.4.2v.3zm-1.5-.1c.1-.1.5-.2.6-.3h-.1c-.3.2-.1 0-.4.1h.1l-.1.1h-.5c.3 0 .2 0 .4.1zm-1.5 0c.2-.1.2-.1.4-.3 0-.1.3-.2.3-.3-.1 0-.5.1-.6.1v.1h-.2c0 .1 0 .2-.1.3.1.1.2.1.2.1zm3.8-.2c-.1-.1 0 0-.2 0 .1 0 .1-.1.1-.1h.4c.1.1.1.1.1.2-.2.1-.3.2-.5.3.1-.3.1-.3.1-.4zm-1.6.2l.1-.1h.1s0 .1-.1.1h-.1zm2.1-.2c.2-.2.4-.2.6-.3.1.1 0 0 0 .1h.1c.2-.1 0-.1.2-.1.1.1 0 0 0 .1h.1l-.2.2c-.2 0-.1 0-.3.1-.3 0-.5.1-.5-.1zm-5.2.1c.2-.1.4-.2.4-.4l-.1.1v.1h-.2s0-.1-.1-.1c-.1.1-.2.1-.2.2h.1c0 .1 0 .1.1.1zm-5-.1c0 .1-.2.1-.3.1.2-.1.1-.1.3-.1zm-1.1.1c.1 0 .1-.1.2-.1-.1 0-.1 0-.2.1.1 0 0 0 0 0zm12.8 0l.3-.3c-.1-.1-.1-.2-.2-.3h-.1s0 .1-.1.1c.2.1.2.3.1.5zm-2.9-.1c.1-.1.1-.2.1-.2h-.1l-.1.1c-.1.1-.1.1.1.1zm-.3 0c0-.1 0-.2-.2-.2l-.1.1c.2 0 .2.1.3.1zm-2 0l.4-.1c.2-.1.3-.1.4-.2.1.1-.4.1-.5.3h-.3zm-2.4 0c.1-.2.2-.1.1-.2 0 .1-.1.1-.1.2 0-.1 0 0 0 0zm-.3 0l.2-.2c0 .1 0 .1-.1.2h-.1zm-1.1-.1c.2-.2.3-.1.2-.3h-.1c-.3.2-.3.1-.5.3h.1c.1 0 .1-.1.2-.1-.1.1-.1.1.1.1zm-1.8 0c.1-.1.2-.1.3-.1l-.1.1h-.2zm.1-.3c.1 0 .1 0 0 0 0 .1-.1.1-.1.2-.2.1-.2.1-.3.2l.4-.4zm.2.2c.1-.1.2-.1.3-.2h.2v.1c-.1.1-.2.1-.3.2-.1 0-.1 0-.2-.1zm-3.3-.1h.1c-.1 0-.1.1-.2.1.1 0 .1-.1.1-.1zm10.3-.3c.1-.1.1-.1 0 0 .1-.1.2-.1.2 0s0 .1-.1.1c0 .2.2 0-.2.3.1-.2.1-.3.1-.4zm-1.4.3s0-.1 0 0c.1-.1.2-.1.2-.1l-.1.1h-.1zm-9.1.1c.2-.1.1-.1.1-.1-.1 0-.1 0-.1.1H94h.2zm-.7-.1l.1-.1c.1.1.1 0-.1.1 0 .1 0 0 0 0zm15.2 0c0-.1 0-.1.1-.2l.1-.1c0 .1 0 .2.2.2.1-.1.9-.1 1-.2v.1l.1-.1v.2-.1h.1-.1c.1-.1.1-.1.1-.2h-.2c-.3.2-1.7 0-1.9 0 0 0 0 .1-.1.1h.4c.1.3 0 .3.2.3zm-8.6-.3s.1 0 0 0c.2 0 .2-.1.1 0s-.1.1-.3.2c.1 0 .1-.1.2-.2zm7.6 0l-.2.1c-.2-.1 0-.1 0-.2.2 0 .3 0 .5-.1v.1c0 .1-.1.2-.2.3-.2 0-.2 0-.1-.2zm-.7.3c.1-.1.2-.2.2-.3h-.1c-.1.1 0 0-.1.3 0-.1 0-.1 0 0zm-.9-.1h.2s0-.1.1-.1h-.3l-.1.1h.1zm-13.4.1c.3-.2 0 0 .4-.2H93c-.3.1-.2 0-.3.2zm6.9-.2h-.2c.1 0 .1-.1.2-.1l.1-.1c.1.1.1.1.4.1l-.1.1v-.1s-.1.1-.2.1h-.2zm-.5-.1c.1-.1.2-.1.3-.2h.1c-.1.1-.1.2-.4.2.1.1.1.1 0 0zm-4.7.2c.2-.1.3-.2.5-.3h.3c-.1 0-.2-.1-.3-.1-.1 0-.2.1-.2.1-.1.2-.2.1-.3.3zm7-.1c.2-.1.2-.1.4-.1 0 0 .4 0 .5-.1-.3 0-.5 0-.5-.1 0 0-.5 0-.5.1-.1.1-.1.1-.3.2.3-.1.2-.1.4 0zm9.1.6c.2-.1.2-.1.4-.1 0 0 .4 0 .5-.1-.3 0-.5 0-.5-.1 0 0-.5 0-.5.1-.1.1-.1.1-.3.2h.4zm-10-.6h.2v-.1c-.1 0-.1-.1-.1-.1 0 .1 0 0-.1.2zm-5.7 0l.1-.1s-.1 0-.1.1c-.1 0-.1 0 0 0-.1 0 0 0 0 0zm-1.6 0s.1 0 0 0h.1c0-.1 0-.1-.1 0l.1-.1h.1c.2 0 .1 0-.2.1zm13.2-.2c.1 0 .1 0 0 0 .1-.1.2-.1.2-.1l.1.1-.1.1c-.1 0-.1.1-.2-.1zm-.4.2c0-.1.1-.1.1-.2-.1 0-.1.1-.2.1 0 0 0 .1.1.1zm-10.7-.2c.1 0 .1 0 0 0 .1 0 .1 0 0 0h.1c-.1 0-.2.1-.3.1.2-.1.2 0 .2-.1zm3.9-.1l.1-.1c-.1.2 0 .1-.2.2.1 0 .1 0 .1-.1zm3.3 0h.2-.2c-.1 0 0 0 0 0zm.8 0s0-.1.1-.1h-.2l-.1.1h.2zm-2.4 0c0-.1 0-.1 0 0-.1 0-.1 0 0 0-.1 0-.1 0 0 0zm-3.4 0c.1 0 .2-.1.3-.1h-.2c.2-.1.2-.1.3-.1h.1l-.2.1c-.1 0-.1.1-.2.1h-.1zm6.8-.1c-.1-.1 0 0 .1-.1-.2.1-.2 0-.4.2-.1-.1 0-.1-.1-.2 0-.1 0 0-.1 0V12c.2-.1.2 0 .4-.2 0 0 0 .1-.1.1.2-.1.2-.1.3-.2 0 .1 0 0-.1.2h.2c0 .1-.1.1-.1.2.2-.1.3-.1.5-.2 0 0 0 .1-.1.1 0 .1.1.1.2.2-.1 0-.1.1-.2.1 0 0 0 .1-.1.1-.1-.1-.2 0-.4 0 .1-.2.1-.2 0-.2zm-.2.1h-.1.1zm-1.8-.1s.1-.1.1-.2c.2-.1.1-.1.4-.2v-.1h.2c-.1 0-.1.1-.2.1 0 0 .1 0 .3-.1 0 .1-.1.2-.2.2 0 .1 0 0 .1.1-.1.1-.2.1-.3.2-.1 0 0-.1-.4 0zm-5.1.1c.3-.2.1 0 .5-.2V12c-.3.1-.5.1-.8.2.1 0 .2.1.3.1zm3.2-.3c.1 0 .1 0 0 0l-.4.1s.3.1.4-.1c-.3.1-.5.1-.8.2h-.1c.1-.1.5-.1.6-.2h.3zm8.1.2c.3-.1.8 0 1-.2l.1-.1c-.2 0-.1 0-.2-.1h-.1v-.1c-.3.1-.5.1-.7.1-.1.2-.1.2-.2.2 0-.2 0-.2-.1-.3h-.4c-.1 0-.1.1-.2.1v.2h-.1c0 .1-.1.1.2.1h.1l.2-.2h.1s0 .1-.1.1l-.1.1h.1c.1.1.2 0 .4.1zm3 .6c.3-.1.8 0 1-.2l.1-.1c-.2 0-.1 0-.2-.1h-.1v-.1c-.3.1-.5.1-.7.1-.1.2-.1.2-.2.2 0-.2 0-.2-.1-.3h-.4c-.1 0-.1.1-.2.1v.2h-.1c0 .1-.1.1.2.1h.1l.2-.2h.1s0 .1-.1.1l-.1.1h.1c.2.1.3 0 .4.1zm-4.4-.8c-.1.1-.2.1-.4.2h-.4l.2-.2s0-.1.1-.1h-.2c-.1.1-.1.2-.2.2 0 0 0 .1-.1.1h-.6c.1-.1.2-.2.3-.4.2 0 .2 0 .1.2.2-.1.2-.1.5-.2.2 0 .4 0 .5.1h.1c.1.1.3.2.5.2-.1.2-.1.2-.3.2-.1-.1-.1-.2-.1-.3zm-3.6.2c0-.1 0-.1 0 0 .1-.1.1-.1.2-.1-.1 0-.1 0-.2.1.1 0 0 0 0 0zm-.3 0c.1-.2.1-.1-.1-.1h.1c.2-.2.3-.2.5-.3h.1c-.1 0-.1.1-.2.1h.1l.2-.1h.1c-.3.2-.5.2-.5.4h-.3zm-6.6 0l.1-.1s-.1 0-.1.1c0-.1-.1-.1 0 0zm-2.8 0l.1-.1h-.4c.1.1.2.1.3.1zm16.7 0c0-.1 0-.2-.1-.3h-.8l-.2.2c.2.1 1 .1 1.1.1zm-5.3-.1c.1-.2.2-.2.1-.3 0 0 0-.1.1-.1h.3c-.2.2-.3.2-.2.3 0 .1-.1.1-.3.1.1 0 .1 0 0 0zm-9.2.1c.1-.1.2-.1.3-.2h-.6l-.1.1c.4-.1.4 0 .4.1zm12.2-.2c-.1.1 0 0 0 0 0 .1 0 .1 0 0zm-2.1.1c-.1-.1 0 0 0 0 0-.1 0-.1 0 0l.1-.1-.1.1zm2.7 0s0-.1 0 0c0-.1 0-.1 0 0 0-.1 0 0 0 0zm-7.2-.2h-.1v.1l.1-.1zm-1.5.1h-.1.1zm-4.6 0l.1-.1h.2c-.1.1-.2.1-.3.1 0 0 .1 0 0 0zm-1.4.1l.4-.2h-.3c-.1.1-.1.1-.1.2zm.7-.1c.2-.1.4-.1.5-.1 0-.1 0-.1-.2-.1-.2.2-.1.1-.3.2zm14.2 0v-.1h.1s0 .1-.1.1zm-15.5-.1l.4-.2h.1c-.1.1-.2.1-.3.2h-.2zm15 0c.1 0 .1 0 0 0 .1-.1.1-.1 0 0zm-13-.3c-.1 0-.2.1-.2.1-.2 0 0-.1-.3 0 .1-.1.2-.2.3-.2h.1c.4 0 2.1 0 2.2.2.1 0 .1-.1.2-.1v.2l.6-.2-.1.1h.3c-.4.2-.3.1-.5.1l-.1.1c-.8-.2-2.6 0-2.5-.3zm3.3.2c-.3 0-.2 0-.3-.1.1 0 .2-.1.3-.1h.4c.1-.1.1-.2.2-.2s.1 0 .2-.1c.1 0 .2 0 .3.1-.1 0-.2.1-.3.1h-.1c-.1.1.1.1.2.2-.3.1-.5.1-.8.2 0-.1 0-.1-.1-.1zm5.3-.1c.1 0 .2-.1 0 0zm-4.4 0c.1-.1.3-.2.4-.3l-.1.1h.3c-.1.1-.2.1-.3.2h.2c.1-.1.2-.1.3-.2.4 0 .7.1 1.1 0v.1c-.3.1-1.1.2-1.1 0-.2.1-.2.1-.3.2-.1-.1-.3-.1-.5-.1.1 0 0 0 0 0zm-.4 0s0-.1 0 0l.1-.1-.1.1zm-4.5 0h.2l.2-.2c-.2.1-.4.2-.7.2 0-.1-.2-.1-.3-.2l-.1.1c.1.1-.1 0-.1.1.3-.1.6 0 .8 0zm-1-.1l.6-.3c-.1 0-.2.1-.3.1-.2.1-.3.2-.3.2-.1 0 0 0 0 0zm8.1-.1c.1 0 .1-.1.2-.1-.1 0-.1 0-.1-.1-.1 0-.1.1-.2.1-.1.1 0 .1.1.1zm-2.7 0c0-.1.1-.1-.1-.1-.1 0-.1.1-.2.1h.3zm-5.6 0h.1l.1-.1h.1s-.1.1-.2.1h-.1zm9.2 0c0-.1 0-.1 0 0h.2-.2zm-.4 0c.1-.1.1-.1 0 0 .1-.1.1-.1.2-.1s.1 0 .1.1h-.3zm-9.9-.1l.1-.1h.3s-.1 0-.3.1h-.1zm4-.2h-.2c.1-.1.3-.1.4-.2.2 0 .2.2.5.1 0 0-.1.1-.2.1-.2 0-.1 0-.3.1-.1-.1-.2-.1-.2-.1zm-.6 0c.1 0 .2-.1.2-.1l.1-.1c-.1 0-.1.1-.2.1 0 0 .1-.1.2-.1s.1.1 0 .1c-.1.1-.2.1-.3.1zm-.8 0l.1-.1c-.1 0-.3.1-.4.1v-.1c-.5 0-1.1-.1-1.6-.1h.2c.1-.1.3-.2.4-.2l-.1.1c.3-.1.7 0 .7.2.1 0 .2-.1.4-.1 0 .1.3.1.4.2.1-.1.3-.1.4-.2h.1c-.1.1-.2.1-.3.2h.2c-.1 0-.1.1-.2.1 0-.1-.1-.1-.3-.1zm.7 0l.2-.2c-.1 0-.2.1-.2.2 0 0-.1-.1 0 0zm-1.7-.2c0 .1-.1.1 0 0 0 .1.1 0 0 0zm1.6.1l.1-.1-.1.1c0-.1 0-.1 0 0zm-1.3-.1c-.1 0-.1 0-.1.1 0-.1 0-.1.1-.1zm-1.1 0s.1-.1 0 0c.1 0 .2-.1.3-.1l-.1.1h-.2zm2.1-.3c.1-.1 0 0 0 0 0-.1 0 0 0 0z" fill="#6FC06A"/><path d="M19.7 29.7h-3.3l-3.8-12.4-3.8 12.4H5.5L0 9.2h4.2l3.2 12.9 3.7-12.9h3l3.8 12.9 3.2-12.9h4.1l-5.5 20.5zm18.1 0l-1.2-3.6h-7.3l-1.2 3.6h-4.2l7.5-20.5h3.1L42 29.7h-4.2zM33 15.3l-2.6 7.5h5.1L33 15.3zm24.8 12.5c-1.4 1.4-3.3 2-5.4 2H45V9.2h7.4c2.1 0 4.1.6 5.4 2 2.3 2.3 2.1 5.1 2.1 8.2-.1 3.1.2 6.1-2.1 8.4zM55 14c-.7-.8-1.6-1.3-3-1.3h-3v13.4h3c1.4 0 2.3-.4 3-1.3.8-.9.9-2.4.9-5.5-.1-3-.2-4.3-.9-5.3zm20 15.7l-1.2-3.6h-7.3l-1.2 3.6h-4.2l7.5-20.5h3.1l7.5 20.5H75zm-4.8-14.4l-2.6 7.5h5.1l-2.5-7.5zm72.9 14.5l-1.2-3.7h-7.4l-1.3 3.7h-4.3l7.6-20.9h3.2l7.6 20.9h-4.2zM138.2 15l-2.6 7.6h5.2l-2.6-7.6zm26.6 14.8V17.6l-4 7.9h-2.7l-4-7.9v12.2H150v-21h4l5.5 11.4 5.4-11.4h4v21h-4.1zm20.9 0l-1.2-3.7h-7.4l-1.3 3.7h-4.3l7.6-20.9h3.2l7.6 20.9h-4.2zM180.9 15l-2.6 7.6h5.2l-2.6-7.6z" fill="#1C384A"/></svg>