<svg width="1947" height="294" viewBox="0 0 1947 294" fill="none" xmlns="http://www.w3.org/2000/svg">
<path d="M509.494 139.155C509.494 153.622 506.889 167.124 501.679 179.662C496.662 192.007 489.716 202.712 480.84 211.778C471.964 220.844 461.352 227.981 449.003 233.189C436.847 238.397 423.727 241.001 409.641 241.001C394.977 241.001 381.181 238.3 368.253 232.899C355.325 227.498 344.134 220.169 334.679 210.91C325.225 201.458 317.7 190.367 312.104 177.637C306.701 164.713 304 151.018 304 136.551C304 122.085 306.701 108.486 312.104 95.7552C317.7 82.8316 325.128 71.7405 334.39 62.4819C343.845 53.0303 355.036 45.6041 367.963 40.2032C380.891 34.8023 394.687 32.1019 409.352 32.1019C425.367 32.1019 440.513 35.1881 454.792 41.3605C469.07 47.533 481.13 56.1165 490.97 67.1112L470.131 87.3645C462.606 78.6845 453.441 72.0299 442.636 67.4005C432.023 62.5783 420.929 60.1672 409.352 60.1672C398.932 60.1672 389.092 62.0961 379.83 65.9539C370.761 69.8116 362.85 75.2125 356.097 82.1565C349.537 88.9076 344.327 97.009 340.468 106.461C336.802 115.719 334.969 125.749 334.969 136.551C334.969 147.353 336.898 157.48 340.757 166.931C344.616 176.19 349.826 184.291 356.386 191.235C363.14 197.986 371.051 203.387 380.119 207.438C389.381 211.296 399.318 213.225 409.93 213.225C427.875 213.225 443.118 207.824 455.66 197.022C468.395 186.027 475.727 172.139 477.657 155.358H410.22V128.739H509.494V139.155Z" fill="#333333"/>
<path d="M578.678 240.422C562.663 240.422 549.639 236.275 539.605 227.981C529.572 219.686 524.555 208.885 524.555 195.575C524.555 181.687 529.861 170.789 540.474 162.881C551.086 154.779 565.654 150.729 584.177 150.729C591.316 150.729 598.263 151.5 605.016 153.043C611.769 154.393 618.233 156.322 624.408 158.83V143.206C624.408 132.79 621.32 124.978 615.146 119.77C608.971 114.562 600.096 111.958 588.519 111.958C581.765 111.958 574.722 113.019 567.39 115.141C560.058 117.069 551.858 120.156 542.789 124.399L532.08 102.699C543.078 97.4912 553.498 93.7299 563.338 91.4152C573.179 88.9076 582.923 87.6539 592.571 87.6539C611.673 87.6539 626.434 92.2832 636.853 101.542C647.465 110.608 652.771 123.531 652.771 140.313V237.818H624.408V225.087C617.847 230.295 610.804 234.153 603.279 236.661C595.754 239.168 587.554 240.422 578.678 240.422ZM552.34 194.997C552.34 202.133 555.331 207.92 561.312 212.357C567.487 216.793 575.494 219.011 585.335 219.011C593.053 219.011 600.192 217.854 606.752 215.539C613.313 213.225 619.198 209.753 624.408 205.123V179.662C618.812 176.576 612.927 174.357 606.752 173.007C600.578 171.464 593.825 170.693 586.493 170.693C576.073 170.693 567.776 172.911 561.602 177.347C555.427 181.784 552.34 187.667 552.34 194.997Z" fill="#333333"/>
<path d="M680.333 237.818V90.5472H709.275V104.435C714.678 99.0343 720.853 94.8872 727.799 91.9939C734.745 89.1005 742.367 87.6539 750.664 87.6539C760.504 87.6539 769.38 89.8721 777.291 94.3085C785.202 98.5521 791.473 104.532 796.104 112.247C802.085 104.146 809.224 98.0699 817.521 94.0192C826.011 89.7756 835.466 87.6539 845.885 87.6539C862.093 87.6539 875.31 93.0547 885.537 103.857C895.956 114.465 901.166 128.257 901.166 145.231V237.818H872.223V150.15C872.223 138.577 869.136 129.511 862.961 122.953C856.98 116.201 848.78 112.826 838.36 112.826C831.221 112.826 824.757 114.465 818.968 117.745C813.18 121.024 808.163 125.942 803.918 132.501C804.304 134.429 804.594 136.551 804.786 138.866C804.979 140.988 805.076 143.109 805.076 145.231V237.818H776.423V150.15C776.423 138.577 773.335 129.511 767.161 122.953C761.179 116.201 752.979 112.826 742.56 112.826C735.613 112.826 729.342 114.369 723.747 117.455C718.151 120.349 713.327 124.785 709.275 130.765V237.818H680.333Z" fill="#333333"/>
<path d="M1056.28 221.037C1047.79 227.595 1038.91 232.513 1029.65 235.793C1020.39 238.879 1010.26 240.422 999.261 240.422C988.456 240.422 978.326 238.493 968.872 234.635C959.417 230.585 951.216 225.184 944.27 218.433C937.324 211.681 931.825 203.677 927.773 194.418C923.914 184.966 921.984 174.84 921.984 164.038C921.984 153.429 923.914 143.495 927.773 134.237C931.632 124.978 936.842 116.973 943.402 110.222C949.962 103.471 957.777 98.1663 966.846 94.3085C975.914 90.2579 985.562 88.2325 995.788 88.2325C1005.82 88.2325 1015.18 90.2579 1023.86 94.3085C1032.74 98.1663 1040.26 103.567 1046.44 110.511C1052.81 117.262 1057.82 125.364 1061.49 134.815C1065.15 144.267 1066.99 154.393 1066.99 165.195V173.586H950.638C952.567 185.738 958.163 195.865 967.424 203.966C976.686 211.874 987.684 215.829 1000.42 215.829C1007.56 215.829 1014.41 214.671 1020.97 212.357C1027.53 210.042 1033.12 206.859 1037.76 202.809L1056.28 221.037ZM995.209 112.537C984.211 112.537 974.564 116.201 966.267 123.531C958.163 130.861 953.05 140.313 950.927 151.886H1038.33C1036.21 140.698 1031.1 131.343 1022.99 123.821C1015.08 116.298 1005.82 112.537 995.209 112.537Z" fill="#333333"/>
<path d="M1088.76 237.818V90.5472H1117.71V109.354C1122.15 102.217 1127.84 96.8161 1134.78 93.1512C1141.73 89.2934 1149.54 87.3645 1158.23 87.3645C1161.31 87.3645 1164.02 87.5574 1166.33 87.9432C1168.65 88.329 1170.87 88.9076 1172.99 89.6792V115.719C1170.29 114.755 1167.49 113.983 1164.59 113.405C1161.7 112.826 1158.81 112.537 1155.91 112.537C1147.42 112.537 1139.8 114.851 1133.05 119.481C1126.49 123.917 1121.37 130.572 1117.71 139.445V237.818H1088.76Z" fill="#333333"/>
<path d="M1205.04 29.1222C1205.39 27.8083 1206.58 26.8939 1207.94 26.8939H1231.9C1234.02 26.8939 1235.47 29.0271 1234.69 30.9959L1210.43 92.4106C1209.98 93.556 1208.88 94.3085 1207.64 94.3085H1191.59C1189.62 94.3085 1188.18 92.4411 1188.69 90.5368L1205.04 29.1222Z" fill="#333333"/>
<path d="M1224.12 218.722L1239.75 199.626C1247.47 205.605 1255.28 210.235 1263.19 213.514C1271.3 216.6 1279.5 218.143 1287.79 218.143C1298.21 218.143 1306.7 216.118 1313.26 212.067C1319.82 208.017 1323.1 202.712 1323.1 196.154C1323.1 190.946 1321.17 186.799 1317.32 183.713C1313.46 180.626 1307.47 178.505 1299.37 177.347L1272.74 173.586C1258.27 171.464 1247.27 167.028 1239.75 160.277C1232.42 153.333 1228.75 144.17 1228.75 132.79C1228.75 119.481 1234.06 108.775 1244.67 100.674C1255.28 92.3796 1269.17 88.2325 1286.35 88.2325C1297.15 88.2325 1307.38 89.7756 1317.03 92.8619C1326.87 95.9481 1336.42 100.674 1345.68 107.039L1330.92 126.135C1322.81 120.734 1314.9 116.877 1307.19 114.562C1299.66 112.054 1292.04 110.801 1284.32 110.801C1275.44 110.801 1268.31 112.633 1262.9 116.298C1257.5 119.963 1254.8 124.785 1254.8 130.765C1254.8 136.165 1256.63 140.313 1260.3 143.206C1264.16 145.906 1270.43 147.932 1279.11 149.282L1305.74 153.043C1320.21 155.165 1331.21 159.698 1338.73 166.642C1346.45 173.586 1350.31 182.748 1350.31 194.129C1350.31 200.687 1348.67 206.859 1345.39 212.646C1342.3 218.24 1337.96 223.062 1332.37 227.113C1326.96 231.163 1320.5 234.442 1312.97 236.95C1305.45 239.265 1297.34 240.422 1288.66 240.422C1275.93 240.422 1263.96 238.589 1252.77 234.925C1241.77 231.26 1232.22 225.859 1224.12 218.722Z" fill="#333333"/>
<path d="M1374.82 237.817V35.284H1416.78V116.587H1509.98V35.284H1551.95V237.817H1509.98V155.068H1416.78V237.817H1374.82Z" fill="#333333"/>
<path d="M1600.07 69.136C1593.89 69.136 1588.59 66.9178 1584.15 62.4813C1579.71 58.0449 1577.49 52.7404 1577.49 46.568C1577.49 40.3956 1579.71 35.0911 1584.15 30.6547C1588.59 26.2182 1593.89 24 1600.07 24C1606.24 24 1611.55 26.2182 1615.99 30.6547C1620.42 35.0911 1622.64 40.3956 1622.64 46.568C1622.64 52.7404 1620.42 58.0449 1615.99 62.4813C1611.55 66.9178 1606.24 69.136 1600.07 69.136ZM1620.04 87.0747V237.817H1580.39V87.0747H1620.04Z" fill="#333333"/>
<path d="M1694.46 237.817L1629.63 87.0747H1672.75L1714.14 187.473L1755.24 87.0747H1797.5L1732.67 237.817H1694.46Z" fill="#333333"/>
<path d="M1936.87 219.011C1927.61 226.533 1918.06 232.031 1908.22 235.503C1898.57 238.975 1887.76 240.711 1875.8 240.711C1864.42 240.711 1853.71 238.685 1843.67 234.635C1833.83 230.584 1825.25 225.087 1817.92 218.143C1810.78 211.199 1805.08 203.001 1800.84 193.549C1796.79 183.905 1794.76 173.585 1794.76 162.591C1794.76 151.789 1796.69 141.662 1800.55 132.211C1804.6 122.566 1810.1 114.272 1817.05 107.328C1823.99 100.191 1832.19 94.5973 1841.65 90.5467C1851.3 86.496 1861.52 84.4707 1872.33 84.4707C1882.94 84.4707 1892.78 86.5924 1901.85 90.836C1911.11 94.8867 1919.02 100.48 1925.58 107.617C1932.34 114.754 1937.55 123.338 1941.21 133.368C1945.07 143.205 1947 153.911 1947 165.484V175.9H1834.7C1837.4 185.352 1842.61 192.971 1850.33 198.757C1858.05 204.544 1867.12 207.437 1877.54 207.437C1884.1 207.437 1890.27 206.376 1896.06 204.255C1901.85 202.133 1906.77 199.143 1910.82 195.285L1936.87 219.011ZM1871.46 117.165C1862.39 117.165 1854.58 119.962 1848.02 125.556C1841.46 130.957 1836.92 138.287 1834.41 147.545H1908.22C1905.71 138.672 1901.08 131.439 1894.32 125.845C1887.76 120.059 1880.14 117.165 1871.46 117.165Z" fill="#333333"/>
<path fill-rule="evenodd" clip-rule="evenodd" d="M250.898 116.577C257.701 128.357 257.701 142.692 250.898 154.472L210.365 224.585C204.413 234.804 193.642 241.049 181.879 241.049H173.801C170.541 241.049 167.848 243.746 167.848 247.01V263.332C167.848 268.867 161.471 271.989 157.078 268.583L126.182 244.171C123.631 242.184 120.371 241.049 117.112 241.049H98.1209C86.358 241.049 75.4453 234.804 69.6347 224.585L29.102 154.472C22.2993 142.692 22.2993 128.357 29.102 116.577L68.2175 48.8766C74.8784 37.2384 87.35 30 100.814 30H179.045C192.508 30 204.98 37.2384 211.783 48.8766L250.898 116.577ZM95.9951 102.1C101.239 102.1 105.349 106.358 105.349 111.467V116.009C105.349 121.261 109.6 125.376 114.702 125.376H119.238C124.481 125.376 128.591 129.634 128.591 134.744V136.021C128.591 141.273 124.34 145.389 119.238 145.389H114.702C109.459 145.389 105.349 149.646 105.349 154.756V159.298C105.349 164.549 101.097 168.665 95.9951 168.665H94.8613C89.6176 168.665 85.5076 164.407 85.5076 159.298V154.756C85.5076 149.504 81.256 145.389 76.1539 145.389H71.6188C66.3751 145.389 62.2651 141.131 62.2651 136.021V134.744C62.2651 129.492 66.5168 125.376 71.6188 125.376H76.1539C81.3977 125.376 85.5076 121.119 85.5076 116.009V111.467C85.5076 106.216 89.7593 102.1 94.8613 102.1H95.9951ZM194.351 110.19C195.626 117.287 189.674 123.389 182.588 121.97C178.619 121.261 175.502 117.996 174.651 114.022C173.376 106.926 179.328 100.823 186.414 102.242C190.382 103.094 193.642 106.216 194.351 110.19ZM205.972 145.389C213.058 146.666 219.152 140.705 217.735 133.608C217.026 129.634 213.767 126.512 209.798 125.802C202.712 124.525 196.618 130.486 198.035 137.582C198.744 141.415 202.004 144.679 205.972 145.389ZM170.966 133.608C172.242 140.705 166.29 146.808 159.203 145.389C155.235 144.679 152.117 141.415 151.267 137.582C149.991 130.486 155.944 124.383 163.03 125.802C166.998 126.512 170.258 129.634 170.966 133.608ZM182.588 168.807C189.674 170.084 195.768 164.123 194.351 157.027C193.642 153.053 190.382 149.93 186.414 149.079C179.328 147.801 173.234 153.762 174.651 160.859C175.36 164.833 178.619 167.955 182.588 168.807Z" fill="#F79226"/>
</svg>
