<svg width="138" height="99" viewBox="0 0 138 99" fill="none" xmlns="http://www.w3.org/2000/svg">
<g clip-path="url(#clip0)">
<path d="M80.3001 34.4V28.1H60.1001V71.4H80.9001V65.1H67.5001V52.2H77.6001V45.9H67.5001V34.4H80.3001Z" fill="#1C384A"/>
<path d="M39.1 71.4V53.7H43.1L48.5 71.4H55.8L50 52.1C52.9 50.2 54.8 46.8 54.8 43V38.9C54.8 33 50.3 28.2 44.7 28.2H32V71.5H39.1V71.4ZM39.1 34.4H42.9C43.5 34.4 44.1 34.5 44.7 34.8C46.4 35.6 47.6 37.5 47.6 39.7V42C47.6 42.5 47.5 43.1 47.4 43.6C46.8 45.8 45 47.4 42.9 47.4H39.1V34.4Z" fill="#1C384A"/>
<path d="M97.7 28.1H85.2V71.4H97.6C103.5 71.4 108.3 66.6 108.3 60.7V38.8C108.4 32.9 103.6 28.1 97.7 28.1ZM100.8 59.7C100.8 62.7 98.9 65.1 96.5 65.1H92.6V34.4H96.5C98.9 34.4 100.8 36.8 100.8 39.8V59.7Z" fill="#1C384A"/>
<path d="M117.2 0L111.1 6.1C122.3 17.1 129.3 32.3 129.3 49.2C129.3 66.1 122.3 81.4 111.1 92.3L117.2 98.4C130 85.9 137.9 68.5 137.9 49.2C137.9 29.9 130 12.5 117.2 0Z" fill="#1C384A"/>
<path d="M20.7 0C7.9 12.5 0 29.9 0 49.2C0 68.5 7.9 85.9 20.7 98.4L26.8 92.3C15.5 81.4 8.6 66.1 8.6 49.2C8.6 32.3 15.6 17 26.8 6.1L20.7 0Z" fill="#1C384A"/>
</g>
<defs>
<clipPath id="clip0">
<rect width="137.9" height="98.4" fill="white"/>
</clipPath>
</defs>
</svg>
