<svg width="153" height="64" viewBox="0 0 153 64" fill="none" xmlns="http://www.w3.org/2000/svg">
<g clip-path="url(#clip0)">
<path d="M24.2 29.2C18.5 29.6 11.2 30.7 11.3 32.7C11.4 34.8 16.7 38.8 23.8 41.4C24.1 37.2 24.2 32.6 24.2 29.2ZM3.3 7.7C1.5 7.7 0 6.9 0 5.8C0 5 1.8 2.3 2.9 1.9C3.7 1.6 7.4 0.199995 13.6 -4.86709e-06C15.9 -0.100005 19.8 0.199995 23.1 0.699995C42.3 3.49999 62.5 18.2 62.9 31.2C63.2 40 55.5 48.3 40.6 48.8C36.7 48.9 33 48.4 29.7 47.6C29.6 49.8 29.8 50.9 26.7 51C24.8 51.1 24.1 48 23.8 45.5C14.8 41.5 9.4 35 9.3 32.5C9.2 28.7 16.1 25.5 24.2 24.2C24.3 21 24.8 13 26.5 13C27.2 13 28.6 14.5 29.1 16.9C29.6 19.1 29.6 23 29.6 23.7H30.2C41.6 23.4 48.4 26.9 48.5 31.1C48.6 34.4 45.7 36 44.2 36.1C42.7 36.1 40.9 35.3 40.9 34.8C40.9 33.9 44.1 33.7 44.1 32.2C44 30 35 29 29.4 29C29.4 30.9 29.4 33.2 29.4 34.7C29.4 36.2 29.5 40 29.6 43.2C32.1 43.7 34.7 44 37.3 43.9C43.3 43.7 57 41.5 56.7 31.2C56.4 16.8 27.9 3.6 12.7 4C6.7 4.2 3 4.9 3.1 5.5C3.1 5.8 6 6 6 6.8C6 7.6 4.4 7.7 3.3 7.7Z" fill="#1C384A"/>
<path fill-rule="evenodd" clip-rule="evenodd" d="M67.3 23.4C68.3 23.4 69.7 25.7 69.7 27.2C69.7 28.7 70.1 36.4 70.2 38.6C70.3 40.8 70.2 42.9 70.1 43.9C70 44.9 69.6 45.4 67.9 45.4C66.2 45.5 65.4 44.4 65.3 43C65.2 41.5 65 37.3 65.1 35.2C65.2 33.1 65.3 29 65.5 26.5C65.8 24 66.5 23.5 67.3 23.4Z" fill="#1C384A"/>
<path fill-rule="evenodd" clip-rule="evenodd" d="M77.1 6.09999C76.8 5.39999 75.9 3.99999 72.5 4.09999C65.2 4.39999 59.6 9.79999 59.7 14C59.7 15.4 60.4 16.6 61.4 17.6C61.1 18.3 61.1 18.8 61.1 19C61.1 19.7 62.2 21.7 63.1 21.7C63.8 21.7 64.3 21 65 19.9C66.2 20.4 67.4001 20.6 68.3001 20.6C75.2001 20.4 81.4001 14 81.3001 9.79999C81.3001 7.89999 80 6.09999 77.1 6.09999ZM66.7 16.4C67.5 15.2 71.9 9.29999 76.4 9.19999C77.7 9.19999 78.1 9.99999 78.1 10.9C78.1 12.3 75.6001 16.4 69.8001 16.6C68.6001 16.6 67.5 16.5 66.7 16.4ZM63.1 14.4C63 14.2 62.9 14 62.9 13.5C62.9 12.6 64.5 8.89999 68.6 8.59999C67.6 9.29999 66.5 10.2 65.5 11.4C64.5 12.6 63.7 13.6 63.1 14.4Z" fill="#1C384A"/>
<path fill-rule="evenodd" clip-rule="evenodd" d="M85.1 23C89.1 22.9 94.2 23.4 94.2 24.7C94.2 25.5 93.8 27 91.7 27.2C89.2 27.5 76.4 28 76.5 29.6C76.5 30.4 80.4 30.6 83.9 30.8C87.5 31 93.3 31.2 93.5 37C93.6 41.6 91.9 42.6 91.1 43C90.1 43.5 86.7 44.7 84.2 44.8C76.4 45 73.3 40.6 73.2 38.3C73.1 36.3 75.2 34.5 78.7 34.4C82.2 34.3 87.6 35.6 87.6 37C87.6 38.2 85.3 38.8 84.2 38.8C79.5 38.9 79.7 37 77 37.1C75.4 37.1 73.3 40.5 81.1 40.2C88.1 40 90.2 37.7 90.1 36.5C90.1 34.9 85.1 34.1 82.2 33.9C79.3 33.7 75 33.8 73.5 32.8C72 31.9 72.2 29.8 72.7 28C73.6 24.4 81.1 23.2 85.1 23Z" fill="#1C384A"/>
<path fill-rule="evenodd" clip-rule="evenodd" d="M98.7999 24.6C101.5 24.5 107.2 36.8 108.2 36.8C109.2 36.8 108.4 33.9 107.8 30.8C106.4 23.7 104.3 20 106.3 20C107.8 20 112.7 24.7 112.9 33.8C113 38 112.4 43.6 108.6 43.7C105 43.8 100.8 32.3 99.8999 32.3C99.3999 32.3 99.3999 39.4 99.1999 41.6C99.0999 43.7 98.2999 44.9 97.0999 44.9C95.2999 45 94.4999 43.2 94.3999 39.8C94.3999 36.3 95.4999 24.7 98.7999 24.6Z" fill="#1C384A"/>
<path d="M126.5 31.2C127.8 31.2 128.9 30.9 128.8 32.6C128.7 34.3 128.6 34.9 127.3 35L120.4 35.2C120.2 36 119.6 37.9 119.3 38.8C119 39.8 120 39.6 121.4 39.2C122.7 38.8 126.4 38.1 127.9 38.1C129.4 38.1 130.5 40.5 129.7 41.3C128.8 42.1 124.2 46.1 119.3 46.2C117.2 46.3 114.4 44.4 114.3 41.2C114.2 39.5 114.9 37.2 115.6 35.4C115.4 35.3 115.3 35.1 115.2 34.5C115 33.3 114.5 32 116.4 31.8C116.6 31.8 116.8 31.8 117 31.7L118.6 28.4C117.9 28.3 117.4 28.2 116.9 28C115.7 27.4 114.8 26 114.8 25.3C114.8 23.9 125.2 23 127.7 22.9C130.3 22.8 131 23.3 131.9 24.5C132.7 25.7 133 26.5 133.1 26.9C133.1 27.2 132.8 28 129.7 28.1C128.1 28.1 125.5 28.4 123 28.5L121.9 31.4C124.2 31.3 126.5 31.2 126.5 31.2Z" fill="#1C384A"/>
<path fill-rule="evenodd" clip-rule="evenodd" d="M133.6 41.1C130.8 46.7 128.9 52.5 129 57C129.1 62 132.2 63.9 133.1 63.8C134 63.8 134.1 62.3 134.2 61.2C135.1 55 136.8 49.4 138.6 44.8C139.3 45 140.1 45.1 140.7 45.1C146.4 44.9 153 38.1 152.8 30.8C152.7 27 151.2 24.2 148.8 24.3C145.2 24.4 140 29.8 135.9 36.7C135.5 33.9 137.7 29.7 139.6 26.7C140.9 24.6 140.7 22.1 140.1 22.1C139.3 22.1 132 28.4 132.2 36.9C132.4 38.6 132.9 40 133.6 41.1ZM141.2 39.4C144.6 32.7 148.2 28.8 149.4 28.8C151.6 28.8 149.8 38.5 141.2 39.4Z" fill="#1C384A"/>
</g>
<defs>
<clipPath id="clip0">
<rect width="153" height="63.8" fill="white"/>
</clipPath>
</defs>
</svg>
