<svg width="47" height="49" viewBox="0 0 47 49" fill="none" xmlns="http://www.w3.org/2000/svg">
<path d="M42.3922 31.9667V20.3C42.3922 20.3 42.3922 17.7333 39.8578 17.7333H32.2549V16.3333H41.4706C41.9314 16.3333 42.3922 15.8667 42.3922 15.4V14C42.3922 13.5333 41.9314 13.0667 41.4706 13.0667H32.2549V3.26667C32.2549 1.4 30.8726 0 29.0294 0H18.8922C17.049 0 15.6667 1.4 15.6667 3.26667C15.6667 3.26667 15.6667 7.93333 15.6667 13.0667H5.9902C5.29902 12.8333 5.06863 13.3 5.06863 14V15.4C5.06863 15.8667 5.29902 16.3333 5.9902 16.3333H15.6667V17.7333C11.75 17.7333 8.29412 17.7333 8.29412 17.7333C8.29412 17.7333 5.06863 17.2667 5.06863 21.7C5.06863 25.2 5.06863 32.2 5.06863 32.2L0 40.1333V46.4333C0 46.4333 0.230392 49 2.30392 49C4.37745 49 44.4657 49 44.4657 49C44.4657 49 47 48.5333 47 46.4333C47 44.3333 47 40.1333 47 40.1333L42.3922 31.9667ZM18.201 3.96667H29.7206V13.0667H18.201V3.96667ZM18.201 16.3333H29.7206V24.2667H18.201V16.3333ZM22.1176 35.2333C22.1176 34.5333 22.5784 33.8333 23.5 33.8333C24.4216 33.8333 24.8824 34.3 24.8824 35.2333C24.8824 35.9333 24.4216 36.6333 23.5 36.6333C22.5784 36.6333 22.1176 35.9333 22.1176 35.2333ZM22.348 39.6667C22.348 40.3667 21.8873 41.0667 20.9657 41.0667C20.0441 41.0667 19.8137 40.3667 19.8137 39.6667C19.8137 38.9667 20.2745 38.2667 21.1961 38.2667C22.1176 38.2667 22.348 38.9667 22.348 39.6667ZM26.0343 38.5C26.7255 38.5 27.4167 38.9667 27.4167 39.9C27.4167 40.6 26.9559 41.3 26.0343 41.3C25.1127 41.3 24.652 40.8333 24.652 39.9C24.652 38.9667 25.1127 38.5 26.0343 38.5ZM27.1863 35.2333C27.1863 34.5333 27.6471 33.8333 28.5686 33.8333C29.2598 33.8333 29.951 34.3 29.951 35.2333C29.951 35.9333 29.4902 36.6333 28.5686 36.6333C27.6471 36.4 27.1863 35.9333 27.1863 35.2333ZM18.6618 33.8333C19.3529 33.8333 20.0441 34.3 20.0441 35.2333C20.0441 35.9333 19.5833 36.6333 18.6618 36.6333C17.9706 36.6333 17.2794 36.1667 17.2794 35.2333C17.2794 34.5333 17.9706 33.8333 18.6618 33.8333ZM6.45098 41.0667C5.7598 41.0667 5.06863 40.6 5.06863 39.6667C5.06863 38.9667 5.52941 38.2667 6.45098 38.2667C7.14216 38.2667 7.83333 38.7333 7.83333 39.6667C7.83333 40.3667 7.14216 41.0667 6.45098 41.0667ZM8.9853 36.4C8.29412 36.4 7.60294 35.9333 7.60294 35C7.60294 34.3 8.06373 33.6 8.9853 33.6C9.67647 33.6 10.3676 34.0667 10.3676 35C10.1373 35.9333 9.67647 36.4 8.9853 36.4ZM11.2892 41.0667C10.598 41.0667 9.90686 40.6 9.90686 39.6667C9.90686 38.9667 10.3676 38.2667 11.2892 38.2667C11.9804 38.2667 12.6716 38.7333 12.6716 39.6667C12.6716 40.3667 11.9804 41.0667 11.2892 41.0667ZM13.8235 36.4C13.1324 36.4 12.4412 35.9333 12.4412 35C12.4412 34.3 12.902 33.6 13.8235 33.6C14.5147 33.6 15.2059 34.0667 15.2059 35C14.9755 35.9333 14.5147 36.4 13.8235 36.4ZM14.9755 39.6667C14.9755 38.9667 15.4363 38.2667 16.3578 38.2667C17.2794 38.2667 17.7402 38.7333 17.7402 39.6667C17.7402 40.3667 17.2794 41.0667 16.3578 41.0667C15.4363 41.0667 14.9755 40.3667 14.9755 39.6667ZM31.5637 44.5667C31.5637 45.0333 31.3333 45.2667 30.8725 45.2667H16.1275C15.6667 45.2667 15.4363 45.0333 15.4363 44.5667V43.8667C15.4363 43.4 15.6667 43.1667 16.1275 43.1667H31.1029C31.5637 43.1667 31.7941 43.4 31.7941 43.8667V44.5667H31.5637ZM30.8725 41.0667C30.1814 41.0667 29.4902 40.6 29.4902 39.6667C29.4902 38.9667 29.951 38.2667 30.8725 38.2667C31.7941 38.2667 32.2549 38.7333 32.2549 39.6667C32.0245 40.3667 31.5637 41.0667 30.8725 41.0667ZM33.1765 36.4C32.4853 36.4 31.7941 35.9333 31.7941 35C31.7941 34.3 32.2549 33.6 33.1765 33.6C33.8676 33.6 34.5588 34.0667 34.5588 35C34.5588 35.9333 33.8676 36.4 33.1765 36.4ZM35.7108 41.0667C35.0196 41.0667 34.3284 40.6 34.3284 39.6667C34.3284 38.9667 34.7892 38.2667 35.7108 38.2667C36.402 38.2667 37.0931 38.7333 37.0931 39.6667C36.8627 40.3667 36.402 41.0667 35.7108 41.0667ZM38.0147 36.4C37.3235 36.4 36.6324 35.9333 36.6324 35C36.6324 34.3 37.0931 33.6 38.0147 33.6C38.7059 33.6 39.3971 34.0667 39.3971 35C39.3971 35.9333 38.7059 36.4 38.0147 36.4ZM40.549 41.0667C39.8578 41.0667 39.1667 40.6 39.1667 39.6667C39.1667 38.9667 39.6275 38.2667 40.549 38.2667C41.2402 38.2667 41.9314 38.7333 41.9314 39.6667C41.701 40.3667 41.2402 41.0667 40.549 41.0667ZM44.4657 20.3C45.1569 20.3 45.6176 19.8333 45.6176 19.1333V10.2667C45.6176 9.56667 45.1569 9.1 44.4657 9.1H44.2353C43.5441 9.1 43.0833 9.56667 43.0833 10.2667V19.1333C43.3137 19.8333 43.7745 20.3 44.4657 20.3ZM25.3431 6.76667L26.9559 8.4L25.3431 10.2667L26.0343 10.9667L28.5686 8.4L26.0343 5.83333L25.3431 6.76667ZM21.4265 6.06667L18.8922 8.4L21.4265 10.9667L22.1176 10.2667L20.9657 8.4L22.1176 6.76667L21.4265 6.06667Z" fill="#F7F4ED"/>
</svg>
