<svg width="71" height="112" viewBox="0 0 71 112" fill="none" xmlns="http://www.w3.org/2000/svg">
<g clip-path="url(#clip0)">
<path d="M0.499902 105.7C0.399902 105.7 0.399902 105.7 0.299902 105.7C-9.76622e-05 105.5 -0.100098 105.2 -9.76548e-05 105C5.3999 93.3 8.5999 68.4 2.5999 56.3C2.4999 56.3 2.3999 56.2 2.3999 56.1C2.2999 55.9 2.2999 55.7 2.1999 55.6C2.0999 55.4 1.9999 55.2 1.8999 55C1.7999 54.8 1.7999 54.5 1.9999 54.4C2.1999 54.2 2.3999 54.2 2.5999 54.4C2.9999 54.7 3.0999 55 3.0999 55.2C9.7999 67.2 6.5999 93.3 0.999902 105.4C0.899902 105.6 0.699902 105.7 0.499902 105.7Z" fill="#1C384A"/>
<path d="M10.7999 87.8C8.89985 81.3 7.29985 74.4 6.29985 69.7C6.09985 68.5 5.89985 67.2 5.69985 65.8C5.19985 61.8 4.59985 57.4 2.09985 55.1L2.79985 54.4C5.49985 56.9 6.19985 61.6 6.69985 65.7C6.89985 67.1 7.09985 68.4 7.29985 69.5C8.29985 74.1 9.89985 81 11.7999 87.5L10.7999 87.8Z" fill="#1C384A"/>
<path d="M11.0999 87.7C10.7999 87.7 10.5999 87.5 10.5999 87.2C10.6999 76 13.6999 44.5 18.4999 34.3C18.5999 34 18.8999 33.9 19.1999 34.1C19.4999 34.2 19.5999 34.5 19.3999 34.8C15.0999 44.1 11.6999 74.8 11.5999 87.3C11.5999 87.4 11.2999 87.7 11.0999 87.7Z" fill="#1C384A"/>
<path d="M22.8999 111.7C22.6999 111.7 22.4999 111.5 22.3999 111.3C21.6999 108.2 20.3999 105.5 18.9999 102.6C18.1999 101 17.3999 99.3 16.5999 97.4C15.0999 93.8 14.7999 89.1 14.3999 84.9C14.2999 83.6 14.1999 82.3 14.0999 81.2C13.4999 76 15.5999 59.9 17.0999 48.1C17.8999 41.7 18.5999 36.2 18.5999 35.1C18.5999 34.8 18.7999 34.6 19.0999 34.6C19.3999 34.6 19.5999 34.8 19.5999 35.1C19.6999 36.3 18.9999 41.3 18.0999 48.3C16.5999 60 14.4999 76.1 15.0999 81.1C15.1999 82.3 15.2999 83.5 15.3999 84.8C15.6999 88.9 16.0999 93.5 17.4999 97C18.1999 98.8 19.0999 100.5 19.8999 102.1C21.2999 105 22.6999 107.8 23.3999 111C23.4999 111.3 23.2999 111.5 22.9999 111.6L22.8999 111.7Z" fill="#1C384A"/>
<path d="M25.1999 85.0999C24.3999 85.0999 23.3999 84.4999 22.3999 83.2999C21.8999 82.7999 21.5999 82.1999 21.2999 81.4999C21.1999 82.0999 21.0999 82.6999 20.9999 83.2999C20.9999 83.5999 20.6999 83.6999 20.3999 83.6999C20.0999 83.5999 19.8999 83.3999 19.9999 83.0999C20.1999 81.8999 20.4999 80.5999 20.6999 79.1999C20.0999 75.5999 20.7999 70.9999 21.2999 67.3999C21.4999 66.1999 21.5999 65.1999 21.6999 64.2999C21.7999 63.2999 21.9999 62.0999 22.0999 60.8999C22.2999 59.5999 22.4999 58.2999 22.5999 56.8999C22.5999 54.4999 22.4999 51.9999 22.2999 49.6999C22.2999 49.3999 22.3999 49.1999 22.6999 49.1999C22.8999 49.0999 23.1999 49.2999 23.2999 49.4999C23.9999 51.5999 23.8999 54.2999 23.6999 56.9999C23.6999 64.7999 22.7999 72.6999 21.7999 79.1999C21.9999 80.5999 22.4999 81.8999 23.1999 82.6999C24.1999 83.7999 24.9999 84.2999 25.5999 84.0999C27.2999 83.4999 27.4999 76.7999 27.5999 73.2999C27.5999 71.6999 27.6999 70.4999 27.7999 69.8999C27.8999 69.5999 27.8999 68.9999 27.9999 68.6999C27.9999 68.3999 28.2999 68.1999 28.4999 68.1999C28.7999 68.1999 28.9999 68.3999 28.9999 68.5999C28.9999 68.7999 28.9999 68.8999 29.0999 69.0999C30.3999 67.0999 32.5999 66.9999 34.4999 67.0999C34.7999 67.0999 34.9999 67.3999 34.9999 67.5999C34.9999 67.8999 34.6999 68.0999 34.4999 68.0999C32.4999 67.9999 30.4999 68.0999 29.5999 70.3999C29.4999 70.5999 29.2999 70.6999 29.0999 70.6999C28.9999 70.6999 28.8999 70.6999 28.7999 70.5999C28.7999 71.1999 28.6999 72.1999 28.6999 73.1999C28.2999 78.9999 27.9999 84.1999 25.7999 84.9999C25.5999 85.0999 25.3999 85.0999 25.1999 85.0999Z" fill="#1C384A"/>
<path d="M54.4 103.5C52.3 103.5 50.2 102.9 48.3 101.7C40.9 97.2 40.5 84.2 40.2 74.7C40.1 73 40.1 71.3 40 69.9C39.9 68.3 39.8 66.8 39.8 65.2H39.7L39.8 64.1C39.8 61.5 39.8 58.8 39.9 56.2C36.3 52.4 34.1 48.5 33.3 44.4C31.8 36.9 34.7 28.6 42.4 18.2C45.4 14.1 48.9 10 52.3 6.1C54 4.1 55.8 2 57.5 0L58.3 0.6C56.6 2.6 54.8 4.7 53.1 6.7C49.7 10.6 46.3 14.6 43.2 18.7C35.7 29 32.9 37 34.3 44.3C35 48 36.9 51.5 40 54.9C40.2 50.4 40.5 45.9 40.8 41.4C41 37.6 41.3 33.7 41.5 30H42.5C43.1 38.5 42.5 47.6 41.7 56.6C44.6 59.4 48.3 62.2 52.9 65.1C60 69.4 69.7 75.4 70.1 85.4C70.4 91.6 66.5 98.4 60.9 101.7C58.8 102.9 56.6 103.5 54.4 103.5ZM40.8 64.2C40.8 66.1 40.9 68 41 69.9C41.1 71.3 41.1 73 41.2 74.7C41.5 83.9 41.9 96.6 48.8 100.9C52.4 103.1 56.5 103.1 60.3 100.8C65.6 97.7 69.2 91.2 69 85.4C68.6 75.9 59.1 70.1 52.2 65.9C47.8 63.2 44.2 60.5 41.4 57.9C41.2 60 41 62.1 40.8 64.1V64.2Z" fill="#1C384A"/>
</g>
<defs>
<clipPath id="clip0">
<rect width="70.1" height="111.7" fill="white"/>
</clipPath>
</defs>
</svg>
