<svg width="147" height="31" viewBox="0 0 147 31" fill="none" xmlns="http://www.w3.org/2000/svg">
<g clip-path="url(#clip0)">
<path fill-rule="evenodd" clip-rule="evenodd" d="M66.6999 22.3C64.5999 19.8 62.7999 17.6 61.7999 16.4C60.4 18.3 57 23.6 55.5 26.6C56.5 26.8 57.4 26.9 58.4 27L58.7 28.9H58C57.4 28.9 53.9999 28.7 51.7999 28.7C50.0999 28.7 48.4 28.8 46.7 28.9L47.4 26.9C48.3 26.8 49.2 26.7 50 26.4C51.7 25.3 58.3999 16.4 60.0999 14.1C58.6999 12.4 56.9 10 55.2 7.8C53.4 5.5 51.8 3.5 50.9 2.5C50 2.2 49.1 2.1 48.2 1.9L48 0C50.1 0.4 52.4999 0.3 54.5999 0.3C56.9999 0.3 59.5 0.2 61.9 0.1L61.2999 2.1C60.2999 2.2 59.4 2.3 58.4 2.5C59.5 4.2 62.2999 8.4 63.5999 10.1C64.8999 8.3 67.5999 4.5 68.6999 2.5L68 2.4C67.6 2.2 67 2.1 66.5 2L66.0999 0C68.0999 0.2 70.2 0.2 72.3 0.2C73.9 0.2 75.4 0.1 77 0L76.6999 2C75.7999 2.2 74.9 2.4 73.9 2.6L73.5999 2.9C72.2999 4.2 71 5.6 69.8 7C68 9 66.2 11.2 65.3 12.2C69.6 18.1 73.9 24.1 78.3 29.9L75.0999 30.5C72.0999 28.2 69.1999 25.2 66.6999 22.3Z" fill="#1C384A"/>
<path fill-rule="evenodd" clip-rule="evenodd" d="M120.1 2.59999C118.7 2.39999 117.3 2.29999 116 2.19999L115.7 0.299988H125.1C128.8 0.299988 133.9 0.299988 136.7 1.39999C138.9 2.29999 140.4 3.89999 140.4 6.39999C140.4 8.99999 137.6 12.2 134.7 14C137.5 18.7 142.7 25.9 146.2 29.7L143 30C140.2 28.7 131.6 18.9 129.1 16C128 16.1 126.9 16.2 126.2 16.2V16.7C126.2 19 126.3 24.4 126.4 26.6C127.7 26.8 129.1 26.9 130.4 27.1L130.8 29.1C128.4 28.9 125.8 28.9 123.4 28.9C120.9 28.9 118.2 28.9 115.7 29.1L116.1 27.1C117.5 27 118.9 26.9 120.2 26.6C120.3 24.7 120.4 18 120.4 14.2V11.8C120.3 10.4 120.2 4.19999 120.1 2.59999ZM130.1 13.1C131.7 12.5 134.2 10.9 134.2 7.39999C134.2 5.39999 132.5 2.59999 126.3 2.39999C126.2 4.69999 126.1 10.7 126.1 13.2V13.8C127.4 13.8 128.7 13.6 130.1 13.1Z" fill="#1C384A"/>
<path fill-rule="evenodd" clip-rule="evenodd" d="M102.4 26.5C101.2 23 100.2 19.4 98.6999 16.1C96.9999 16.1 92.1999 16.4 90.4999 16.5C90.0999 17.9 88.4999 23.6 87.9999 26.5C89.0999 26.7 90.0999 26.8 91.1999 27L91.5999 29C89.2999 28.9 86.8999 28.8 84.5999 28.8C82.8999 28.8 81.0999 28.9 79.3999 29L79.6999 27C80.8999 26.9 81.9999 26.7 83.1999 26.5C84.6999 23.5 91.1999 6.19998 92.4999 2.49998C91.4999 2.29998 90.5999 2.19998 89.5999 2.09998L89.4999 0.0999756C91.4999 0.199976 93.4999 0.299976 95.4999 0.299976C98.0999 0.299976 100.7 0.299976 103.2 0.0999756L103 1.99998C102.1 2.09998 101.2 2.19998 100.3 2.39998C101 4.59998 102.9 9.99998 104.2 13.7C105.3 16.6 107.6 22.9 109.3 26.4C110.5 26.6 111.7 26.8 112.9 26.9L113.2 28.9C110.9 28.5 108 28.6 105.7 28.6C103.3 28.6 100.8 28.6 98.3999 28.8L98.8999 26.8C99.9999 26.9 101.2 26.7 102.4 26.5ZM94.7999 4.39998C93.6999 7.49998 92.0999 11.8 91.3999 13.7L97.9999 13.8C97.1999 11.3 95.5999 6.99998 94.7999 4.39998Z" fill="#1C384A"/>
<path fill-rule="evenodd" clip-rule="evenodd" d="M38.5999 26.5C39.8999 26.7 41.2999 26.9 42.5999 27L43.0999 29C40.2999 28.7 37.3999 28.8 34.6999 28.8C32.3999 28.8 30.1999 28.9 27.8999 29L28.2999 27C29.5999 26.9 30.9999 26.7 32.3999 26.5C32.4999 24.3 32.5999 17.8 32.5999 14.3V12C32.5999 10.8 32.5999 4.6 32.3999 2.6C30.9999 2.4 29.6999 2.2 28.3999 2.1L27.8999 0.1C30.6999 0.4 33.6999 0.3 36.3999 0.3C38.5999 0.3 40.9999 0.3 43.1999 0L42.6999 2C41.3999 2.1 39.9999 2.4 38.6999 2.5C38.5999 3.9 38.5999 7.8 38.5999 12.1V14.5C38.4999 19.2 38.4999 24.9 38.5999 26.5Z" fill="#1C384A"/>
<path fill-rule="evenodd" clip-rule="evenodd" d="M10.6 26.5C12.2 26.7 13.9 26.9 15.5 27L16 29C13.3 28.8 10.5 28.8 7.8 28.8C5.2 28.8 2.6 28.8 0 29L0.4 27C1.8 26.8 3.1 26.7 4.5 26.5C4.6 24.1 4.6 16.7 4.6 13.3V11.8C4.6 10.6 4.6 4.49998 4.5 2.59998C3.1 2.19998 1.7 2.19998 0.3 2.09998L0 0.0999756H9.7C14 0.0999756 17.7 0.399976 19.7 1.29998C23.4 2.89998 23.9 5.49998 23.9 6.59998C23.9 13.4 17.2 16.5 11.4 17.3L11.6 15.2C15.1 14.3 17.7 12.4 17.7 7.99998C17.7 5.79998 16.6 4.09998 14.9 3.19998C13.9 2.69998 12.2 2.49998 10.6 2.39998C10.5 4.19998 10.5 8.89997 10.5 11.8V13.4C10.5 16.5 10.5 24.3 10.6 26.5Z" fill="#1C384A"/>
</g>
<defs>
<clipPath id="clip0">
<rect width="146.3" height="30.6" fill="white"/>
</clipPath>
</defs>
</svg>
