<svg width="190" height="39" viewBox="0 0 190 39" fill="none" xmlns="http://www.w3.org/2000/svg">
<path d="M123.2 0H84.2V39H123.2V0Z" fill="#1C384A"/>
<path fill-rule="evenodd" clip-rule="evenodd" d="M99.4999 27.9C99.0999 27.9 98.6999 27.9 98.4999 27.8C98.2999 27.8 97.7999 27.8 97.5999 27.8C96.6999 27.6 95.1999 27.1 94.3999 27.3C94.3999 27.2 94.3999 27 94.3999 26.9C94.4999 26.9 94.4999 26.8 94.5999 26.8C94.0999 26.8 93.7999 26.6 93.3999 26.5C92.4999 26.3 91.2999 26.3 90.5999 26C90.4999 25.9 90.3999 25.8 90.2999 25.7C90.1999 25.6 90.0999 25.5 89.9999 25.5C89.8999 25.5 89.4999 25.4 89.4999 25.4C89.3999 25.4 89.3999 25.4 89.2999 25.3C89.1999 25.2 89.0999 25.2 88.9999 25C88.8999 25 88.4999 24.7 88.4999 24.6C88.5999 24.6 88.7999 24.7 88.8999 24.7C88.8999 24.7 88.6999 24.1 88.7999 24.1C88.8999 24.1 89.1999 24 89.1999 24C89.0999 24 89.0999 23.9 88.9999 23.9C88.9999 23.9 88.8999 23.9 88.7999 23.9C88.6999 23.9 88.3999 23.6 88.3999 23.6C88.3999 23.6 88.7999 23.5 89.2999 23.5C89.6999 23.5 90.1999 23.4 90.1999 23C89.9999 22.9 89.7999 22.9 89.8999 22.8C89.8999 22.8 90.4999 22.7 90.7999 22.7V22.6L90.6999 22.4L90.8999 22.3L90.5999 22.1L91.6999 22.2C91.6999 22.1 90.9999 21.9 90.9999 21.8L91.1999 21.7L91.2999 21.6C91.3999 21.6 91.6999 21.7 91.8999 21.7C91.8999 21.6 91.9999 21.5 91.9999 21.5C92.3999 21.5 92.6999 21.8 92.9999 21.8C93.1999 21.8 93.4999 21.5 93.7999 21.6C95.2999 21.9 97.2999 21.7 98.9999 22C99.6999 22.1 100.7 21.8 101.6 22C102.8 22.2 104.4 22 105.4 22.1C105.8 22.1 106.7 22.3 107.3 22.2C108.1 22.1 110.4 22 111.4 22.1C112.4 22.1 111.4 22.1 112.4 22.1C113.9 22.4 114.6 22.8 115.5 23.7C115.9 24.1 116.4 24.5 116.6 25.1C116.8 25.8 116.4 26.8 116.1 27.1C115.9 27.3 115.4 27.3 115.3 27.6C115.2 27.9 115.4 27.9 115.3 28.1C115.2 28.3 114.6 29.2 114 29.4C113.3 29.4 112.9 29.5 112.2 29.5C111.4 29.6 112.3 29.6 111.5 29.7C110.4 29.9 108.1 30 106.9 29.8C105.8 29.6 104.7 30 104.1 29.6C104 29.5 104 29.5 104 29.5C104 29.5 104 29.6 104.1 29.6H104C104 29.6 102.8 29.3 102.6 29.2C102.5 29.4 102.6 29.3 102.5 29.4V29.3L102.3 29.2H102.2C102 28.9 101.9 29.1 101.7 29.1C101.7 29 101.7 28.9 101.7 28.8V28.7C101.6 28.8 101.2 28.9 101 28.9C101 28.8 100.9 28.6 100.8 28.5C100.7 28.6 100.8 28.7 100.7 28.7C100.4 28.7 99.8999 28.6 99.7999 28.4C99.9999 28.3 100.3 28.3 100.5 28.3C100.3 28.2 99.7999 27.9 99.4999 27.9ZM106.2 29C106.3 28.9 106.3 28.9 106.3 28.9C106.4 29 106.4 29 106.5 29L106.4 29.1C106.3 29.1 106.2 29 106.2 29ZM106.1 29.1C106.1 29.1 106 28.8 105.9 28.9V29C105.9 29 105.9 29 106.1 29.1ZM106.6 28.5C106.6 28.5 106.6 28.4 106.6 28.5C106.7 28.4 106.8 28.4 106.9 28.4C107 28.4 107 28.4 107 28.4C107 28.4 107 28.5 107.1 28.5C107 28.5 106.9 28.5 106.9 28.6C107.1 28.7 107.3 28.7 107.4 28.9C107.5 28.8 107.4 28.9 107.5 28.9C107.5 28.8 107.5 28.8 107.5 28.7C107.6 28.8 107.5 28.8 107.7 28.8C107.7 28.8 107.7 28.9 107.8 28.9C107.5 28.9 107.3 28.9 106.9 28.9H107C106.7 28.8 106.8 28.6 106.6 28.5ZM104.9 29C104.9 28.9 104.9 28.8 104.8 28.8H104.7C104.8 28.9 104.8 29 104.9 29ZM105.1 28.8C105.2 28.8 105.2 28.8 105.1 28.8C105.2 28.8 105.2 28.9 105.2 28.9C105.2 28.9 105.2 28.9 105.1 28.8ZM104.4 29C104.4 28.8 104.5 28.7 104.1 28.7C104.1 28.6 104.1 28.7 104.1 28.7V28.8V28.9C104.2 28.9 104.2 28.9 104.4 29ZM103.3 29C103.2 29 103.2 28.9 103.3 29C103.3 28.9 103.3 28.9 103.3 29C103.3 28.9 103.3 29 103.3 29ZM105.3 28.8C105.5 28.9 105.4 28.8 105.4 28.9C105.4 28.8 105.4 28.9 105.3 28.8ZM104 28.9C103.9 28.9 103.9 28.8 103.8 28.8C103.9 28.9 104 28.9 104 28.9ZM102.8 29C102.8 28.9 102.8 28.8 102.7 28.7L102.6 28.6C102.6 28.7 102.6 28.8 102.6 28.8V28.9L102.7 28.8C102.7 28.9 102.7 28.9 102.8 29ZM107.8 28.7C107.7 28.6 107.7 28.6 107.6 28.6C107.7 28.5 107.8 28.5 107.8 28.4C108.2 28.5 109.1 28.8 109.5 28.5C109.4 28.7 109.5 28.6 109.4 28.7C109.3 28.8 109.4 28.7 109.3 28.7V28.8C109.1 28.7 108.1 28.8 107.8 28.7ZM107 28.8C107 28.7 107 28.7 107 28.7C107 28.8 107 28.8 107 28.8ZM105.7 28.8C105.7 28.6 105.6 28.6 105.4 28.4C105.4 28.7 105.5 28.7 105.7 28.8ZM109.9 28.6V28.7C109.7 28.6 109.8 28.5 109.7 28.4C109.9 28.4 109.8 28.3 109.9 28.6C110 28.5 109.9 28.6 110 28.4C110.1 28.4 110.1 28.4 110.1 28.4H110.2C110.3 28.5 110.2 28.4 110.3 28.5C110.6 28.5 110.8 28.4 110.9 28.5C111 28.5 111 28.5 111.1 28.5C111.1 28.5 111.1 28.4 111 28.4C111.1 28.5 111.1 28.5 111.1 28.6C110.7 28.6 110.3 28.8 109.9 28.6ZM105 28.8C105 28.7 105.1 28.7 105.1 28.6V28.5V28.4C104.9 28.4 104.8 28.4 104.7 28.4V28.5V28.6C104.8 28.7 104.9 28.8 105 28.8ZM106.4 28.6C106.4 28.6 106.5 28.6 106.5 28.5H106.6V28.6C106.5 28.7 106.5 28.7 106.4 28.6ZM111.5 28.5C111.7 28.3 111.9 28.4 112.1 28.2C111.9 28.2 111.6 28.2 111.4 28.3C111.3 28.4 111.4 28.3 111.3 28.5C111.3 28.5 111.4 28.5 111.5 28.5ZM107.4 28.6C107.3 28.6 107.3 28.6 107.4 28.6C107.3 28.5 107.3 28.5 107.3 28.4C107.3 28.4 107.4 28.4 107.4 28.3L107.5 28.4C107.5 28.4 107.5 28.5 107.6 28.5C107.5 28.6 107.4 28.6 107.4 28.6ZM107.9 28.6C107.8 28.5 107.8 28.5 107.9 28.6C107.8 28.5 107.9 28.5 107.9 28.6ZM106 28.6V28.5C106 28.5 106.1 28.5 106.1 28.4C106.1 28.5 106.1 28.5 106.2 28.6C106.1 28.6 106 28.6 106 28.6ZM105.7 28.6V28.5C105.7 28.5 105.7 28.5 105.6 28.5C105.7 28.5 105.7 28.6 105.7 28.6ZM105.3 28.6C105.3 28.5 105.3 28.5 105.3 28.6C105.2 28.6 105.2 28.6 105.3 28.6ZM104 28.6C104 28.5 104 28.5 104 28.4H103.9C103.8 28.4 103.7 28.4 103.7 28.5C103.8 28.5 103.8 28.5 103.9 28.5V28.6H104ZM103.5 28.7C103.5 28.6 103.5 28.6 103.5 28.5C103.4 28.5 103.4 28.5 103.3 28.5C103.4 28.6 103.4 28.6 103.5 28.7ZM104.4 28.5C104.5 28.4 104.4 28.4 104.5 28.5C104.5 28.6 104.4 28.6 104.4 28.5ZM103.7 28.6C103.7 28.6 103.7 28.5 103.7 28.6C103.7 28.5 103.6 28.5 103.7 28.6C103.6 28.5 103.7 28.6 103.7 28.6ZM103 28.1C103 28 103 28 103 27.9C102.9 27.9 102.9 27.9 102.8 27.9C102.9 28.1 102.9 28.1 103 28.1ZM102.7 28.1C102.7 28 102.7 28 102.7 27.9C102.4 27.9 101.5 27.7 101.2 27.9C101.2 27.9 101.2 27.9 101.2 28H101.3C101.1 28.1 101.2 28 101.2 28.2C101.3 28.2 101.4 28.2 101.4 28.2C101.7 27.9 102.3 28.1 102.7 28.1ZM100.6 28V27.9C100.7 27.9 100.8 27.9 100.8 27.8C100.8 27.8 100.8 27.9 100.9 27.9C100.9 28 100.8 28 100.8 28C100.7 28.1 100.8 28.1 100.6 28ZM105.8 27.4C105.8 27.4 105.7 27.3 105.6 27.3C105.7 27.2 105.7 27.2 105.8 27.1C105.7 27 105.7 26.9 105.6 26.9V27C105.6 27.1 105.5 27.2 105.5 27.3C105.7 27.3 105.8 27.3 105.8 27.4ZM102.1 27.2C102.3 27.1 102.2 27.2 102.2 27.3C102.2 27.3 102.2 27.3 102.1 27.2ZM101.9 26.9C101.9 26.9 102 26.9 101.9 26.9C101.9 27.1 101.8 27 101.9 27.3C101.7 27.1 101.8 27 101.9 26.9ZM100.7 27.2L100.8 27.1V27.2C100.7 27.2 100.7 27.2 100.7 27.2ZM107.3 27C107.3 26.9 107.3 26.8 107.3 26.7H107.4C107.4 26.8 107.5 27 107.5 27.1C107.5 27 107.4 27 107.3 27ZM102.5 27.2C102.5 27.1 102.5 27.1 102.5 27.2C102.4 27.1 102.4 27.1 102.5 27.2C102.4 27.1 102.4 27.1 102.5 27.2C102.4 27.2 102.4 27.2 102.5 27.2ZM100.3 27.2C100.3 27.1 100.4 27.1 100.4 27.1C100.4 27.2 100.4 27.2 100.3 27.2C100.4 27.2 100.3 27.2 100.3 27.2ZM103.6 26.8C103.6 26.7 103.6 26.7 103.6 26.8C103.6 26.7 103.6 26.7 103.6 26.8C103.6 26.8 103.6 26.9 103.6 27C103.5 26.8 103.5 26.9 103.6 26.8ZM109.7 26.7V26.6C109.8 26.7 109.7 26.6 109.8 26.7V26.6C109.7 26.6 109.6 26.5 109.6 26.5C109.5 26.7 109.6 26.6 109.5 26.6C109.4 26.5 108.7 26.5 108.6 26.4C108.7 26.5 109.4 26.5 109.5 26.6C109.5 26.6 109.6 26.7 109.7 26.7ZM99.1999 26.9C99.1999 26.8 99.1999 26.8 99.0999 26.8V26.9H99.1999ZM98.7999 26.9C98.7999 26.9 98.7999 26.8 98.7999 26.9C98.7999 26.8 98.7999 26.8 98.7999 26.9C98.9999 26.8 98.8999 26.8 98.8999 26.9C98.8999 26.9 98.8999 26.9 98.7999 26.9ZM103.1 26.7C103.1 26.6 103.1 26.5 103.1 26.5C103.2 26.5 103.4 26.6 103.5 26.6C103.4 26.6 103.3 26.7 103.1 26.7C103.2 26.7 103.1 26.7 103.1 26.7ZM102.7 26.7C102.7 26.6 102.7 26.6 102.7 26.7C102.8 26.7 102.8 26.7 102.7 26.7ZM99.1999 26.6C99.3999 26.7 99.5999 26.6 99.6999 26.6H99.7999C99.7999 26.7 99.7999 26.7 99.7999 26.8C99.4999 26.8 99.3999 26.8 99.1999 26.6ZM96.6999 26.9C96.6999 26.8 96.6999 26.8 96.6999 26.9C96.8999 26.8 96.7999 26.8 96.7999 26.9C96.7999 26.9 96.7999 26.9 96.6999 26.9ZM97.8999 26.8C97.8999 26.8 97.8999 26.7 97.8999 26.8C97.8999 26.7 97.7999 26.7 97.7999 26.8H97.8999ZM96.3999 26.8C96.3999 26.7 96.2999 26.7 96.2999 26.7C96.2999 26.8 96.3999 26.8 96.3999 26.8ZM107.5 26.5C107.5 26.4 107.5 26.2 107.6 26.1C107.5 26.1 107.5 26 107.4 26C107.4 26.1 107.3 26.2 107.3 26.2H107.2C107.3 26.4 107.4 26.4 107.5 26.5ZM105.4 26.6C105.4 26.4 105.5 26.2 105.5 26.1H105.4C105.3 26.1 105.2 26.1 105.1 26.3C105.2 26.3 105.3 26.4 105.4 26.6ZM104.2 26.6C104.2 26.5 104.2 26.4 104.1 26.3C104.1 26.3 104 26.3 104 26.2C103.9 26.4 103.9 26.2 103.7 26.4C103.7 26.4 103.8 26.4 103.8 26.3V26.4C103.8 26.4 103.8 26.4 103.8 26.5C104 26.4 104 26.5 104.2 26.6ZM102.8 26.6C102.8 26.4 102.8 26.5 102.9 26.3C102.8 26.2 102.7 26.1 102.6 26C102.6 26 102.6 26 102.6 26.1L102.5 26.2C102.6 26.3 102.6 26.3 102.6 26.3C102.6 26.3 102.5 26.3 102.5 26.4C102.6 26.5 102.6 26.6 102.7 26.7C102.7 26.6 102.7 26.6 102.8 26.6ZM106 26.3C105.9 26.3 105.9 26.3 106 26.3C105.8 26.2 105.9 26.3 105.8 26.3C105.8 26.3 105.8 26.3 105.7 26.3C105.7 26.2 105.7 26.2 105.7 26.1C105.8 26.1 105.9 26.1 106 26C106.1 26.1 106.1 26.1 106.2 26.2C106.1 26.3 106 26.4 105.9 26.5C106 26.4 106 26.3 106 26.3ZM104.5 26.5C104.5 26.4 104.5 26.4 104.5 26.4H104.6V26.5H104.5ZM97.1999 26.5C97.1999 26.6 97.1999 26.6 97.0999 26.7C96.9999 26.5 96.9999 26.6 97.1999 26.5ZM109.7 26.3V26.2C109.8 26.3 110.1 26.2 110.2 26C110.1 25.9 110 25.9 110 25.8L110.1 25.7C109.9 25.7 110.1 25.7 109.9 25.6C109.9 25.7 109.9 25.8 109.9 25.9C109.8 25.9 109.4 25.8 109.4 25.9C109.4 25.9 108.6 25.9 108.6 26C108.8 26.1 109.5 26.2 109.7 26.3ZM110.4 25.3H111.2C111.3 25.4 111.7 25.4 111.7 25.3C111.7 25.4 111.7 25.5 111.7 25.6C111.9 25.6 111.7 25.5 111.9 25.5L111.8 25.4C111.9 25.3 111.9 25.2 112 25.2C111.9 25.1 111.5 25 111.5 25C111.5 25 111.5 25 111.4 25V24.9C111.3 25 110.6 25.1 110.4 25.3ZM106.4 26.3C106.4 26.3 106.4 26.2 106.4 26.3C106.5 26.1 106.6 26.1 106.7 26C106.8 26.1 106.7 26 106.8 26.1H106.9C107 26 106.8 26 107 26C107.1 26.1 107 26 107.1 26.1C107.1 26.2 107 26.2 107 26.3C106.8 26.3 106.9 26.3 106.8 26.4C106.7 26.4 106.5 26.4 106.4 26.3ZM101.8 26.5C101.9 26.4 102 26.2 101.8 26.1V26.2C101.9 26.3 101.9 26.2 101.9 26.3H101.8C101.8 26.3 101.7 26.2 101.6 26.2C101.6 26.3 101.6 26.4 101.6 26.4H101.7C101.7 26.5 101.7 26.5 101.8 26.5ZM96.4999 26.5C96.5999 26.6 96.3999 26.6 96.3999 26.6C96.3999 26.5 96.2999 26.5 96.4999 26.5ZM95.4999 26.6V26.5C95.5999 26.5 95.5999 26.5 95.6999 26.5C95.6999 26.6 95.5999 26.6 95.4999 26.6C95.5999 26.6 95.4999 26.6 95.4999 26.6ZM108 26.3C108 26.2 108.1 26.1 108.1 26C108 25.9 107.9 25.8 107.8 25.7V25.8C107.8 25.9 107.9 26.1 108 26.3ZM105 26.3C105 26.2 105 26.1 104.9 26.1H104.8V26.2C104.9 26.4 104.9 26.3 105 26.3ZM104.7 26.3C104.6 26.2 104.6 26.1 104.4 26.1V26.2C104.6 26.3 104.6 26.3 104.7 26.3ZM103.1 26.3L103 26.2C103.1 26.1 103.1 26.1 103.2 26C103.3 26 103.3 26.2 103.4 26.4C103.3 26.4 103.2 26.3 103.1 26.3ZM100.9 26.4C100.9 26.2 100.9 26.3 100.8 26.2C100.8 26.3 100.8 26.3 100.9 26.4C100.8 26.4 100.8 26.4 100.9 26.4ZM100.6 26.4C100.5 26.4 100.5 26.4 100.6 26.4C100.6 26.3 100.6 26.3 100.6 26.2C100.7 26.3 100.7 26.3 100.7 26.4H100.6ZM99.2999 26.4C99.3999 26.2 99.3999 26.2 99.1999 26.1H99.0999C98.9999 26.2 98.9999 26.2 98.9999 26.4C98.9999 26.4 98.9999 26.4 99.0999 26.4V26.3C99.0999 26.3 99.1999 26.3 99.2999 26.4ZM97.4999 26.4C97.4999 26.3 97.4999 26.3 97.4999 26.4C97.4999 26.3 97.5999 26.3 97.5999 26.3C97.5999 26.3 97.5999 26.4 97.6999 26.4C97.6999 26.4 97.5999 26.4 97.4999 26.4ZM97.2999 26C97.3999 26 97.3999 26.1 97.2999 26C97.3999 26.1 97.3999 26.1 97.3999 26.2C97.3999 26.3 97.3999 26.3 97.2999 26.4C97.2999 26.3 97.2999 26.2 97.2999 26ZM97.7999 26.3C97.7999 26.2 97.7999 26.2 97.7999 26.1C97.8999 26.1 97.8999 26.1 97.8999 26.1L97.9999 26.2C97.9999 26.3 97.9999 26.3 97.9999 26.4C97.9999 26.3 97.8999 26.3 97.7999 26.3ZM106.2 26.1V26H106.3C106.3 26 106.3 26 106.2 26.1C106.3 26.1 106.3 26.1 106.2 26.1ZM93.8999 26.2C93.8999 26.2 93.9999 26.2 93.9999 26.1C93.9999 26.1 93.9999 26.1 93.9999 26.2V26.3C93.9999 26.2 93.9999 26.2 93.8999 26.2ZM110.5 25.9C110.5 25.8 110.6 25.7 110.6 25.7C110.5 25.8 110.5 25.8 110.4 25.9C110.4 25.8 110.4 25.8 110.4 25.7C110.3 25.7 110.2 25.7 110.2 25.7C110.1 25.7 110.1 25.7 110 25.7C110.1 25.6 110 25.7 110.1 25.6C110.3 25.5 110.5 25.6 110.7 25.7C110.7 25.9 110.6 25.9 110.7 26C110.6 25.9 110.5 25.9 110.5 25.9ZM104 25.6C103.9 25.6 103.9 25.6 104 25.6C104.1 25.5 104.1 25.5 104.2 25.5C104.3 25.6 104.2 25.6 104.3 25.6C104.5 25.8 104.5 25.6 104.4 25.9C104.2 25.9 104 25.8 104 25.6ZM102.8 26C102.8 25.9 102.9 25.9 102.9 25.9V26H102.8ZM93.7999 26.3C93.7999 26.2 93.8999 26.2 93.6999 26.2C93.6999 26.1 93.6999 26.2 93.7999 26.3C93.6999 26.3 93.6999 26.3 93.6999 26.3H93.7999ZM93.0999 26.2C93.2999 26.2 93.1999 26.1 93.1999 26.2C93.1999 26.3 93.1999 26.2 93.0999 26.2ZM108.1 25.9C108.1 25.8 108.1 25.8 108 25.7V25.6C108 25.6 108 25.6 108.1 25.6C108.2 25.7 108.3 25.8 108.4 25.8C108.4 25.7 109.2 25.6 109.2 25.6C109.2 25.6 109.2 25.7 109.3 25.7C109.4 25.6 109.3 25.7 109.4 25.6C109.4 25.7 109.5 25.7 109.5 25.8V25.7C109.5 25.7 109.5 25.7 109.5 25.6H109.4C109.5 25.5 109.5 25.5 109.4 25.4C109.3 25.4 109.3 25.4 109.2 25.4C109 25.6 107.5 25.5 107.2 25.5V25.6C107.4 25.6 107.4 25.6 107.6 25.6C108 25.8 108 25.8 108.1 25.9ZM111.5 26.1C111.5 26 111.5 26 111.4 25.9V25.8C111.4 25.8 111.4 25.8 111.5 25.8C111.6 25.9 111.7 26 111.8 26C111.8 25.9 112.6 25.8 112.6 25.8C112.6 25.9 112.6 25.9 112.7 25.9C112.8 25.8 112.7 25.9 112.8 25.8C112.8 25.9 112.9 25.9 112.9 26C112.9 26 112.9 26 113 26V25.9C113 25.9 113 25.9 113 25.8C112.9 25.8 112.9 25.8 112.9 25.8C112.9 25.7 113 25.7 112.9 25.6C112.8 25.6 112.8 25.6 112.7 25.6C112.5 25.8 111 25.7 110.7 25.7V25.8C110.9 25.8 110.9 25.8 111.1 25.8C111.3 26.1 111.3 26.1 111.5 26.1ZM99.6999 25.8C99.8999 25.8 99.7999 25.7 99.7999 25.8C99.7999 25.9 99.7999 25.9 99.7999 26C99.7999 26 99.6999 25.9 99.6999 25.8ZM107 25.6C106.9 25.7 107 25.6 106.9 25.7C106.7 25.6 106.8 25.6 106.7 25.5C106.9 25.5 107 25.5 107.1 25.4C107.1 25.4 107.1 25.5 107.2 25.5C107.2 25.6 107.2 25.7 107.2 25.8C107 25.8 107 25.8 107 25.6ZM106.5 25.9C106.5 25.8 106.6 25.7 106.5 25.6H106.4C106.4 25.8 106.4 25.7 106.4 25.8C106.4 25.8 106.4 25.8 106.5 25.9ZM105.6 25.9C105.7 25.9 105.7 25.9 105.8 25.8V25.7C105.7 25.7 105.6 25.7 105.5 25.7C105.5 25.8 105.5 25.8 105.5 25.8C105.5 25.9 105.5 25.9 105.6 25.9ZM105.9 25.8C105.9 25.7 105.8 25.7 105.9 25.8C105.8 25.8 105.8 25.8 105.9 25.8C105.8 25.8 105.9 25.8 105.9 25.8ZM97.7999 26C97.8999 25.9 97.9999 25.9 97.9999 25.7H97.8999H97.7999C97.7999 25.6 97.6999 25.5 97.5999 25.5C97.4999 25.6 97.4999 25.6 97.3999 25.7V25.8H97.4999C97.4999 25.6 97.3999 25.7 97.4999 25.7C97.6999 26 97.6999 25.9 97.7999 26ZM92.1999 26.1C92.2999 25.9 92.2999 26.1 92.2999 25.9H92.1999C92.1999 26.1 92.0999 26 92.1999 26.1ZM99.2999 25.9C99.1999 25.9 99.0999 25.9 99.0999 25.9V25.8V25.7C99.2999 25.8 99.2999 25.8 99.5999 25.8V25.9L99.4999 25.8C99.4999 25.8 99.4999 25.8 99.4999 25.9V26C99.3999 25.9 99.2999 25.9 99.2999 25.9ZM98.6999 25.8C98.6999 25.7 98.7999 25.7 98.7999 25.6C98.7999 25.6 98.7999 25.6 98.7999 25.5C98.8999 25.6 98.8999 25.7 98.8999 25.8C98.8999 25.9 98.7999 25.9 98.6999 25.8ZM93.7999 26.1C93.7999 26 93.8999 25.9 93.8999 25.8C93.9999 25.8 94.0999 25.8 94.1999 25.8C94.0999 25.8 93.8999 25.7 93.7999 25.7V25.8C93.7999 25.9 93.6999 25.9 93.7999 26.1ZM101 25.8C101.1 25.7 101.1 25.7 101.2 25.6V25.5C100.9 25.5 100.7 25.5 100.6 25.4V25.5C100.7 25.7 100.6 25.6 100.6 25.7C100.9 25.8 100.8 25.8 101 25.8ZM100.2 25.9C100.3 25.9 100.3 25.9 100.4 25.9C100.4 25.9 100.4 25.9 100.4 25.8C100.4 25.8 100.4 25.7 100.3 25.7C100.2 25.7 100.1 25.6 100.1 25.6C100.2 25.8 100.1 25.7 100.2 25.9ZM95.6999 26C95.6999 25.9 95.5999 25.9 95.4999 25.8V25.9C95.5999 25.9 95.4999 25.9 95.6999 26ZM94.0999 26C94.0999 26 94.0999 25.9 94.0999 26C94.0999 25.9 93.9999 25.9 93.9999 25.9C93.9999 26 94.0999 26 94.0999 26ZM92.3999 25.9H92.4999C92.4999 25.9 92.4999 25.9 92.4999 25.8C92.4999 25.9 92.3999 25.9 92.3999 25.9C92.2999 25.8 92.2999 25.8 92.2999 25.8C92.4999 25.9 92.4999 25.9 92.4999 26.1C92.4999 26 92.4999 26 92.3999 25.9ZM105.7 25.5C105.7 25.4 105.8 25.4 105.8 25.4C105.9 25.5 105.9 25.5 106 25.5V25.6C105.8 25.6 105.8 25.7 105.7 25.5ZM105.3 25.7C105.3 25.6 105.3 25.6 105.3 25.5L105.2 25.6C105.2 25.6 105.2 25.6 105.2 25.7C105.1 25.7 105.2 25.7 105.3 25.7ZM94.8999 25.9C94.9999 25.9 94.9999 25.9 94.8999 25.9C94.9999 25.9 94.9999 25.9 94.8999 25.9C94.8999 25.8 94.8999 25.8 94.7999 25.8C94.8999 25.8 94.8999 25.9 94.8999 25.9ZM101.4 25.7C101.4 25.6 101.5 25.6 101.5 25.6H101.6C101.6 25.7 101.6 25.7 101.4 25.7C101.5 25.7 101.5 25.7 101.4 25.7ZM94.9999 25.7C95.0999 25.7 95.0999 25.7 94.9999 25.7C95.0999 25.7 95.1999 25.7 95.1999 25.7C95.1999 25.8 95.1999 25.8 95.0999 25.8C95.0999 25.8 95.0999 25.8 94.9999 25.7ZM94.3999 25.8C94.4999 25.8 94.4999 25.8 94.3999 25.8C94.4999 25.8 94.5999 25.8 94.5999 25.8L94.4999 25.9C94.2999 25.8 94.3999 25.8 94.3999 25.8ZM98.4999 25.6C98.4999 25.5 98.4999 25.5 98.4999 25.6C98.5999 25.5 98.5999 25.5 98.4999 25.6C98.6999 25.7 98.5999 25.6 98.5999 25.8C98.5999 25.7 98.5999 25.6 98.4999 25.6ZM101.5 25.5C101.5 25.5 101.6 25.5 101.6 25.4C101.6 25.5 101.5 25.5 101.5 25.5C101.5 25.6 101.5 25.5 101.5 25.5ZM100.5 25.6C100.5 25.4 100.5 25.4 100.6 25.3C100.4 25.2 100.3 25.2 100.1 25.1C100.1 25.1 100.2 25 100.1 25V24.9C99.9999 25 99.6999 25.1 99.6999 25.3C99.6999 25.3 99.6999 25.4 99.7999 25.4H99.8999C99.9999 25.3 99.9999 25.3 100.2 25.2C100.3 25.5 100.4 25.5 100.5 25.6ZM102.4 25.5C102.4 25.5 102.4 25.4 102.3 25.4C102.2 25.4 102.1 25.4 102.1 25.4V25.5C102.2 25.5 102.3 25.5 102.4 25.5ZM100.2 25.6C100.2 25.5 100.2 25.5 100.2 25.6C100.2 25.5 100.2 25.5 100.2 25.6C100.1 25.5 100.1 25.5 100.2 25.6ZM99.4999 25.5C99.4999 25.5 99.3999 25.5 99.4999 25.5C99.3999 25.5 99.4999 25.5 99.4999 25.5C99.4999 25.6 99.4999 25.6 99.4999 25.5ZM96.4999 25.7C96.4999 25.6 96.4999 25.6 96.5999 25.5C96.4999 25.5 96.4999 25.5 96.3999 25.5C96.4999 25.4 96.4999 25.4 96.4999 25.4C96.5999 25.4 96.5999 25.4 96.6999 25.4C96.6999 25.5 96.6999 25.4 96.5999 25.5V25.6C96.5999 25.7 96.4999 25.7 96.4999 25.7ZM92.2999 25.7C92.2999 25.6 92.3999 25.6 92.3999 25.6V25.7C92.3999 25.7 92.3999 25.7 92.2999 25.7ZM103.3 25.4C103.2 25.3 103.3 25.4 103.3 25.3C103.1 25.4 103.1 25.3 103 25.5C102.8 25.4 102.8 25.4 102.7 25.3C102.6 25.2 102.7 25.3 102.6 25.3C102.6 25.3 102.6 25.2 102.5 25.2C102.6 25.1 102.7 25.2 102.7 24.9C102.7 24.9 102.7 25 102.8 25C103 24.9 102.9 24.9 102.9 24.8C103 24.9 103 24.8 103 25C103 25 103.1 25 103.1 24.9C103.1 25 103.1 25 103.2 25.1C103.3 25 103.4 25 103.5 24.9C103.5 24.9 103.5 24.9 103.5 24.8C103.5 24.9 103.5 24.9 103.6 24.9C103.7 25 103.9 25.1 104 25.1V25.2V25.3C103.6 25.3 103.6 25.3 103.3 25.4C103.4 25.3 103.4 25.4 103.3 25.4ZM103.1 25.4C103 25.4 103 25.4 103 25.4H103.1ZM101.2 25.4C101.2 25.4 101.2 25.3 101.1 25.2C101.2 25 101.1 25.1 101.3 25L101.2 24.9C101.2 24.9 101.2 24.9 101.3 24.9C101.5 25 101.4 24.9 101.5 24.9C101.5 25 101.5 25 101.4 25C101.5 25 101.5 25 101.6 24.9C101.7 25 101.7 25.1 101.7 25.2C101.8 25.3 101.7 25.2 101.9 25.3C101.9 25.4 101.9 25.5 101.9 25.5C101.5 25.4 101.4 25.2 101.2 25.4ZM96.0999 25.6C96.0999 25.4 96.1999 25.6 96.2999 25.4L96.1999 25.3C95.9999 25.4 95.7999 25.4 95.6999 25.6C95.7999 25.5 95.8999 25.6 96.0999 25.6ZM99.0999 25.3C99.1999 25.3 99.1999 25.4 99.1999 25.4C99.0999 25.3 99.0999 25.4 99.0999 25.3C98.8999 25.4 98.9999 25.4 98.8999 25.5C98.8999 25.5 98.8999 25.5 98.7999 25.5C98.7999 25.4 98.7999 25.3 98.7999 25.3C98.8999 25.2 98.9999 25.2 99.0999 25.3ZM110.2 25.2V25.1C110.1 25.1 109.9 25 109.8 25L109.7 25.1C109.9 25.1 109.9 25.2 110.2 25.2ZM107.5 25.2C107.8 25.1 108.4 25.2 108.5 25V24.9C108.3 24.9 108.4 24.9 108.3 24.8C108.3 24.9 108.3 24.8 108.3 24.9L108.2 24.8C108 24.9 107.7 25 107.5 24.9C107.5 25.1 107.5 25.1 107.4 25.2C107.3 25 107.3 24.9 107.1 24.9C107 24.9 106.8 24.9 106.7 24.9L106.6 25C106.6 25.1 106.7 25.1 106.7 25.2H106.6C106.7 25.3 106.6 25.3 106.9 25.3H107C107 25.2 107 25.2 107 25.1H107.1V25.2L107 25.3H107.1C107.3 25.2 107.3 25.1 107.5 25.2ZM106 24.9C105.9 25 105.8 25.1 105.8 25.2C105.6 25.2 105.5 25.2 105.3 25.2C105.3 25 105.3 25 105.4 25V24.9C105.3 24.9 105.3 24.9 105.2 25C105.2 25.1 105.2 25.2 105.2 25.3V25.4C105.1 25.4 104.9 25.4 104.8 25.4C104.7 25.4 104.6 25.4 104.5 25.4C104.5 25.3 104.5 25.1 104.5 25C104.6 25 104.7 25.1 104.8 25.2C105 25.1 104.9 25.1 105.1 24.9C105.2 24.8 105.6 24.9 105.7 25C105.8 25 105.7 25 105.7 25C105.9 25.1 106.1 25.2 106.4 25.2C106.4 25.4 106.4 25.4 106.3 25.5C106.1 25.2 106.1 25.1 106 24.9ZM102.4 25.3C102.4 25.2 102.5 25.2 102.5 25.2C102.5 25.3 102.5 25.3 102.4 25.3C102.5 25.3 102.4 25.3 102.4 25.3ZM102.1 25.3C102 25.1 102.1 25.2 101.9 25.2C101.9 24.9 101.9 25 102 24.8C102.1 24.8 102.1 24.8 102.1 24.8L102 24.9H102.1C102.2 24.8 102.1 24.9 102.2 24.8C102.2 24.8 102.3 24.8 102.3 24.7C102.3 24.7 102.3 24.7 102.4 24.7C102.3 24.9 102.2 25 102.3 25.2C102.3 25.2 102.2 25.2 102.2 25.3H102.1ZM95.2999 25.5C95.2999 25.5 95.2999 25.4 95.2999 25.5C95.1999 25.4 95.1999 25.4 95.0999 25.4C95.1999 25.5 95.2999 25.5 95.2999 25.5ZM92.4999 25.6C92.4999 25.5 92.4999 25.5 92.4999 25.6C92.3999 25.5 92.3999 25.5 92.2999 25.6C92.2999 25.6 92.3999 25.6 92.4999 25.6ZM109.7 25.1C109.7 25 109.6 24.9 109.5 24.8C109.5 24.8 108.7 24.8 108.7 24.9C108.7 25 108.7 25.1 108.7 25.1C108.7 25.1 109.5 25.1 109.7 25.1ZM104.1 25.2C104 25 104.1 25 103.9 24.9V24.8C104 24.8 104 24.8 104 24.8C104.1 24.8 104.2 24.8 104.2 24.8C104.1 25 104.1 25 104.3 25.2C104.4 25.2 104.3 25.2 104.1 25.2C104.2 25.2 104.2 25.2 104.1 25.2ZM94.6999 25.5C94.6999 25.4 94.6999 25.3 94.6999 25.3C94.5999 25.3 94.4999 25.3 94.3999 25.3C94.3999 25.3 94.2999 25.3 94.1999 25.4V25.5H94.2999C94.3999 25.3 94.5999 25.4 94.6999 25.5ZM107.2 25C107.1 25.1 107.2 25 107.2 25C107.2 25.1 107.2 25.1 107.2 25ZM105 25.2C104.9 25.1 105 25.2 104.9 25.1C104.9 25.1 104.9 25.1 105 25.2C105 25.1 105 25.1 105 25.1C105 25.1 105 25.1 105 25.2ZM98.3999 25.3V25.2H98.2999C98.3999 25.2 98.3999 25.3 98.3999 25.3ZM107.8 25.1C107.8 25 107.7 25 107.8 25.1C107.7 25 107.8 25 107.8 25.1C107.8 25 107.8 25 107.8 25.1ZM100.1 25.1C99.9999 25.1 99.9999 25.1 99.9999 25.1L100.1 25.2V25.1ZM93.8999 25.3C93.8999 25.2 93.8999 25.2 93.8999 25.3C93.9999 25.2 93.9999 25.2 94.0999 25.2C94.0999 25.3 94.0999 25.3 94.0999 25.4C93.9999 25.3 93.9999 25.3 93.8999 25.3ZM92.5999 25.4C92.6999 25.3 92.6999 25.3 92.6999 25.2H92.5999C92.5999 25.2 92.4999 25.2 92.4999 25.3C92.4999 25.3 92.4999 25.3 92.3999 25.3C92.3999 25.3 92.4999 25.3 92.5999 25.4ZM91.7999 25.4C91.8999 25.3 91.8999 25.3 91.8999 25.4C91.8999 25.4 91.8999 25.4 91.7999 25.4ZM93.2999 25.3C93.3999 25.2 93.5999 25.2 93.5999 25.2C93.5999 25.2 93.5999 25.2 93.4999 25.2C93.3999 25.1 93.3999 25.1 93.1999 25.1C93.1999 25.3 93.1999 25.2 93.2999 25.3C93.1999 25.3 93.1999 25.3 93.2999 25.3ZM108 25C107.9 24.9 107.9 25 107.9 24.9H108C108 24.9 108 24.9 108 25ZM100.5 25.1C100.5 25 100.5 25 100.5 25.1C100.4 25 100.4 25 100.2 25C100.2 25 100.2 25 100.2 25.1C100.4 25 100.4 25 100.5 25.1ZM91.6999 25.2C91.6999 25.1 91.7999 25.1 91.7999 25H91.8999C91.8999 25.1 91.8999 25.2 91.9999 25.2C91.7999 25.2 91.8999 25.2 91.6999 25.2ZM100.8 25C100.8 24.9 100.8 24.9 100.8 25C100.8 24.9 100.9 24.9 100.9 24.9V25C100.9 25 100.9 25 100.8 25ZM100.6 24.9C100.6 24.9 100.6 24.8 100.6 24.9C100.7 24.9 100.7 24.9 100.7 24.9C100.7 25 100.6 24.9 100.6 24.9ZM93.1999 24.8C93.1999 24.8 93.1999 24.9 93.1999 25C92.8999 25 93.0999 24.9 92.8999 25C92.8999 24.9 92.7999 24.8 92.7999 24.7C93.1999 24.7 95.1999 24.7 95.4999 24.9V24.8C95.6999 24.8 95.6999 24.8 95.6999 25C95.8999 24.9 95.8999 24.9 96.0999 24.8C96.0999 24.8 96.0999 24.9 96.1999 24.9C96.1999 24.9 96.2999 24.9 96.2999 24.8C96.3999 24.8 96.4999 24.8 96.4999 24.8C96.3999 25 96.3999 25 96.1999 25V25.1C95.2999 24.9 93.5999 25.1 93.1999 24.8ZM97.0999 25C96.7999 25 96.7999 25 96.6999 24.9C96.6999 24.8 96.7999 24.8 96.7999 24.7C96.8999 24.8 97.0999 24.7 97.2999 24.7C97.2999 24.6 97.1999 24.5 97.0999 24.4L97.1999 24.3C97.2999 24.3 97.4999 24.4 97.5999 24.4C97.5999 24.4 97.5999 24.4 97.6999 24.4C97.5999 24.4 97.4999 24.5 97.4999 24.5H97.3999C97.4999 24.7 97.6999 24.6 97.7999 24.7C97.5999 24.8 97.3999 24.8 97.1999 24.9C97.1999 25 97.0999 25 97.0999 25ZM102.6 24.8C102.6 24.7 102.6 24.6 102.5 24.7L102.6 24.8ZM101.8 24.8V24.7C101.9 24.7 101.9 24.8 101.8 24.8C101.9 24.8 101.9 24.8 101.8 24.8ZM97.7999 24.5C97.8999 24.5 97.9999 24.5 98.0999 24.4C98.0999 24.5 97.9999 24.5 97.9999 24.6C97.9999 24.6 97.9999 24.6 98.0999 24.6C98.0999 24.6 98.1999 24.6 98.1999 24.5C98.1999 24.4 98.1999 24.3 98.1999 24.3C98.5999 24.3 99.0999 24.4 99.4999 24.3L99.5999 24.4C99.2999 24.5 98.6999 24.6 98.3999 24.5C98.2999 24.6 98.3999 24.6 98.2999 24.7C98.1999 24.7 98.0999 24.8 97.9999 24.8H97.8999L97.7999 24.5ZM92.6999 24.9C92.6999 24.9 92.7999 24.9 92.6999 24.9C92.6999 24.7 92.6999 24.7 92.5999 24.6C92.4999 24.7 92.3999 24.8 92.2999 24.9C92.0999 24.7 91.8999 24.7 91.5999 24.6V24.7C91.7999 24.8 91.5999 24.8 91.6999 24.8C92.0999 24.9 92.3999 24.9 92.6999 24.9ZM91.4999 24.9C91.4999 24.8 91.5999 24.7 91.5999 24.6C91.5999 24.7 91.4999 24.7 91.4999 24.8C91.3999 24.7 91.3999 24.8 91.4999 24.9C91.3999 24.9 91.3999 24.9 91.4999 24.9ZM99.8999 24.6C99.9999 24.6 99.9999 24.5 99.8999 24.6C99.9999 24.5 99.9999 24.5 99.8999 24.6C99.8999 24.4 99.7999 24.4 99.6999 24.4V24.5C99.7999 24.6 99.8999 24.6 99.8999 24.6ZM90.7999 24.8C90.7999 24.8 90.7999 24.7 90.7999 24.8C90.8999 24.7 90.9999 24.7 90.9999 24.7C90.9999 24.7 90.8999 24.7 90.8999 24.8C90.8999 24.8 90.8999 24.8 90.7999 24.8ZM97.0999 24.6C96.9999 24.5 96.8999 24.4 96.8999 24.5L96.7999 24.6C96.8999 24.6 96.8999 24.6 97.0999 24.6ZM91.0999 24.8C91.0999 24.7 91.1999 24.7 91.0999 24.8C91.0999 24.7 91.0999 24.7 91.0999 24.7H91.1999C91.1999 24.7 91.1999 24.8 91.2999 24.8C91.2999 24.8 91.1999 24.8 91.0999 24.8ZM90.6999 24.8C90.6999 24.8 90.6999 24.7 90.5999 24.7V24.8C90.5999 24.8 90.5999 24.8 90.6999 24.8ZM100.8 24.5C100.8 24.5 100.8 24.4 100.8 24.5C100.9 24.4 100.9 24.5 101 24.5C100.9 24.5 100.9 24.5 100.8 24.5ZM100.5 24.5C100.5 24.4 100.5 24.4 100.5 24.5C100.8 24.4 100.7 24.4 100.7 24.5C100.6 24.5 100.5 24.5 100.5 24.5ZM89.7999 24.6C89.7999 24.5 89.8999 24.5 89.8999 24.5C89.9999 24.5 90.0999 24.5 90.1999 24.5C90.2999 24.5 90.1999 24.6 90.0999 24.6C89.8999 24.6 89.9999 24.6 89.7999 24.6ZM104.6 24.2C104.6 24.2 104.6 24.1 104.5 24.1H104.4V24.2C104.5 24.1 104.5 24.1 104.6 24.2ZM103.7 24.1V24C104 24 104 24 104 24.1C103.9 24.1 103.8 24.1 103.7 24.1ZM103.1 24.1C103.1 23.9 103.1 24 102.9 24V24.1C103 24.1 103.1 24.1 103.1 24.1ZM93.5999 24.3C93.4999 24.3 93.3999 24.3 93.3999 24.3C93.3999 24.2 93.4999 24.1 93.4999 24.1C93.7999 24.1 93.9999 24.3 94.0999 24.2V24.3C93.9999 24.4 93.9999 24.3 93.8999 24.4C93.7999 24.3 93.6999 24.3 93.5999 24.3ZM102.9 24.1C102.8 24 102.6 23.9 102.6 24.1C102.7 24.1 102.8 24.1 102.9 24.1ZM102.3 24.1L102.4 24V24.1C102.4 24.1 102.4 24.1 102.3 24.1ZM101.7 24.1C101.8 24 101.8 24.1 101.8 24C101.7 24 101.6 24 101.5 24V24.1C101.6 24.1 101.6 24.1 101.7 24.1ZM92.8999 24.3C92.8999 24.2 92.8999 24.2 92.8999 24.2V24.1C92.9999 24.1 92.9999 24.2 92.8999 24.3C92.9999 24.2 92.9999 24.2 92.9999 24.1C93.1999 24.2 93.1999 24.2 93.2999 24.3C93.1999 24.3 92.9999 24.3 92.8999 24.3ZM92.1999 24.3C92.1999 24.3 92.1999 24.2 92.0999 24.2C91.9999 24.2 91.9999 24.3 91.8999 24.3L91.7999 24.2L89.8999 24.1C89.8999 24.1 89.9999 24.1 89.9999 24C89.9999 23.9 89.9999 23.8 89.9999 23.7L90.0999 23.8C90.2999 23.7 90.8999 23.8 91.1999 24C91.1999 23.9 91.2999 23.9 91.2999 23.8C91.3999 23.9 91.8999 24 92.0999 24C92.0999 23.9 92.1999 23.8 92.1999 23.8H92.2999C92.3999 23.9 92.3999 23.9 92.3999 24C92.4999 24 92.5999 24 92.5999 24V24.1C92.3999 24.3 92.2999 24.3 92.1999 24.3ZM101.2 23.9C101.3 23.9 101.3 23.9 101.4 23.9L101.3 24C101.2 24 101.3 24 101.2 23.9ZM100.8 24.1C100.8 24 100.8 24 100.8 24C100.9 24 101 24 101.1 24V24.1C101 24.1 100.9 24.1 100.8 24.1ZM100.6 24.1C100.6 24 100.5 24 100.6 24.1C100.7 24.1 100.6 24 100.7 24.1H100.6ZM100.4 24.1C100.4 24 100.4 24 100.4 24C100.1 24 99.4999 24 99.3999 24.1C99.4999 24.1 99.6999 24.1 99.7999 24.1C100.1 24.1 100.2 24.1 100.4 24.1ZM96.7999 24.2C96.7999 24.2 96.7999 24.1 96.7999 24.2C96.7999 24.1 96.8999 24.1 96.8999 24.1C96.8999 24.1 96.8999 24.2 96.7999 24.2ZM94.4999 24.2C94.3999 24 94.4999 24.1 94.3999 24.1C94.2999 24.2 94.2999 24.1 94.1999 24.1C94.1999 24.2 94.1999 24.2 94.1999 24.3H94.2999C94.3999 24.2 94.3999 24.2 94.4999 24.2ZM92.7999 24.3C92.7999 24.2 92.6999 24.2 92.6999 24.1V24.2C92.7999 24.3 92.5999 24.2 92.7999 24.3ZM98.6999 24.1C98.5999 24.1 98.5999 24.1 98.6999 24.1C98.6999 24 98.5999 24 98.5999 24C98.6999 24 98.8999 24 98.9999 24V24.1C98.8999 24.1 98.7999 24.1 98.6999 24.1ZM95.1999 24.2C95.1999 24.1 95.1999 24.1 94.9999 24.1V24.2C94.9999 24.2 95.0999 24.2 95.1999 24.2ZM89.4999 24.3C89.3999 24.2 89.3999 24.2 89.2999 24.1V24.2C89.2999 24.2 89.2999 24.2 89.3999 24.2C89.3999 24.3 89.4999 24.3 89.4999 24.3ZM99.1999 24C99.1999 23.9 99.1999 23.9 99.1999 24C99.0999 24 99.0999 24 99.1999 24ZM89.6999 24.1C89.6999 24 89.6999 24 89.6999 24.1C89.7999 24 89.7999 24 89.8999 24V24.1C89.8999 24.1 89.7999 24.1 89.6999 24.1ZM94.5999 23.7C94.4999 23.7 94.3999 23.6 94.2999 23.6V23.7C94.2999 23.7 94.3999 23.7 94.5999 23.7Z" fill="#6FC06A"/>
<path fill-rule="evenodd" clip-rule="evenodd" d="M113.6 10C114.9 10.2 114.9 10.5 115.7 11.2C116 11.5 116.7 11.9 116.7 12.2C116.9 13.4 116.1 14.7 115.8 15.1C115.6 15.5 114.6 16.6 114 17C113.9 17.1 113.6 17.1 112.7 17.1C111.7 17.1 111 17.2 110.1 17.2C108.6 17.5 105.4 17.4 104.2 17.1C103.1 16.8 101.4 17.2 101.1 16.7C101.1 16.6 101.1 16.6 101.1 16.5C101.1 16.6 101 16.6 101 16.7C100.9 16.7 100.9 16.7 100.8 16.7C100.8 16.7 99.7 16.2 99.6 16.2C99.3 16.4 99.6 16.3 99.3 16.4L99.4 16.3C99.5 16.2 99.6 16.1 99.6 16C99.5 16 99.4 16 99.4 16C99.4 16 99.4 16 99.5 15.9H99.4C99.4 16 99.3 16.1 99.2 16.1C99.1 16.1 98.7 16 98.7 16L98.9 15.8C99 15.8 99.2 15.7 99.2 15.7C99.2 15.7 99.3 15.7 99.4 15.7C99.4 15.7 99.3 15.7 99.2 15.7C99.2 15.7 99.2 15.6 99.1 15.6C99 15.6 98.1 15.9 98.1 15.8C98.1 15.8 98.3 15.5 98.3 15.3C98.3 15.3 98.2 15.3 98.2 15.4C98 15.5 97.9 15.5 97.8 15.6C97.5 15.6 97 15.4 97.1 15.3C97.3 15.2 98.1 15 98.1 15C98.1 15 98.1 15 98.2 14.9C98.2 14.8 98.2 14.8 98.2 14.7C98 14.8 96.8 14.7 96.4 14.6C96.2 14.6 95.7 14.6 95.4 14.5C94.7 14.3 94.1 13.7 93 13.8C93.2 13.7 93.3 13.5 93.5 13.4C93.6 13.4 93.7 13.3 93.8 13.3C93.4 13.3 93.3 13 93 13C92.4 12.8 91.1 12.8 90.9 12.4C90.9 12.3 91 12.2 91 12.1C90.7 12.2 90.6 12.2 90.7 12C90.9 11.9 90.7 12 90.9 11.9C90.6 11.9 90.7 11.8 90.6 11.8C90.5 11.8 90.3 11.8 90.3 11.8C90.3 11.8 90.6 11.6 90.7 11.4L90.9 11.2C91.1 11 91.3 10.9 91.4 10.8C91.5 10.8 91.6 10.8 91.6 10.8C91.7 10.8 91.7 10.8 91.7 10.7V10.6C91.7 10.6 91.8 10.6 91.9 10.6C91.9 10.6 91.5 10.5 91.6 10.4C91.7 10.3 92.2 10.2 92.5 10.2C92.8 10.2 93.5 10.1 93.9 9.80001C93.8 9.80001 94.4 9.60001 94.7 9.60001L94.8 9.50001C94.8 9.50001 94.9 9.40001 95 9.40001C95.1 9.30001 95.1 9.40001 95.2 9.30001C95.3 9.20001 95.7 9.30001 95.9 9.20001C96.1 9.20001 96.3 9.00001 96.5 9.00001C96.8 9.00001 97.2 9.00001 97.5 9.00001C97.7 9.00001 98.1 8.80001 98.4 8.90001C99.4 9.10001 101.2 9.10001 102.4 9.30001C102.9 9.40001 103.9 9.20001 104.6 9.40001C105.5 9.60001 107 9.50001 107.8 9.60001C108.2 9.60001 108.9 9.70001 109.4 9.70001C110.1 9.70001 112.7 9.70001 113 9.70001C113.3 10 113.6 10 113.6 10ZM103.9 15.9C103.9 15.9 104 15.9 103.9 15.9C104 15.8 104.1 15.8 104.1 15.7C104.1 15.7 104.1 15.7 104.1 15.6C104.2 15.7 104.2 15.7 104.2 15.8C104.1 15.8 104 15.9 103.9 15.9C104 15.9 104 15.9 103.9 15.9ZM103.8 16C103.8 16 103.9 15.7 103.7 15.8C103.6 15.8 103.6 15.9 103.6 15.9C103.7 15.9 103.6 15.9 103.8 16ZM104.9 15.3L105 15.2C105.1 15.2 105.2 15.2 105.3 15.2C105.4 15.2 105.4 15.2 105.5 15.2V15.3C105.4 15.3 105.3 15.3 105.2 15.3C105.3 15.5 105.6 15.4 105.5 15.6C105.7 15.5 105.5 15.6 105.7 15.6C105.8 15.5 105.8 15.5 105.9 15.4C105.9 15.6 105.9 15.5 106 15.6V15.7C106 15.7 106 15.7 106 15.8C105.7 15.8 105.4 15.7 104.9 15.8C104.9 15.8 104.9 15.8 104.9 15.9C104.9 15.9 104.9 15.9 105 16C104.7 15.7 105 15.5 104.9 15.3ZM102.4 15.8C102.5 15.7 102.5 15.6 102.6 15.5H102.5C102.5 15.5 102.5 15.5 102.5 15.6C102.4 15.7 102.4 15.8 102.4 15.8ZM101.9 15.8C102.1 15.6 102.2 15.5 101.9 15.5C101.9 15.4 101.9 15.5 101.9 15.4L101.8 15.5C101.8 15.5 101.8 15.5 101.8 15.6L101.7 15.7C101.8 15.7 101.7 15.7 101.9 15.8ZM100.6 15.8L100.7 15.7H100.8L100.7 15.8C100.6 15.8 100.6 15.8 100.6 15.8ZM100.1 15.7C100.2 15.6 100.3 15.4 100.4 15.3C100.4 15.2 100.4 15.2 100.4 15.1C100.3 15.2 100.2 15.3 100.1 15.4L100 15.5C100.1 15.5 100.2 15.4 100.3 15.4C100.1 15.7 100.1 15.6 100.1 15.7ZM106.1 15.6C106 15.5 106.1 15.5 106 15.4C106 15.4 106 15.4 106 15.3C106.2 15.3 106.2 15.2 106.4 15.1C106.8 15.2 108 15.6 108.6 15.4C108.6 15.4 108.6 15.4 108.6 15.5C108.4 15.7 108.6 15.6 108.4 15.7C108.3 15.8 108.4 15.7 108.3 15.7C108.2 15.8 108.2 15.8 108.2 15.9C107.9 15.8 106.3 15.7 106.1 15.6ZM105.1 15.7V15.6C105.1 15.6 105.1 15.6 105.2 15.6L105.1 15.7ZM103.5 15.7C103.6 15.5 103.6 15.5 103.5 15.3C103.4 15.5 103.4 15.5 103.5 15.7ZM109 15.6C109 15.7 108.9 15.7 108.9 15.8C108.8 15.7 108.9 15.6 108.9 15.5C108.9 15.5 108.9 15.5 108.9 15.4C109.1 15.4 109 15.4 109 15.6C109.2 15.5 109 15.6 109.2 15.4C109.3 15.5 109.3 15.5 109.3 15.5H109.4C109.4 15.5 109.4 15.5 109.4 15.4C109.4 15.4 109.4 15.4 109.4 15.3C109.4 15.4 109.4 15.3 109.4 15.5C109.7 15.5 110 15.4 110.1 15.5C110.2 15.5 110.2 15.5 110.3 15.5C110.3 15.4 110.3 15.4 110.3 15.3C110.4 15.4 110.4 15.4 110.3 15.6C109.9 15.7 109.2 15.9 109 15.6ZM102.8 15.6C102.9 15.5 103 15.5 103.1 15.4V15.3L103.2 15.2C102.9 15.2 102.9 15.2 102.7 15.1C102.7 15.2 102.6 15.2 102.6 15.3V15.4C102.6 15.5 102.7 15.6 102.8 15.6ZM104.5 15.5C104.5 15.5 104.6 15.4 104.5 15.5C104.6 15.5 104.6 15.5 104.7 15.5H104.8C104.7 15.6 104.7 15.6 104.6 15.7C104.6 15.5 104.6 15.5 104.5 15.5ZM110.8 15.7C111.1 15.5 111.3 15.6 111.6 15.5C111.3 15.5 111 15.5 110.7 15.5C110.6 15.6 110.6 15.6 110.5 15.7C110.6 15.6 110.7 15.7 110.8 15.7ZM105.7 15.5H105.6C105.6 15.4 105.7 15.4 105.7 15.3C105.7 15.3 105.7 15.3 105.8 15.3C105.9 15.3 105.9 15.3 105.9 15.2V15.3C105.9 15.4 105.9 15.4 105.9 15.5C105.8 15.5 105.7 15.5 105.7 15.5ZM106.3 15.5H106.2C106.2 15.4 106.2 15.4 106.3 15.5C106.3 15.4 106.3 15.4 106.3 15.5ZM104.1 15.4C104.2 15.3 104.2 15.3 104.3 15.2C104.4 15.2 104.4 15.2 104.5 15.1C104.5 15.1 104.5 15.1 104.6 15.1C104.6 15.2 104.5 15.2 104.5 15.3C104.2 15.4 104.2 15.4 104.1 15.4ZM101.8 15.4C101.9 15.3 102 15.3 102 15.2H101.9C101.8 15.2 101.7 15.2 101.6 15.3C101.7 15.3 101.7 15.3 101.8 15.4C101.7 15.4 101.7 15.5 101.6 15.5C101.7 15.4 101.8 15.4 101.8 15.4ZM101.2 15.4C101.3 15.3 101.4 15.3 101.4 15.2C101.3 15.2 101.3 15.2 101.2 15.1C101.2 15.3 101.2 15.3 101.2 15.4ZM101.2 14.8C101.3 14.7 101.4 14.7 101.4 14.6C101.3 14.6 101.3 14.6 101.2 14.6C101.2 14.8 101.2 14.7 101.2 14.8ZM98.9 14.6C99 14.5 99 14.5 99.1 14.4C99.2 14.4 99.3 14.4 99.4 14.3C99.4 14.3 99.4 14.3 99.5 14.3C99.5 14.4 99.4 14.4 99.4 14.5C99.3 14.5 99.2 14.6 99.1 14.7C99 14.6 99 14.6 98.9 14.6ZM104.9 14.1C104.9 14 104.9 14 104.9 14C105.1 13.9 105.4 13.9 105.7 13.8C105.7 13.7 105.7 13.7 105.6 13.6C105.6 13.6 105.6 13.7 105.5 13.7C105.4 13.8 104.9 13.9 104.8 14C104.8 14.1 104.9 14.1 104.9 14.1ZM101.2 13.8C101.4 13.8 101.4 13.8 101.2 13.9C101.1 13.9 101.1 14 101.2 13.8ZM106.2 14C106.3 14 106.3 14 106.4 14C106.3 13.9 106.4 13.9 106.3 13.9C106.3 13.9 106.3 13.9 106.2 14ZM101.3 13.6C101 13.8 101.1 13.7 100.9 14C100.8 13.8 101 13.7 101.3 13.6ZM99.6 13.8C99.7 13.8 99.7 13.7 99.8 13.7C99.8 13.7 99.8 13.7 99.9 13.7C99.8 13.8 99.7 13.8 99.6 13.8C99.7 13.9 99.6 13.9 99.6 13.8ZM107.1 13.9C107.2 13.8 107.2 13.7 107.3 13.6H107.4C107.4 13.7 107.3 13.8 107.3 14C107.3 13.9 107.2 13.9 107.1 13.9ZM105.9 13.9C105.9 13.8 106 13.8 106 13.7C106 13.7 106 13.7 105.9 13.7C105.8 13.8 105.8 13.8 105.7 13.9C105.9 13.9 105.9 13.9 105.9 13.9ZM103.8 13.8C103.8 13.7 103.9 13.6 103.9 13.6L103.8 13.7H103.7C103.7 13.8 103.7 13.8 103.8 13.8ZM101.6 13.8C101.6 13.7 101.6 13.7 101.6 13.8C101.6 13.7 101.5 13.8 101.5 13.8C101.5 13.8 101.5 13.8 101.6 13.8ZM99.2 13.8L99.3 13.7H99.4L99.3 13.8H99.2ZM108.4 13.6C108.4 13.7 108.3 13.7 108.4 13.6C108.3 13.7 108.2 13.8 108.2 13.8C108.2 13.8 108.2 13.8 108.1 13.8H108C108 13.7 108.1 13.7 108.1 13.6C108.2 13.6 108.3 13.6 108.4 13.6ZM107.5 13.7L107.6 13.6C107.6 13.7 107.7 13.6 107.6 13.7C107.6 13.7 107.6 13.7 107.5 13.7ZM106.1 13.5C106.1 13.5 106.2 13.5 106.2 13.6C106.2 13.6 106.2 13.7 106.1 13.7C106 13.5 106 13.7 106.1 13.5ZM109.8 13.6L109.9 13.5C109.9 13.6 109.9 13.5 110 13.6V13.5C109.9 13.4 109.9 13.4 109.8 13.4C109.6 13.6 109.8 13.5 109.6 13.5C109.6 13.4 108.9 13.4 108.8 13.3C108.9 13.4 109.5 13.5 109.6 13.5C109.6 13.6 109.7 13.6 109.8 13.6ZM98.4 13.5C98.5 13.4 98.5 13.5 98.4 13.5C98.3 13.4 98.3 13.5 98.2 13.5C98.3 13.5 98.4 13.5 98.4 13.5ZM98.1 13.5C98.1 13.5 98.1 13.4 98.1 13.5C98.2 13.4 98.2 13.4 98.3 13.4C98.4 13.4 98.4 13.4 98.3 13.5C98.2 13.5 98.1 13.5 98.1 13.5ZM102.6 13.4C102.7 13.3 102.7 13.2 102.8 13.2C102.9 13.2 103 13.3 103.1 13.3C103 13.3 102.9 13.4 102.6 13.4C102.7 13.4 102.7 13.4 102.6 13.4ZM102.2 13.4C102.3 13.3 102.4 13.3 102.4 13.3L102.3 13.4C102.2 13.4 102.2 13.4 102.2 13.4ZM98.7 13.2C98.8 13.3 99.1 13.2 99.2 13.2H99.3C99.2 13.3 99.2 13.3 99.1 13.4C98.9 13.4 98.7 13.4 98.7 13.2ZM96.3 13.5L96.4 13.4C96.5 13.4 96.5 13.4 96.4 13.5C96.4 13.5 96.4 13.5 96.3 13.5ZM107.7 13.4C107.8 13.3 107.9 13.2 108.1 13L108 12.9C107.9 13 107.8 13 107.8 13.1C107.7 13.1 107.7 13.1 107.7 13.1C107.5 13.2 107.6 13.3 107.7 13.4ZM105.4 13.4C105.6 13.2 105.7 13.1 105.9 12.9H105.8C105.7 12.9 105.6 12.9 105.4 13.1C105.4 13.1 105.4 13.2 105.4 13.4ZM103.9 13.3C104 13.2 104.4 13.1 104.5 13C104.5 13 104.5 13 104.4 13C104.1 13.2 104.3 13 104 13.1H104.1L104 13.2C104 13.2 103.6 13.2 103.5 13.2C103.8 13.2 103.7 13.2 103.9 13.3ZM102.4 13.3C102.6 13.2 102.6 13.2 102.8 13C102.8 12.9 103.1 12.8 103.1 12.7C103 12.7 102.6 12.8 102.5 12.8C102.5 12.9 102.5 12.9 102.5 12.9C102.4 12.9 102.4 12.9 102.3 12.9C102.3 13 102.3 13.1 102.2 13.2C102.3 13.3 102.4 13.3 102.4 13.3ZM106.2 13.1C106.1 13 106.2 13.1 106 13.1C106.1 13.1 106.1 13 106.1 13C106.2 13 106.3 13 106.5 13C106.6 13.1 106.6 13.1 106.6 13.2C106.4 13.3 106.3 13.4 106.1 13.5C106.2 13.2 106.2 13.2 106.2 13.1ZM104.6 13.3L104.7 13.2H104.8C104.8 13.2 104.8 13.3 104.7 13.3H104.6ZM106.7 13.1C106.9 12.9 107.1 12.9 107.3 12.8C107.4 12.9 107.3 12.8 107.3 12.9C107.3 12.9 107.3 12.9 107.4 12.9C107.6 12.8 107.4 12.8 107.6 12.8C107.7 12.9 107.6 12.8 107.6 12.9C107.6 12.9 107.6 12.9 107.7 12.9C107.6 13 107.6 13 107.5 13.1C107.3 13.1 107.4 13.1 107.2 13.2C106.9 13.2 106.7 13.3 106.7 13.1ZM101.5 13.2C101.7 13.1 101.9 13 101.9 12.8L101.8 12.9V13C101.7 13 101.7 13 101.6 13C101.6 13 101.6 12.9 101.5 12.9C101.4 13 101.3 13 101.3 13.1H101.4C101.4 13.2 101.4 13.2 101.5 13.2ZM96.5 13.1C96.5 13.2 96.3 13.2 96.2 13.2C96.4 13.1 96.3 13.1 96.5 13.1ZM95.4 13.2C95.5 13.2 95.5 13.1 95.6 13.1H95.7C95.7 13.1 95.7 13.1 95.6 13.1C95.5 13.1 95.5 13.1 95.4 13.2C95.5 13.2 95.4 13.2 95.4 13.2ZM108.2 13.2C108.3 13.1 108.4 13 108.5 12.9C108.4 12.8 108.4 12.7 108.3 12.6C108.3 12.6 108.3 12.6 108.2 12.6C108.2 12.6 108.2 12.7 108.1 12.7C108.3 12.8 108.3 13 108.2 13.2ZM105.3 13.1C105.4 13 105.4 12.9 105.4 12.9C105.3 12.9 105.3 12.9 105.3 12.9L105.2 13C105.1 13.1 105.1 13.1 105.3 13.1ZM105 13.1C105 13 105 12.9 104.8 12.9L104.7 13C104.9 13 104.9 13.1 105 13.1ZM103 13.1L103.4 13C103.6 12.9 103.7 12.9 103.8 12.8C103.9 12.9 103.4 12.9 103.3 13.1C103.2 13.1 103.1 13.1 103 13.1ZM100.6 13.1C100.7 12.9 100.8 13 100.7 12.9C100.7 13 100.6 13 100.6 13.1C100.6 13 100.6 13.1 100.6 13.1ZM100.3 13.1C100.4 13 100.4 13 100.5 12.9C100.5 13 100.5 13 100.4 13.1C100.4 13.1 100.4 13.1 100.3 13.1ZM99.2 13C99.4 12.8 99.5 12.9 99.4 12.7C99.3 12.7 99.3 12.7 99.3 12.7C99 12.9 99 12.8 98.8 13C98.8 13 98.8 13 98.9 13C99 13 99 12.9 99.1 12.9C99 13 99 13 99.2 13ZM97.4 13C97.5 12.9 97.6 12.9 97.7 12.9L97.6 13C97.5 13 97.4 13 97.4 13ZM97.5 12.7C97.6 12.7 97.6 12.7 97.5 12.7C97.5 12.8 97.4 12.8 97.4 12.9C97.2 13 97.2 13 97.1 13.1C97.3 12.9 97.4 12.8 97.5 12.7ZM97.7 12.9C97.8 12.8 97.9 12.8 98 12.7C98.1 12.7 98.1 12.7 98.2 12.7V12.8C98.1 12.9 98 12.9 97.9 13C97.8 13 97.8 13 97.7 12.9ZM94.4 12.8C94.5 12.8 94.5 12.8 94.6 12.8C94.6 12.8 94.6 12.8 94.5 12.8C94.4 12.8 94.4 12.9 94.3 12.9C94.4 12.9 94.4 12.8 94.4 12.8ZM104.7 12.5C104.8 12.4 104.8 12.4 104.7 12.5C104.8 12.4 104.9 12.4 104.9 12.5C104.9 12.6 104.9 12.6 104.8 12.6C104.8 12.8 105 12.6 104.6 12.9C104.7 12.7 104.7 12.6 104.7 12.5ZM103.3 12.8C103.3 12.8 103.3 12.7 103.3 12.8C103.4 12.7 103.5 12.7 103.5 12.7L103.4 12.8H103.3ZM94.2 12.9C94.4 12.8 94.3 12.8 94.3 12.8C94.2 12.8 94.2 12.8 94.2 12.9C94.1 12.9 94.1 12.9 94 12.9C94.1 12.9 94.1 12.9 94.2 12.9ZM93.5 12.8L93.6 12.7C93.7 12.8 93.7 12.7 93.5 12.8C93.5 12.9 93.5 12.8 93.5 12.8ZM108.7 12.8C108.7 12.7 108.7 12.7 108.8 12.6L108.9 12.5C108.9 12.6 108.9 12.7 109.1 12.7C109.2 12.6 110 12.6 110.1 12.5V12.6C110.2 12.5 110.1 12.6 110.2 12.5C110.2 12.6 110.2 12.6 110.2 12.7V12.6C110.2 12.6 110.2 12.6 110.3 12.6H110.2C110.3 12.5 110.3 12.5 110.3 12.4C110.2 12.4 110.2 12.4 110.1 12.4C109.8 12.6 108.4 12.4 108.2 12.4C108.2 12.4 108.2 12.5 108.1 12.5C108.3 12.5 108.3 12.5 108.5 12.5C108.6 12.8 108.5 12.8 108.7 12.8ZM100.1 12.5C100.1 12.5 100.2 12.5 100.1 12.5C100.3 12.5 100.3 12.4 100.2 12.5C100.1 12.6 100.1 12.6 99.9 12.7C100 12.7 100 12.6 100.1 12.5ZM107.7 12.5C107.5 12.6 107.7 12.5 107.5 12.6C107.3 12.5 107.5 12.5 107.5 12.4C107.7 12.4 107.8 12.4 108 12.3V12.4C108 12.5 107.9 12.6 107.8 12.7C107.6 12.7 107.6 12.7 107.7 12.5ZM107 12.8C107.1 12.7 107.2 12.6 107.2 12.5H107.1C107 12.6 107.1 12.5 107 12.8C107 12.7 107 12.7 107 12.8ZM106.1 12.7C106.2 12.7 106.3 12.7 106.3 12.7C106.3 12.7 106.3 12.6 106.4 12.6C106.3 12.6 106.2 12.6 106.1 12.6L106 12.7H106.1ZM92.7 12.8C93 12.6 92.7 12.8 93.1 12.6H93C92.7 12.7 92.8 12.6 92.7 12.8ZM99.6 12.6C99.5 12.6 99.4 12.6 99.4 12.6C99.5 12.6 99.5 12.5 99.6 12.5L99.7 12.4C99.8 12.5 99.8 12.5 100.1 12.5L100 12.6V12.5C100 12.5 99.9 12.6 99.8 12.6C99.7 12.6 99.7 12.6 99.6 12.6ZM99.1 12.5C99.2 12.4 99.3 12.4 99.4 12.3C99.4 12.3 99.4 12.3 99.5 12.3C99.4 12.4 99.4 12.5 99.1 12.5C99.2 12.6 99.2 12.6 99.1 12.5ZM94.4 12.7C94.6 12.6 94.7 12.5 94.9 12.4C95 12.4 95.1 12.4 95.2 12.4C95.1 12.4 95 12.3 94.9 12.3C94.8 12.3 94.7 12.4 94.7 12.4C94.6 12.6 94.5 12.5 94.4 12.7ZM101.4 12.6C101.6 12.5 101.6 12.5 101.8 12.5C101.8 12.5 102.2 12.5 102.3 12.4C102 12.4 101.8 12.4 101.8 12.3C101.8 12.3 101.3 12.3 101.3 12.4C101.2 12.5 101.2 12.5 101 12.6C101.3 12.5 101.2 12.5 101.4 12.6ZM110.5 13.2C110.7 13.1 110.7 13.1 110.9 13.1C110.9 13.1 111.3 13.1 111.4 13C111.1 13 110.9 13 110.9 12.9C110.9 12.9 110.4 12.9 110.4 13C110.3 13.1 110.3 13.1 110.1 13.2C110.4 13.2 110.3 13.2 110.5 13.2ZM100.5 12.6C100.6 12.6 100.6 12.6 100.7 12.6V12.5C100.6 12.5 100.6 12.4 100.6 12.4C100.6 12.5 100.6 12.4 100.5 12.6ZM94.8 12.6L94.9 12.5C94.9 12.5 94.8 12.5 94.8 12.6C94.7 12.6 94.7 12.6 94.8 12.6C94.7 12.6 94.8 12.6 94.8 12.6ZM93.2 12.6C93.2 12.6 93.3 12.6 93.2 12.6C93.3 12.6 93.3 12.6 93.3 12.6C93.3 12.5 93.3 12.5 93.2 12.6C93.3 12.5 93.3 12.5 93.3 12.5H93.4C93.6 12.5 93.5 12.5 93.2 12.6ZM106.4 12.4C106.5 12.4 106.5 12.4 106.4 12.4C106.5 12.3 106.6 12.3 106.6 12.3L106.7 12.4L106.6 12.5C106.5 12.5 106.5 12.6 106.4 12.4ZM106 12.6C106 12.5 106.1 12.5 106.1 12.4C106 12.4 106 12.5 105.9 12.5C105.9 12.5 105.9 12.6 106 12.6ZM95.3 12.4C95.4 12.4 95.4 12.4 95.3 12.4C95.4 12.4 95.4 12.4 95.3 12.4C95.4 12.4 95.4 12.4 95.4 12.4C95.3 12.4 95.2 12.5 95.1 12.5C95.3 12.4 95.3 12.5 95.3 12.4ZM99.2 12.3L99.3 12.2C99.2 12.4 99.3 12.3 99.1 12.4C99.2 12.4 99.2 12.4 99.2 12.3ZM102.5 12.3C102.6 12.3 102.6 12.3 102.7 12.3C102.6 12.3 102.5 12.3 102.5 12.3C102.4 12.3 102.5 12.3 102.5 12.3ZM103.3 12.3C103.3 12.3 103.3 12.2 103.4 12.2C103.3 12.2 103.2 12.2 103.2 12.2L103.1 12.3C103.1 12.3 103.2 12.3 103.3 12.3ZM100.9 12.3C100.9 12.2 100.9 12.2 100.9 12.3C100.8 12.3 100.8 12.3 100.9 12.3C100.8 12.3 100.8 12.3 100.9 12.3ZM97.5 12.3C97.6 12.3 97.7 12.2 97.8 12.2C97.7 12.2 97.7 12.2 97.6 12.2C97.8 12.1 97.8 12.1 97.9 12.1H98C97.8 12.2 98 12.1 97.8 12.2C97.7 12.2 97.7 12.3 97.6 12.3C97.6 12.3 97.6 12.3 97.5 12.3ZM104.3 12.2C104.2 12.1 104.3 12.2 104.4 12.1C104.2 12.2 104.2 12.1 104 12.3C103.9 12.2 104 12.2 103.9 12.1C103.9 12 103.9 12.1 103.8 12.1V12C104 11.9 104 12 104.2 11.8C104.2 11.8 104.2 11.9 104.1 11.9C104.3 11.8 104.3 11.8 104.4 11.7C104.4 11.8 104.4 11.7 104.3 11.9C104.4 11.9 104.4 11.9 104.5 11.9C104.5 12 104.4 12 104.4 12.1C104.6 12 104.7 12 104.9 11.9C104.9 11.9 104.9 12 104.8 12C104.8 12.1 104.9 12.1 105 12.2C104.9 12.2 104.9 12.3 104.8 12.3C104.8 12.3 104.8 12.4 104.7 12.4C104.6 12.3 104.5 12.4 104.3 12.4C104.4 12.2 104.4 12.2 104.3 12.2ZM104.1 12.3C104 12.3 104 12.3 104 12.3H104.1ZM102.3 12.2C102.3 12.2 102.4 12.1 102.4 12C102.6 11.9 102.5 11.9 102.8 11.8C102.8 11.8 102.8 11.8 102.8 11.7H102.9C103 11.7 102.9 11.7 103 11.7C102.9 11.7 102.9 11.8 102.8 11.8C102.8 11.8 102.9 11.8 103.1 11.7C103.1 11.8 103 11.9 102.9 11.9C102.9 12 102.9 11.9 103 12C102.9 12.1 102.8 12.1 102.7 12.2C102.6 12.2 102.7 12.1 102.3 12.2ZM97.2 12.3C97.5 12.1 97.3 12.3 97.7 12.1V12C97.4 12.1 97.2 12.1 96.9 12.2C97 12.2 97.1 12.3 97.2 12.3ZM100.4 12C100.5 12 100.5 12 100.4 12L100 12.1C100 12.1 100.3 12.2 100.4 12C100.1 12.1 99.9 12.1 99.6 12.2C99.6 12.2 99.6 12.2 99.5 12.2C99.6 12.1 100 12.1 100.1 12C100.3 12 100.4 12 100.4 12ZM108.5 12.2C108.8 12.1 109.3 12.2 109.5 12L109.6 11.9C109.4 11.9 109.5 11.9 109.4 11.8C109.4 11.8 109.4 11.8 109.3 11.8V11.7C109 11.8 108.8 11.8 108.6 11.8C108.5 12 108.5 12 108.4 12C108.4 11.8 108.4 11.8 108.3 11.7C108.2 11.7 108.1 11.7 107.9 11.7C107.8 11.7 107.8 11.8 107.7 11.8C107.7 11.9 107.7 11.9 107.7 12H107.6C107.6 12.1 107.5 12.1 107.8 12.1H107.9C108 12 107.9 12.1 108.1 11.9H108.2C108.2 11.9 108.2 12 108.1 12L108 12.1H108.1C108.2 12.2 108.3 12.1 108.5 12.2ZM111.5 12.8C111.8 12.7 112.3 12.8 112.5 12.6L112.6 12.5C112.4 12.5 112.5 12.5 112.4 12.4C112.4 12.4 112.4 12.4 112.3 12.4V12.3C112 12.4 111.8 12.4 111.6 12.4C111.5 12.6 111.5 12.6 111.4 12.6C111.4 12.4 111.4 12.4 111.3 12.3C111.2 12.3 111.1 12.3 110.9 12.3C110.8 12.3 110.8 12.4 110.7 12.4C110.7 12.5 110.7 12.5 110.7 12.6H110.6C110.6 12.7 110.5 12.7 110.8 12.7H110.9C111 12.6 110.9 12.7 111.1 12.5H111.2C111.2 12.5 111.2 12.6 111.1 12.6L111 12.7H111.1C111.3 12.8 111.4 12.7 111.5 12.8ZM107.1 12C107 12.1 106.9 12.1 106.7 12.2C106.6 12.2 106.4 12.2 106.3 12.2C106.5 12 106.4 12.1 106.5 12C106.5 12 106.5 11.9 106.6 11.9C106.5 11.9 106.5 11.9 106.4 11.9C106.3 12 106.3 12.1 106.2 12.1C106.2 12.1 106.2 12.2 106.1 12.2C106 12.2 105.9 12.2 105.7 12.2C105.6 12.2 105.5 12.2 105.5 12.2C105.6 12.1 105.7 12 105.8 11.8C106 11.8 106 11.8 105.9 12C106.1 11.9 106.1 11.9 106.4 11.8C106.6 11.8 106.8 11.8 106.9 11.9C106.9 11.9 106.9 11.9 107 11.9C107.1 12 107.3 12.1 107.5 12.1C107.4 12.3 107.4 12.3 107.2 12.3C107.1 12.2 107.1 12.1 107.1 12ZM103.5 12.2C103.5 12.1 103.5 12.1 103.5 12.2C103.6 12.1 103.6 12.1 103.7 12.1C103.6 12.1 103.6 12.1 103.5 12.2C103.6 12.2 103.5 12.2 103.5 12.2ZM103.2 12.2C103.3 12 103.3 12.1 103.1 12.1H103.2C103.4 11.9 103.5 11.9 103.7 11.8H103.8C103.7 11.8 103.7 11.9 103.6 11.9C103.6 11.9 103.6 11.9 103.7 11.9C103.9 11.8 103.7 11.9 103.9 11.8H104C103.7 12 103.5 12 103.5 12.2H103.4C103.3 12.2 103.3 12.2 103.2 12.2ZM96.6 12.2L96.7 12.1C96.7 12.1 96.6 12.1 96.6 12.2C96.6 12.1 96.5 12.1 96.6 12.2ZM93.8 12.2L93.9 12.1C93.8 12.1 93.7 12.1 93.6 12.1C93.6 12.1 93.6 12.1 93.5 12.1C93.6 12.2 93.7 12.2 93.8 12.2ZM110.5 12.2C110.5 12.1 110.5 12 110.4 11.9C110.4 11.9 109.7 11.9 109.6 11.9C109.5 12 109.5 12 109.4 12.1C109.6 12.2 110.4 12.2 110.5 12.2ZM105.2 12.1C105.3 11.9 105.4 11.9 105.3 11.8C105.3 11.8 105.3 11.7 105.4 11.7H105.5C105.6 11.7 105.6 11.7 105.7 11.7C105.5 11.9 105.4 11.9 105.5 12C105.5 12.1 105.4 12.1 105.2 12.1C105.3 12.1 105.3 12.1 105.2 12.1ZM96 12.2C96.1 12.1 96.2 12.1 96.3 12C96.2 12 96.1 12 96 12C96 12 95.8 12 95.7 12L95.6 12.1C96 12 96 12.1 96 12.2ZM108.2 12C108.1 12.1 108.2 12 108.2 12C108.2 12.1 108.2 12.1 108.2 12ZM106.1 12.1C106 12 106.1 12.1 106.1 12.1C106.1 12 106.1 12 106.1 12.1C106.2 12 106.2 12 106.2 12L106.1 12.1ZM108.8 12.1C108.8 12.1 108.8 12 108.8 12.1C108.8 12 108.8 12 108.8 12.1C108.8 12 108.8 12.1 108.8 12.1ZM101.6 11.9H101.5V12C101.5 12 101.5 12 101.6 11.9ZM100.1 12H100C100.1 12 100.1 12 100.1 12ZM95.5 12L95.6 11.9C95.7 11.9 95.7 11.9 95.8 11.9C95.7 12 95.6 12 95.5 12C95.5 12 95.6 12 95.5 12ZM94.1 12.1C94.3 12 94.3 12 94.5 11.9H94.4C94.3 11.9 94.3 11.9 94.2 11.9C94.1 12 94.1 12 94.1 12.1ZM94.8 12C95 11.9 95.2 11.9 95.3 11.9C95.3 11.8 95.3 11.8 95.1 11.8C94.9 12 95 11.9 94.8 12ZM109 12V11.9H109.1C109.1 11.9 109.1 12 109 12ZM93.5 11.9C93.7 11.8 93.7 11.8 93.9 11.7H94C93.9 11.8 93.8 11.8 93.7 11.9C93.6 11.9 93.7 11.9 93.5 11.9ZM108.5 11.9C108.6 11.9 108.6 11.9 108.5 11.9C108.6 11.8 108.6 11.8 108.5 11.9ZM95.5 11.6C95.4 11.6 95.3 11.7 95.3 11.7C95.1 11.7 95.3 11.6 95 11.7C95.1 11.6 95.2 11.5 95.3 11.5C95.3 11.5 95.3 11.5 95.4 11.5C95.8 11.5 97.5 11.5 97.6 11.7C97.7 11.7 97.7 11.6 97.8 11.6C97.8 11.7 97.8 11.7 97.8 11.8C98.1 11.7 98.1 11.7 98.4 11.6L98.3 11.7H98.4C98.5 11.7 98.5 11.7 98.6 11.7C98.2 11.9 98.3 11.8 98.1 11.8L98 11.9C97.2 11.7 95.4 11.9 95.5 11.6ZM98.8 11.8C98.5 11.8 98.6 11.8 98.5 11.7C98.6 11.7 98.7 11.6 98.8 11.6C98.8 11.6 99 11.6 99.2 11.6C99.3 11.5 99.3 11.4 99.4 11.4C99.5 11.4 99.5 11.4 99.6 11.3C99.7 11.3 99.8 11.3 99.9 11.4C99.8 11.4 99.7 11.5 99.6 11.5H99.5C99.4 11.6 99.6 11.6 99.7 11.7C99.4 11.8 99.2 11.8 98.9 11.9C98.9 11.8 98.9 11.8 98.8 11.8ZM104.1 11.7C104.2 11.7 104.3 11.6 104.1 11.7V11.7ZM99.7 11.7C99.8 11.6 100 11.5 100.1 11.4L100 11.5C100.1 11.5 100.2 11.5 100.3 11.5C100.2 11.6 100.1 11.6 100 11.7C100.1 11.7 100.1 11.7 100.2 11.7C100.3 11.6 100.4 11.6 100.5 11.5C100.9 11.5 101.2 11.6 101.6 11.5C101.6 11.5 101.6 11.5 101.6 11.6C101.3 11.7 100.5 11.8 100.5 11.6C100.3 11.7 100.3 11.7 100.2 11.8C100.1 11.7 99.9 11.7 99.7 11.7C99.8 11.7 99.7 11.7 99.7 11.7ZM99.3 11.7C99.3 11.7 99.3 11.6 99.3 11.7C99.4 11.6 99.4 11.6 99.4 11.6L99.3 11.7ZM94.8 11.7C94.8 11.7 94.9 11.7 95 11.7C95.1 11.6 95.1 11.6 95.2 11.5C95 11.6 94.8 11.7 94.5 11.7C94.5 11.6 94.3 11.6 94.2 11.5L94.1 11.6C94.2 11.7 94 11.6 94 11.7C94.3 11.6 94.6 11.7 94.8 11.7ZM93.8 11.6C94 11.5 94.2 11.4 94.4 11.3C94.3 11.3 94.2 11.4 94.1 11.4C93.9 11.5 93.8 11.6 93.8 11.6C93.7 11.6 93.8 11.6 93.8 11.6ZM101.9 11.5C102 11.5 102 11.4 102.1 11.4C102 11.4 102 11.4 102 11.3C101.9 11.3 101.9 11.4 101.8 11.4C101.7 11.5 101.8 11.5 101.9 11.5ZM99.2 11.5C99.2 11.4 99.3 11.4 99.1 11.4C99 11.4 99 11.5 98.9 11.5C99.1 11.5 99.1 11.5 99.2 11.5ZM93.6 11.5H93.7L93.8 11.4H93.9C93.9 11.4 93.8 11.5 93.7 11.5C93.7 11.5 93.7 11.5 93.6 11.5ZM102.8 11.5C102.8 11.4 102.8 11.4 102.8 11.5C102.9 11.5 102.9 11.5 103 11.5C102.9 11.5 102.8 11.5 102.8 11.5ZM102.4 11.5C102.5 11.4 102.5 11.4 102.4 11.5C102.5 11.4 102.5 11.4 102.6 11.4C102.7 11.4 102.7 11.4 102.7 11.5C102.6 11.5 102.5 11.5 102.4 11.5ZM92.5 11.4L92.6 11.3H92.7C92.8 11.3 92.8 11.3 92.9 11.3C92.9 11.3 92.8 11.3 92.6 11.4C92.7 11.4 92.7 11.4 92.5 11.4ZM96.5 11.2C96.4 11.2 96.3 11.2 96.3 11.2C96.4 11.1 96.6 11.1 96.7 11C96.9 11 96.9 11.2 97.2 11.1C97.2 11.1 97.1 11.2 97 11.2C96.8 11.2 96.9 11.2 96.7 11.3C96.6 11.2 96.5 11.2 96.5 11.2ZM95.9 11.2C96 11.2 96.1 11.1 96.1 11.1L96.2 11C96.1 11 96.1 11.1 96 11.1C96 11.1 96.1 11 96.2 11C96.3 11 96.3 11.1 96.2 11.1C96.1 11.2 96 11.2 95.9 11.2ZM95.1 11.2L95.2 11.1C95.1 11.1 94.9 11.2 94.8 11.2C94.8 11.2 94.8 11.2 94.8 11.1C94.3 11.1 93.7 11 93.2 11C93.3 11 93.3 11 93.4 11C93.5 10.9 93.7 10.8 93.8 10.8L93.7 10.9C94 10.8 94.4 10.9 94.4 11.1C94.5 11.1 94.6 11 94.8 11C94.8 11.1 95.1 11.1 95.2 11.2C95.3 11.1 95.5 11.1 95.6 11H95.7C95.6 11.1 95.5 11.1 95.4 11.2C95.5 11.2 95.6 11.2 95.6 11.2C95.5 11.2 95.5 11.3 95.4 11.3C95.4 11.2 95.3 11.2 95.1 11.2ZM95.8 11.2C95.8 11.2 95.9 11.1 96 11C95.9 11 95.8 11.1 95.8 11.2C95.8 11.2 95.7 11.1 95.8 11.2ZM94.1 11C94.1 11.1 94 11.1 94.1 11C94.1 11.1 94.2 11 94.1 11ZM95.7 11.1L95.8 11C95.8 11 95.8 11 95.7 11.1C95.7 11 95.7 11 95.7 11.1ZM94.4 11C94.3 11 94.3 11 94.3 11.1C94.3 11 94.3 11 94.4 11ZM93.3 11C93.3 11 93.4 10.9 93.3 11C93.4 11 93.5 10.9 93.6 10.9L93.5 11C93.4 11 93.4 11 93.3 11ZM95.4 10.7C95.5 10.6 95.4 10.7 95.4 10.7C95.4 10.6 95.4 10.7 95.4 10.7Z" fill="#6FC06A"/>
<path d="M19.7 29.7H16.4L12.6 17.3L8.8 29.7H5.5L0 9.20001H4.2L7.4 22.1L11.1 9.20001H14.1L17.9 22.1L21.1 9.20001H25.2L19.7 29.7Z" fill="#1C384A"/>
<path d="M37.7999 29.7L36.5999 26.1H29.2999L28.0999 29.7H23.8999L31.3999 9.20001H34.4999L41.9999 29.7H37.7999ZM32.9999 15.3L30.3999 22.8H35.4999L32.9999 15.3Z" fill="#1C384A"/>
<path d="M57.8 27.8C56.4 29.2 54.5 29.8 52.4 29.8H45V9.20001H52.4C54.5 9.20001 56.5 9.80001 57.8 11.2C60.1 13.5 59.9 16.3 59.9 19.4C59.8 22.5 60.1 25.5 57.8 27.8ZM55 14C54.3 13.2 53.4 12.7 52 12.7H49V26.1H52C53.4 26.1 54.3 25.7 55 24.8C55.8 23.9 55.9 22.4 55.9 19.3C55.8 16.3 55.7 15 55 14Z" fill="#1C384A"/>
<path d="M75.0001 29.7L73.8001 26.1H66.5001L65.3001 29.7H61.1001L68.6001 9.20001H71.7001L79.2001 29.7H75.0001ZM70.2001 15.3L67.6001 22.8H72.7001L70.2001 15.3Z" fill="#1C384A"/>
<path d="M143.1 29.8L141.9 26.1H134.5L133.2 29.8H128.9L136.5 8.90002H139.7L147.3 29.8H143.1ZM138.2 15L135.6 22.6H140.8L138.2 15Z" fill="#1C384A"/>
<path d="M164.8 29.8V17.6L160.8 25.5H158.1L154.1 17.6V29.8H150V8.79999H154L159.5 20.2L164.9 8.79999H168.9V29.8H164.8Z" fill="#1C384A"/>
<path d="M185.7 29.8L184.5 26.1H177.1L175.8 29.8H171.5L179.1 8.90002H182.3L189.9 29.8H185.7ZM180.9 15L178.3 22.6H183.5L180.9 15Z" fill="#1C384A"/>
</svg>
