<svg class="ACLogo" xmlns="http://www.w3.org/2000/svg" viewBox="0 0 626.2 77.2" role="img" aria-label="AddictionCenter Logo" fill="#ffffff">
    <g class="ACLogo__icon"> 
        <path d="M64.4,25.7H51.5v12.9c0,7.1-5.8,12.9-12.9,12.9c-7.1,0-12.9-5.8-12.9-12.9v-8.4l12.9-4.5l0,0l12.9-4.5v-8.4C51.5,5.8,45.7,0,38.6,0c-7.1,0-12.9,5.8-12.9,12.9v12.9H12.9C5.8,25.7,0,31.5,0,38.6v0c0,7.1,5.8,12.9,12.9,12.9h12.9v12.9c0,7.1,5.8,12.9,12.9,12.9l0,0c7.1,0,12.9-5.8,12.9-12.9V51.5h12.9c7.1,0,12.9-5.8,12.9-12.9v0C77.2,31.5,71.4,25.7,64.4,25.7z"></path> 
    </g> 
    <g class="ACLogo__type"> 
        <path d="M142.7,60h-7.6c-0.8,0-1.5-0.2-2.1-0.6c-0.5-0.4-0.9-1-1.2-1.6L127.9,47h-21.8l-3.9,10.7c-0.2,0.6-0.6,1.1-1.1,1.5c-0.6,0.5-1.2,0.7-2.1,0.7h-7.6L112,7.4h10L142.7,60z M108.6,40.1h16.8L119,22.6c-0.3-0.8-0.6-1.7-1-2.7c-0.3-1.1-0.7-2.2-1-3.4c-0.3,1.2-0.7,2.4-1,3.5c-0.3,1.1-0.6,2-1,2.8L108.6,40.1z"></path> 
        <path d="M172.9,60c-1.2,0-1.9-0.5-2.3-1.6l-0.8-3.6c-0.8,0.9-1.6,1.7-2.4,2.4c-0.8,0.7-1.8,1.3-2.7,1.8c-1,0.5-2,0.9-3.2,1.2c-1.1,0.3-2.3,0.4-3.7,0.4c-2,0-3.9-0.4-5.6-1.3s-3.2-2.1-4.4-3.7c-1.2-1.6-2.2-3.6-2.8-6c-0.7-2.4-1-5.1-1-8.2c0-2.8,0.4-5.3,1.1-7.7c0.8-2.4,1.8-4.4,3.2-6.2c1.4-1.7,3.1-3.1,5.1-4.1s4.2-1.5,6.6-1.5c2.1,0,3.9,0.3,5.3,1c1.5,0.7,2.8,1.6,4,2.7V5.9h9V60H172.9z M160.9,53.4c1.9,0,3.5-0.4,4.8-1.2c1.3-0.8,2.5-1.9,3.7-3.3V32.2c-1-1.2-2.1-2.1-3.3-2.6c-1.2-0.5-2.5-0.8-3.9-0.8c-1.4,0-2.6,0.3-3.7,0.8c-1.1,0.5-2,1.3-2.8,2.3c-0.8,1-1.4,2.3-1.8,3.9c-0.4,1.6-0.6,3.5-0.6,5.6c0,2.2,0.2,4,0.5,5.5c0.4,1.5,0.9,2.8,1.5,3.7c0.7,1,1.5,1.6,2.4,2.1C158.7,53.2,159.7,53.4,160.9,53.4z"></path> 
        <path d="M214.2,60c-1.2,0-1.9-0.5-2.3-1.6l-0.8-3.6c-0.8,0.9-1.6,1.7-2.4,2.4c-0.8,0.7-1.8,1.3-2.7,1.8c-1,0.5-2,0.9-3.2,1.2c-1.1,0.3-2.3,0.4-3.7,0.4c-2,0-3.9-0.4-5.6-1.3s-3.2-2.1-4.4-3.7c-1.2-1.6-2.2-3.6-2.8-6c-0.7-2.4-1-5.1-1-8.2c0-2.8,0.4-5.3,1.1-7.7c0.8-2.4,1.8-4.4,3.2-6.2c1.4-1.7,3.1-3.1,5.1-4.1s4.2-1.5,6.6-1.5c2.1,0,3.9,0.3,5.3,1c1.5,0.7,2.8,1.6,4,2.7V5.9h9V60H214.2z M202.2,53.4c1.9,0,3.5-0.4,4.8-1.2c1.3-0.8,2.5-1.9,3.7-3.3V32.2c-1-1.2-2.1-2.1-3.3-2.6c-1.2-0.5-2.5-0.8-3.9-0.8c-1.4,0-2.6,0.3-3.7,0.8c-1.1,0.5-2,1.3-2.8,2.3c-0.8,1-1.4,2.3-1.8,3.9c-0.4,1.6-0.6,3.5-0.6,5.6c0,2.2,0.2,4,0.5,5.5c0.4,1.5,0.9,2.8,1.5,3.7c0.7,1,1.5,1.6,2.4,2.1C200,53.2,201,53.4,202.2,53.4z"></path> 
        <path d="M239.1,11.8c0,0.8-0.2,1.5-0.5,2.2c-0.3,0.7-0.7,1.3-1.3,1.8c-0.5,0.5-1.1,0.9-1.8,1.2c-0.7,0.3-1.5,0.5-2.3,0.5c-0.8,0-1.5-0.2-2.2-0.5c-0.7-0.3-1.3-0.7-1.8-1.2c-0.5-0.5-0.9-1.1-1.2-1.8c-0.3-0.7-0.5-1.4-0.5-2.2c0-0.8,0.2-1.6,0.5-2.3c0.3-0.7,0.7-1.3,1.2-1.8c0.5-0.5,1.1-0.9,1.8-1.2s1.4-0.5,2.2-0.5c0.8,0,1.6,0.2,2.3,0.5c0.7,0.3,1.3,0.7,1.8,1.2c0.5,0.5,0.9,1.1,1.3,1.8C238.9,10.2,239.1,11,239.1,11.8z M237.9,22.7V60h-9V22.7H237.9z"></path> 
        <path d="M273.8,30.6c-0.3,0.3-0.5,0.6-0.8,0.8c-0.3,0.2-0.6,0.3-1.1,0.3c-0.5,0-0.9-0.1-1.3-0.4c-0.4-0.3-1-0.6-1.6-0.9c-0.6-0.4-1.3-0.7-2.2-0.9c-0.8-0.3-1.9-0.4-3.1-0.4c-1.6,0-3,0.3-4.1,0.9c-1.2,0.6-2.2,1.4-3,2.5c-0.8,1.1-1.4,2.4-1.8,3.9c-0.4,1.5-0.6,3.2-0.6,5.1c0,2,0.2,3.8,0.6,5.3s1,2.9,1.8,3.9c0.8,1.1,1.8,1.9,2.9,2.4c1.1,0.5,2.4,0.8,3.9,0.8s2.6-0.2,3.5-0.5c0.9-0.4,1.6-0.7,2.2-1.2c0.6-0.4,1.1-0.8,1.6-1.2c0.4-0.4,1-0.5,1.5-0.5c0.7,0,1.3,0.3,1.6,0.8l2.6,3.3c-1,1.2-2.1,2.1-3.2,2.9c-1.2,0.8-2.4,1.4-3.6,1.9c-1.2,0.5-2.5,0.8-3.9,1c-1.3,0.2-2.6,0.3-3.9,0.3c-2.3,0-4.5-0.4-6.5-1.3c-2-0.9-3.8-2.1-5.3-3.8s-2.7-3.7-3.6-6.1c-0.9-2.4-1.3-5.1-1.3-8.2c0-2.7,0.4-5.3,1.2-7.6c0.8-2.3,1.9-4.4,3.5-6.1c1.5-1.7,3.4-3.1,5.7-4c2.3-1,4.9-1.5,7.8-1.5c2.8,0,5.2,0.4,7.3,1.3c2.1,0.9,4,2.2,5.7,3.9L273.8,30.6z"></path> 
        <path d="M294.5,60.6c-3.3,0-5.7-0.9-7.5-2.7c-1.7-1.8-2.6-4.4-2.6-7.6V29.4h-3.8c-0.5,0-0.9-0.2-1.2-0.5c-0.3-0.3-0.5-0.8-0.5-1.4v-3.6l6-1l1.9-10.2c0.1-0.5,0.4-0.9,0.7-1.1c0.3-0.3,0.8-0.4,1.3-0.4h4.7V23h26.3v37h-9V29.4h-17.3v20.2c0,1.2,0.3,2.1,0.9,2.7c0.6,0.7,1.4,1,2.3,1c0.6,0,1-0.1,1.4-0.2c0.4-0.1,0.7-0.3,1-0.4s0.5-0.3,0.7-0.4c0.2-0.1,0.4-0.2,0.7-0.2c0.3,0,0.5,0.1,0.7,0.2c0.2,0.1,0.4,0.3,0.5,0.6l2.7,4.4c-1.3,1.1-2.8,1.9-4.5,2.5S296.4,60.6,294.5,60.6z M321.3,11.6c0,0.8-0.2,1.5-0.5,2.2c-0.3,0.7-0.7,1.3-1.3,1.8c-0.5,0.5-1.1,0.9-1.9,1.2c-0.7,0.3-1.5,0.5-2.3,0.5c-0.8,0-1.5-0.2-2.2-0.5c-0.7-0.3-1.3-0.7-1.8-1.2c-0.5-0.5-0.9-1.1-1.2-1.8c-0.3-0.7-0.5-1.4-0.5-2.2c0-0.8,0.2-1.5,0.5-2.2c0.3-0.7,0.7-1.3,1.2-1.8c0.5-0.5,1.1-0.9,1.8-1.2c0.7-0.3,1.4-0.5,2.2-0.5c0.8,0,1.6,0.2,2.3,0.5c0.7,0.3,1.3,0.7,1.9,1.2c0.5,0.5,0.9,1.1,1.3,1.8C321.2,10.1,321.3,10.8,321.3,11.6z"></path> 
        <path d="M345.5,22.1c2.8,0,5.3,0.4,7.5,1.3c2.3,0.9,4.2,2.2,5.8,3.8c1.6,1.6,2.9,3.7,3.7,6c0.9,2.4,1.3,5,1.3,8c0,3-0.4,5.6-1.3,8s-2.1,4.4-3.7,6.1s-3.6,3-5.8,3.9c-2.3,0.9-4.8,1.3-7.5,1.3c-2.8,0-5.3-0.4-7.6-1.3c-2.3-0.9-4.2-2.2-5.8-3.9c-1.6-1.7-2.9-3.7-3.7-6.1s-1.3-5-1.3-8c0-2.9,0.4-5.6,1.3-8c0.9-2.4,2.1-4.4,3.7-6c1.6-1.6,3.6-2.9,5.8-3.8C340.1,22.5,342.7,22.1,345.5,22.1z M345.5,53.6c3.1,0,5.4-1,6.9-3.1c1.5-2.1,2.2-5.1,2.2-9.2c0-4-0.7-7.1-2.2-9.2c-1.5-2.1-3.8-3.2-6.9-3.2c-3.2,0-5.5,1.1-7,3.2c-1.5,2.1-2.3,5.2-2.3,9.2c0,4,0.8,7.1,2.3,9.2C340,52.6,342.3,53.6,345.5,53.6z"></path> 
        <path d="M370.7,60V22.7h5.5c1.2,0,1.9,0.5,2.3,1.6l0.6,2.9c0.8-0.8,1.5-1.5,2.4-2.1c0.8-0.6,1.7-1.2,2.7-1.6c0.9-0.5,1.9-0.8,3-1.1c1.1-0.2,2.2-0.4,3.5-0.4c2,0,3.8,0.3,5.4,1c1.6,0.7,2.9,1.7,3.9,2.9c1.1,1.2,1.9,2.7,2.4,4.5c0.5,1.7,0.8,3.6,0.8,5.7V60h-9V36.2c0-2.3-0.5-4-1.6-5.3c-1-1.2-2.6-1.9-4.8-1.9c-1.6,0-3,0.4-4.4,1.1c-1.4,0.7-2.6,1.7-3.9,2.9v27H370.7z"></path> 
        <path d="M448.6,47.6c0.5,0,1,0.2,1.4,0.6l3.9,4.2c-2.1,2.6-4.8,4.7-7.9,6.1c-3.1,1.4-6.9,2.1-11.2,2.1c-3.9,0-7.4-0.7-10.5-2c-3.1-1.3-5.8-3.2-8-5.6c-2.2-2.4-3.9-5.2-5.1-8.5c-1.2-3.3-1.8-6.9-1.8-10.8c0-4,0.6-7.6,1.9-10.9c1.3-3.3,3-6.1,5.3-8.5c2.3-2.4,5-4.2,8.2-5.5c3.2-1.3,6.7-2,10.6-2c3.8,0,7.2,0.6,10.2,1.9c3,1.3,5.5,2.9,7.6,4.9l-3.3,4.5c-0.2,0.3-0.4,0.5-0.7,0.8c-0.3,0.2-0.7,0.3-1.3,0.3c-0.4,0-0.7-0.1-1.1-0.3c-0.4-0.2-0.8-0.5-1.3-0.8c-0.5-0.3-1-0.6-1.6-1c-0.6-0.4-1.3-0.7-2.1-1c-0.8-0.3-1.7-0.6-2.8-0.8c-1.1-0.2-2.3-0.3-3.7-0.3c-2.4,0-4.5,0.4-6.5,1.3c-2,0.8-3.6,2.1-5,3.6c-1.4,1.6-2.5,3.5-3.3,5.8c-0.8,2.3-1.2,4.9-1.2,7.8c0,3,0.4,5.6,1.3,7.9c0.8,2.3,2,4.2,3.4,5.8c1.4,1.6,3.1,2.8,5.1,3.6c1.9,0.8,4,1.3,6.3,1.3c1.3,0,2.5-0.1,3.6-0.2s2.1-0.4,3-0.7c0.9-0.3,1.8-0.7,2.6-1.2c0.8-0.5,1.6-1.1,2.4-1.8c0.2-0.2,0.5-0.4,0.8-0.5C448.1,47.6,448.3,47.6,448.6,47.6z"></path> 
        <path d="M474.4,22.1c2.4,0,4.5,0.4,6.5,1.1c2,0.8,3.7,1.9,5.1,3.3c1.4,1.4,2.6,3.2,3.4,5.3c0.8,2.1,1.2,4.5,1.2,7.2c0,1.4-0.1,2.3-0.4,2.7s-0.8,0.7-1.7,0.7h-23.1c0.1,1.9,0.5,3.6,1,5c0.5,1.4,1.2,2.5,2.1,3.5c0.9,0.9,1.9,1.6,3.1,2c1.2,0.4,2.5,0.7,4,0.7s2.7-0.2,3.8-0.5c1.1-0.3,2-0.7,2.8-1.1c0.8-0.4,1.5-0.8,2.1-1.1c0.6-0.3,1.2-0.5,1.7-0.5c0.8,0,1.3,0.3,1.7,0.8l2.6,3.3c-1,1.2-2.1,2.1-3.3,2.9s-2.5,1.4-3.9,1.9c-1.3,0.5-2.7,0.8-4.1,1c-1.4,0.2-2.7,0.3-4.1,0.3c-2.6,0-5-0.4-7.2-1.3c-2.2-0.9-4.2-2.1-5.8-3.8c-1.7-1.7-2.9-3.8-3.9-6.3s-1.4-5.4-1.4-8.6c0-2.5,0.4-4.9,1.2-7.2c0.8-2.2,2-4.2,3.5-5.9c1.5-1.7,3.4-3,5.6-3.9C469.1,22.6,471.6,22.1,474.4,22.1z M474.5,28.5c-2.6,0-4.7,0.7-6.1,2.2c-1.5,1.5-2.4,3.6-2.8,6.3h17c0-1.2-0.2-2.3-0.5-3.3c-0.3-1-0.8-1.9-1.5-2.7c-0.7-0.8-1.5-1.4-2.5-1.8C477,28.7,475.9,28.5,474.5,28.5z"></path> 
        <path d="M497.3,60V22.7h5.5c1.2,0,1.9,0.5,2.3,1.6l0.6,2.9c0.8-0.8,1.5-1.5,2.4-2.1c0.8-0.6,1.7-1.2,2.7-1.6c0.9-0.5,1.9-0.8,3-1.1c1.1-0.2,2.2-0.4,3.5-0.4c2,0,3.8,0.3,5.4,1c1.6,0.7,2.9,1.7,3.9,2.9c1.1,1.2,1.9,2.7,2.4,4.5c0.5,1.7,0.8,3.6,0.8,5.7V60h-9V36.2c0-2.3-0.5-4-1.6-5.3c-1-1.2-2.6-1.9-4.8-1.9c-1.6,0-3,0.4-4.4,1.1c-1.4,0.7-2.6,1.7-3.9,2.9v27H497.3z"></path> 
        <path d="M550.3,60.6c-3.3,0-5.7-0.9-7.5-2.7c-1.7-1.8-2.6-4.4-2.6-7.6V29.4h-3.8c-0.5,0-0.9-0.2-1.2-0.5c-0.3-0.3-0.5-0.8-0.5-1.4v-3.6l6-1l1.9-10.2c0.1-0.5,0.4-0.9,0.7-1.1c0.3-0.3,0.8-0.4,1.3-0.4h4.7V23h10v6.4h-10v20.2c0,1.2,0.3,2.1,0.9,2.7c0.6,0.7,1.4,1,2.3,1c0.6,0,1-0.1,1.4-0.2c0.4-0.1,0.7-0.3,1-0.4c0.3-0.1,0.5-0.3,0.7-0.4c0.2-0.1,0.4-0.2,0.7-0.2c0.3,0,0.5,0.1,0.7,0.2c0.2,0.1,0.4,0.3,0.5,0.6l2.7,4.4c-1.3,1.1-2.8,1.9-4.5,2.5S552.1,60.6,550.3,60.6z"></path> 
        <path d="M580.8,22.1c2.4,0,4.5,0.4,6.5,1.1c2,0.8,3.7,1.9,5.1,3.3c1.4,1.4,2.6,3.2,3.4,5.3c0.8,2.1,1.2,4.5,1.2,7.2c0,1.4-0.1,2.3-0.4,2.7s-0.8,0.7-1.7,0.7h-23.1c0.1,1.9,0.5,3.6,1,5c0.5,1.4,1.2,2.5,2.1,3.5c0.9,0.9,1.9,1.6,3.1,2c1.2,0.4,2.5,0.7,4,0.7s2.7-0.2,3.8-0.5c1.1-0.3,2-0.7,2.8-1.1c0.8-0.4,1.5-0.8,2.1-1.1c0.6-0.3,1.2-0.5,1.7-0.5c0.8,0,1.3,0.3,1.7,0.8l2.6,3.3c-1,1.2-2.1,2.1-3.3,2.9s-2.5,1.4-3.9,1.9c-1.3,0.5-2.7,0.8-4.1,1c-1.4,0.2-2.7,0.3-4.1,0.3c-2.6,0-5-0.4-7.2-1.3c-2.2-0.9-4.2-2.1-5.8-3.8c-1.7-1.7-2.9-3.8-3.9-6.3s-1.4-5.4-1.4-8.6c0-2.5,0.4-4.9,1.2-7.2c0.8-2.2,2-4.2,3.5-5.9c1.5-1.7,3.4-3,5.6-3.9C575.5,22.6,578,22.1,580.8,22.1z M581,28.5c-2.6,0-4.7,0.7-6.1,2.2c-1.5,1.5-2.4,3.6-2.8,6.3h17c0-1.2-0.2-2.3-0.5-3.3c-0.3-1-0.8-1.9-1.5-2.7c-0.7-0.8-1.5-1.4-2.5-1.8C583.5,28.7,582.3,28.5,581,28.5z"></path> 
        <path d="M603.8,60V22.7h5.3c0.9,0,1.6,0.2,1.9,0.5c0.4,0.3,0.6,0.9,0.7,1.8l0.5,4.2c1.2-2.2,2.6-4,4.2-5.3c1.6-1.3,3.5-1.9,5.7-1.9c1.7,0,3.1,0.4,4.1,1.1l-0.6,6.7c-0.1,0.4-0.3,0.7-0.5,0.9c-0.2,0.2-0.5,0.3-0.9,0.3c-0.4,0-0.9-0.1-1.6-0.2c-0.7-0.1-1.4-0.2-2.1-0.2c-1,0-1.9,0.1-2.7,0.4s-1.5,0.7-2.1,1.3c-0.6,0.5-1.2,1.2-1.6,2c-0.5,0.8-0.9,1.7-1.3,2.7v23H603.8z"></path> 
    </g> 
</svg>