<svg xmlns="http://www.w3.org/2000/svg" viewBox="0 0 818.93 129.89"><defs><style>.cls-1{fill:#fff;}</style></defs><title>gh-logo</title><g id="Layer_2" data-name="Layer 2"><g id="Layer_1-2" data-name="Layer 1"><path class="cls-1" d="M183.84,32.92H163.29a49.54,49.54,0,0,0-13.88-1.64C130,31.28,121.3,38,121.3,53.08c0,7.68,2.29,13.12,7,16.58a14.94,14.94,0,0,0-4.51,12.18,11.56,11.56,0,0,0,5.42,8.43l-.19.12c-8.76,4.52-10.47,10.47-10.47,19.2,0,15,8.26,20.3,31.54,20.3,22.4,0,30.72-5.54,30.72-20.43,0-10-2.65-16.62-15.85-18.77L138.9,86.17c-4.17-.74-6.86-2.5-7.77-5.08s0-5.77,2.29-8.75c4.17,1.52,9.36,2.26,15.85,2.26,19.51,0,27.84-6.43,27.84-21.52,0-6.11-1.28-10.62-4-14l10.36-.45a1.08,1.08,0,0,0,1-1l.41-3.56a1.06,1.06,0,0,0-.27-.85A1.08,1.08,0,0,0,183.84,32.92Zm-57.76,76.4c0-7.89,1.74-11.39,7.44-15l2.59-1.6,26.27,4.35c9.33,1.71,10.91,4.56,10.91,12.24,0,10.16-5.89,13.59-23.33,13.59C131.88,122.91,126.08,119.61,126.08,109.32Zm43.64-56.24c0,8.9-3.48,14.82-20.45,14.82-14.62,0-20.59-4.29-20.59-14.82,0-10.73,6-15.1,20.59-15.1C166.24,38,169.72,44,169.72,53.08Z"/><path class="cls-1" d="M225.4,31.28a190.26,190.26,0,0,0-28.5,2.44l-3.2.45a1.09,1.09,0,0,0-.93,1.22l.55,4.11a1.1,1.1,0,0,0,1.2.94,285.75,285.75,0,0,1,30.19-2c9.4,0,13.59,4.07,13.59,13.18v7.28H207.57c-11,0-17.55,6.3-17.55,16.86v8.23c0,11.42,7.12,18.24,19.06,18.24s23.6-6.68,29.81-12l.79,10a1.09,1.09,0,0,0,1.08,1h4.12a1.09,1.09,0,0,0,1.09-1.09V51.57C246,37.92,239.24,31.28,225.4,31.28Zm12.9,34.15V82.92c-7.85,7.12-20.07,12.23-28.66,12-8.07-.13-11.82-3.75-11.82-11.4V76.12c0-6.8,3.37-10.17,10.31-10.29Z"/><path class="cls-1" d="M344.19,31.28c-8.88,0-18.06,4-28,12.26-2.08-7.93-8.2-12.26-17.42-12.26-8.93,0-18,4-27.82,12.12L270.51,34a1.08,1.08,0,0,0-1.08-1h-4.26A1.08,1.08,0,0,0,264.09,34v66.12a1.08,1.08,0,0,0,1.08,1.09h5.36a1.08,1.08,0,0,0,1.08-1.09V50.46c10.86-8.17,17.51-12.07,25.53-12.07,8.54,0,12.35,4.07,12.35,13.18v48.56a1.09,1.09,0,0,0,1.09,1.09h5.35a1.09,1.09,0,0,0,1.09-1.09V50.46c10.85-8.17,17.5-12.07,25.52-12.07,8.42,0,12.23,4.07,12.36,13.18v48.56a1.09,1.09,0,0,0,1.09,1.09h5.35a1.08,1.08,0,0,0,1.08-1.09V50.47C362.42,38.09,356,31.28,344.19,31.28Z"/><path class="cls-1" d="M430.44,67c3-3.12,4.44-8.07,4.27-15.13-.29-13.63-9.61-20.54-27.7-20.54-21.61,0-30,10-30,35.52s9,36.06,31.13,36.06c7.55,0,19.4-1.15,24.35-2.8a1.09,1.09,0,0,0,.73-1.22L432.5,95a1.09,1.09,0,0,0-1.23-.88,165.7,165.7,0,0,1-22.48,1.63c-16.65,0-23-6.53-23.83-24.85h34.12C424.12,70.9,427.84,69.61,430.44,67ZM384.93,64.2c.33-19.27,6.07-25.81,22.36-25.81,13.63,0,19.5,4.11,19.62,13.76.17,4.76-.65,8-2.49,9.9C423,63.5,421,64.2,418.26,64.2Z"/><path class="cls-1" d="M487.94,31.28H485.2c-8.82,0-18.39,4-29.22,12.26L455.42,34a1.09,1.09,0,0,0-1.09-1h-4.11A1.09,1.09,0,0,0,449.13,34v66.12a1.09,1.09,0,0,0,1.09,1.09h5.35a1.09,1.09,0,0,0,1.09-1.09V50.24c10.9-7,18.79-11.58,27.72-11.58h2.74a1.07,1.07,0,0,0,1.07-.91l.83-5.22a1.07,1.07,0,0,0-.25-.87A1.1,1.1,0,0,0,487.94,31.28Z"/><path class="cls-1" d="M501.52,0h-1.78c-1.5,0-3.29.59-3.29,3.42v8.44a2.84,2.84,0,0,0,.67,2.21,2.45,2.45,0,0,0,.84.63,126.64,126.64,0,0,1-.81,14.4,1.09,1.09,0,0,0,.7,1.13l2.61,1a1,1,0,0,0,.37.07,1.13,1.13,0,0,0,.48-.11,1.11,1.11,0,0,0,.56-.64,68.68,68.68,0,0,0,2.93-18.45V3.42C504.8,1.12,503.73,0,501.52,0Z"/><path class="cls-1" d="M548.18,64.9l-21.54-3.16c-6.19-.86-9.77-3.05-9.77-11.68,0-4.7.78-7.56,2.51-9.26,2.67-2.62,7.93-2.71,16.28-2.55,8.16.14,17.25.56,25.06,1a1.08,1.08,0,0,0,1.14-.94l.55-4a1.11,1.11,0,0,0-.93-1.23,235.83,235.83,0,0,0-26.33-1.79c-10.74-.19-17.34.49-21.46,4.54-3,2.91-4.34,7.44-4.34,14.24,0,11.28,4.58,16.81,15.32,18.5h0l21.51,3.15c6.29,1.07,10.48,3.42,10.48,11.41,0,10.82-4.67,12.5-20.74,12.63a216,216,0,0,1-23.35-.82,1.07,1.07,0,0,0-1.16.94l-.55,4a1.08,1.08,0,0,0,.92,1.23,165.79,165.79,0,0,0,24.71,1.66c16.73,0,27.7-1.37,27.7-19.61C564.2,72.54,559.12,66.75,548.18,64.9Z"/><path class="cls-1" d="M621.13,29.91c-8.55,0-17.59,3.37-26.91,10a85.77,85.77,0,0,0,.7-11.13V4.11A1.08,1.08,0,0,0,593.84,3H577a1.08,1.08,0,0,0-1.08,1.09v96a1.08,1.08,0,0,0,1.08,1.09H593.7a1.09,1.09,0,0,0,1.09-1.09V54c8.51-4.93,14.73-7.77,21-7.77,4.46,0,6,1.29,6,8.51v45.41a1.09,1.09,0,0,0,1.09,1.09h16.73a1.09,1.09,0,0,0,1.09-1.09V49.65C640.74,36.92,633.78,29.91,621.13,29.91Z"/><rect class="cls-1" x="653.92" y="31.83" width="18.77" height="69.39" rx="1.09"/><rect class="cls-1" x="653.51" y="2.61" width="19.46" height="19.32" rx="5.89"/><path class="cls-1" d="M751.45,31.83h-17.7a1.11,1.11,0,0,0-1,.76L718.86,76.9l-3.34,10.89h-.13c-.64-2.48-1.38-5-2.11-7.49-.33-1.13-.66-2.26-1-3.41l-14-44.3a1.07,1.07,0,0,0-1-.76H679.7a1.08,1.08,0,0,0-1,1.46l23,63.15a6.56,6.56,0,0,0,6.54,4.78h14.54a6.8,6.8,0,0,0,6.63-4.67v0l23.05-63.23a1.08,1.08,0,0,0-1-1.46Z"/><path class="cls-1" d="M814.42,85.47a227.1,227.1,0,0,1-24,1.64c-10.44,0-15.22-1.77-16.73-12.51h26.2c12.47,0,19.06-7,19.06-20.29,0-16.65-10.07-24.4-31.68-24.4-24.18,0-33.6,10.22-33.6,36.47s9.73,36.48,34.69,36.48c4.35,0,19.24-.33,28.19-4.63a1.09,1.09,0,0,0,.6-1.13l-1.51-10.7A1.09,1.09,0,0,0,814.42,85.47Zm-41.13-24.7c.58-13.14,4.44-15.52,14.64-15.52,10.39,0,12.22,2.83,12.22,8.79,0,4.78-1.43,6.73-4.95,6.73Z"/><path class="cls-1" d="M91.44,71,70.78,35.2a4.7,4.7,0,0,0-4.09-2.37H25.38a4.7,4.7,0,0,0-4.09,2.37L.63,71a4.75,4.75,0,0,0,0,4.73l20.66,35.77a4.7,4.7,0,0,0,4.09,2.37H36.51a.84.84,0,0,0,.32.44L54.22,128a.88.88,0,0,0,1.39-.72V113.84H66.69a4.7,4.7,0,0,0,4.09-2.37L91.44,75.7A4.75,4.75,0,0,0,91.44,71ZM33.77,87.54H26.1V78H16.58V70.31l9.54,0V60.79H33.8v9.53l9.53,0V78H33.78ZM54,78.8a4.48,4.48,0,1,1,4.48-4.48A4.48,4.48,0,0,1,54,78.8Zm9.33,9.33a4.48,4.48,0,1,1,4.48-4.48A4.49,4.49,0,0,1,63.34,88.13Zm0-18.82a4.48,4.48,0,1,1,4.48-4.48A4.48,4.48,0,0,1,63.34,69.31Zm9.33,9.49a4.48,4.48,0,1,1,4.48-4.48A4.49,4.49,0,0,1,72.67,78.8Z"/></g></g></svg>