<svg xmlns="http://www.w3.org/2000/svg" width="1097.062" height="123" viewBox="0 0 1097.062 123">
  <defs>
    <style>
      .cls-1 {
        fill: #fff;
        fill-rule: evenodd;
      }
    </style>
  </defs>
  <path class="cls-1" d="M356.955,1144.28a19.177,19.177,0,1,0-19.469-19.18A19.337,19.337,0,0,0,356.955,1144.28Zm-30.5,79.32v-17.02l-17.326,4.75a11.175,11.175,0,0,1-4.1.78,11.026,11.026,0,0,1-11.1-10.93,10.772,10.772,0,0,1,1.9-6.12l27.794-37.52c3.015-4.07,7.232-8.61,16.117-8.61h33.6c8.885,0,13.1,4.54,16.114,8.61l27.79,37.52a10.782,10.782,0,0,1,1.9,6.12,11.029,11.029,0,0,1-11.1,10.93,11.165,11.165,0,0,1-4.1-.78l-17.329-4.75v17.02H326.459Zm30.086-11.89h0L379,1204.39l-0.5-.13c-15.49-4.49-9.46-24.65,6.031-20.15l2.114,0.7v-22.75l-30.091,9.68-30.091-9.68v22.75l2.108-.69c15.5-4.5,21.532,15.65,6.03,20.14l-0.5.14,22.45,7.31h0Zm159,11.89v-74.36l-30.356,74.36h-3.162l-30.86-74.36v74.36h-5.06v-80.58h7.969l29.849,72.11,29.849-72.11h7.336v80.58h-5.565Zm30.113-27.28c0,13.57,4.174,24.41,18.341,24.41,6.7,0,11.888-1.99,17.833-5.11l1.517,4.61a47.458,47.458,0,0,1-20.363,4.61c-16.821,0-23.018-13.33-23.018-29.14,0-13.2,5.185-30.27,22.765-30.27,18.719,0,22.765,13.95,22.765,30.89H545.66Zm17.075-26.78c-11.13,0-16.441,8.97-17.2,22.67h34.908C580.441,1177.26,575.385,1169.54,562.735,1169.54Zm53.635,55.3c-6.7,0-13.533-.99-18.593-3.49l1.9-4.48c7.336,3.11,9.991,3.86,17.2,3.86,7.969,0,13.535-4.11,13.535-12.2,0-7.98-7.209-10.09-15.053-12.46-8.726-2.62-17.707-5.73-17.707-15.19,0-11.21,9.234-15.45,21-15.45,4.933,0,9.361,1.37,16.317,3.74l-1.9,4.48c-5.566-2.36-8.6-4.11-15.556-4.11-7.589,0-14.294,2.74-14.294,10.96,0,6.35,6.2,8.35,13.28,10.47,9.234,2.73,19.479,5.35,19.479,17.43C635.974,1219.24,627.247,1224.84,616.37,1224.84Zm56.036,0c-18.466,0-24.031-13.45-24.031-30.01,0-15.69,5.565-29.4,24.031-29.4s23.9,13.08,23.9,29.4C696.309,1211.39,690.872,1224.84,672.406,1224.84Zm0-55.3c-13.786,0-18.466,11.34-18.466,25.29s3.668,25.9,18.466,25.9c15.3,0,18.339-11.96,18.339-25.9S687.078,1169.54,672.406,1169.54Zm60.083,59.41c-12.9-2.37-19.352-8.34-19.352-19.06v-39.1h-8.726v-4.11h8.726v-14.2h5.185v14.2h13.155v4.11H718.322v39.1c0,8.1,4.428,12.46,15.558,14.33Zm48.316-5.35v-34.13c0-11.83-2.529-19.93-14.545-19.93-8.98,0-15.176,8.47-16.314,12.83v41.23h-5.06v-81.83h5.186v33.88c2.656-4.99,9.359-10.22,17.074-10.22,14.8,0,18.845,10.47,18.845,21.3v36.87h-5.186Zm26.189-27.28c0,13.57,4.174,24.41,18.34,24.41,6.7,0,11.887-1.99,17.833-5.11l1.518,4.61a47.462,47.462,0,0,1-20.364,4.61c-16.82,0-23.018-13.33-23.018-29.14,0-13.2,5.184-30.27,22.765-30.27,18.719,0,22.765,13.95,22.765,30.89H806.994Zm17.074-26.78c-11.13,0-16.442,8.97-17.2,22.67h34.907C841.774,1177.26,836.716,1169.54,824.068,1169.54Zm38.457,54.06v-81.83h5.186v81.83h-5.186Zm23.148-72.12v-8.46h6.072v8.46h-6.072Zm0.5,72.12v-56.92h5.187v56.92h-5.187Zm44.65,1.24c-18.467,0-24.031-13.45-24.031-30.01,0-15.69,5.564-29.4,24.031-29.4s23.9,13.08,23.9,29.4C954.732,1211.39,949.294,1224.84,930.828,1224.84Zm0-55.3c-13.786,0-18.467,11.34-18.467,25.29s3.668,25.9,18.467,25.9c15.3,0,18.339-11.96,18.339-25.9S945.5,1169.54,930.828,1169.54ZM1041.5,1223.6v-36.12c0-8.47-1.77-17.94-14.92-17.94-7.59,0-13.79,7.47-15.94,13.33v40.73h-5.18v-36.12c0-10.84-4.81-17.94-14.423-17.94-7.589,0-13.785,6.98-15.81,12.71v41.35h-5.185v-43.84c0-4.74-.632-8.85-1.012-13.08H973.2l1.77,8.97c2.657-3.86,7.588-10.22,16.822-10.22,10.374,0,15.3,6.11,17.324,12.58,3.29-5.23,8.48-12.58,17.96-12.58,12.78,0,19.61,6.61,19.61,21.8v36.37h-5.19Zm59.59,0c-0.13-1.38-1.78-5.24-2.03-7.23-2.91,4.73-8.85,8.47-16.82,8.47-10.12,0-20.24-4.73-20.24-16.19,0-11.58,6.07-19.05,30.61-19.05h5.95v-5.24c0-9.34-3.67-14.82-13.28-14.82-7.97,0-13.41,2.25-18.85,4.86l-1.9-4.48c6.2-2.37,12.02-4.49,20.62-4.49,11.38,0,18.59,5.86,18.59,18.31v22.42c0,4.48.76,10.21,1.52,17.44h-4.17Zm-2.41-29.77h-4.3c-20.49,0-26.81,4.24-26.81,14.7,0,7.22,5.06,12.2,14.67,12.2,7.46,0,13.66-3.61,16.44-9.09v-17.81Zm55.14,31.88c-27.32,0-34.41-20.67-34.41-42.47,0-24.78,10-41.59,35.54-41.59,5.7,0,13.03,1.49,18.85,2.98l-3.16,7.98c-4.93-2.12-9.99-3.87-15.56-3.87-17.71,0-26.05,11.09-26.05,34.5,0,19.43,4.93,35.37,25.17,35.37,6.07,0,11.51-2.36,16.31-4.98v-22.66h-18.09v-7.23h26.44v35C1170.38,1222.97,1164.06,1225.71,1153.82,1225.71Zm79.18-2.11-1.9-8.47c-2.27,2.61-6.83,9.83-15.93,9.83-14.8,0-19.48-9.34-19.48-22.42v-35.86h8.22v35.37c0,8.72,1.52,16.56,12.4,16.56,7.58,0,12.39-6.85,14.41-12.08v-39.85h8.23v44.83c0,4.74.88,7.6,1.26,12.09H1233Zm23.53-70.87v-9.71h9.11v9.71h-9.11Zm0.51,70.87v-56.92h8.22v56.92h-8.22Zm64.5,0-1.9-6.73a18.284,18.284,0,0,1-15.05,8.09c-18.21,0-24.4-13.82-24.4-30.13,0-15.94,7.96-29.52,23.14-29.52,7.72,0,13.28,5.23,15.94,9.59v-33.13h8.22v64.39c0,7.22.5,10.34,1.26,17.44h-7.21Zm-2.02-39.73c-1.9-3.99-5.82-12.21-15.05-12.21-8.48,0-15.68,6.73-15.68,23.42,0,15.06,4.8,23.53,16.56,23.53,5.95,0,10.75-2.86,14.17-8.72v-26.02Zm31.63,14.07c0.38,12.08,4.8,20.8,16.82,20.8,6.32,0,12.01-1.75,17.96-4.86l2.53,6.73a51.6,51.6,0,0,1-21.51,4.35c-17.45,0-24.66-13.45-24.66-29.26,0-13.2,5.31-30.39,24.16-30.39,19.1,0,24.54,13.33,24.54,32.63h-39.84Zm15.43-26.28c-8.98,0-14.93,6.85-15.56,19.93h31.75C1382.51,1178.01,1377.45,1171.66,1366.58,1171.66Z" transform="translate(-293.938 -1105.94)"/>
</svg>
