<svg class="ACLogo" xmlns="http://www.w3.org/2000/svg" viewBox="0 0 626.2 77.2" aria-label="AddictionCenter Logo" fill="#fff"><path d="M64.4 25.7H51.5v12.9c0 7.1-5.8 12.9-12.9 12.9-7.1 0-12.9-5.8-12.9-12.9v-8.4l12.9-4.5 12.9-4.5v-8.4c0-7-5.8-12.8-12.9-12.8-7.1 0-12.9 5.8-12.9 12.9v12.9H12.9C5.8 25.7 0 31.5 0 38.6c0 7.1 5.8 12.9 12.9 12.9h12.9v12.9c0 7.1 5.8 12.9 12.9 12.9 7.1 0 12.9-5.8 12.9-12.9V51.5h12.9c7.1 0 12.9-5.8 12.9-12.9-.2-7.1-6-12.9-13-12.9zM142.7 60h-7.6c-.8 0-1.5-.2-2.1-.6-.5-.4-.9-1-1.2-1.6L127.9 47h-21.8l-3.9 10.7c-.2.6-.6 1.1-1.1 1.5-.6.5-1.2.7-2.1.7h-7.6L112 7.4h10L142.7 60zm-34.1-19.9h16.8L119 22.6c-.3-.8-.6-1.7-1-2.7-.3-1.1-.7-2.2-1-3.4-.3 1.2-.7 2.4-1 3.5-.3 1.1-.6 2-1 2.8l-6.4 17.3zM172.9 60c-1.2 0-1.9-.5-2.3-1.6l-.8-3.6c-.8.9-1.6 1.7-2.4 2.4-.8.7-1.8 1.3-2.7 1.8-1 .5-2 .9-3.2 1.2-1.1.3-2.3.4-3.7.4-2 0-3.9-.4-5.6-1.3s-3.2-2.1-4.4-3.7c-1.2-1.6-2.2-3.6-2.8-6-.7-2.4-1-5.1-1-8.2 0-2.8.4-5.3 1.1-7.7.8-2.4 1.8-4.4 3.2-6.2 1.4-1.7 3.1-3.1 5.1-4.1s4.2-1.5 6.6-1.5c2.1 0 3.9.3 5.3 1 1.5.7 2.8 1.6 4 2.7V5.9h9V60h-5.4zm-12-6.6c1.9 0 3.5-.4 4.8-1.2 1.3-.8 2.5-1.9 3.7-3.3V32.2c-1-1.2-2.1-2.1-3.3-2.6-1.2-.5-2.5-.8-3.9-.8s-2.6.3-3.7.8-2 1.3-2.8 2.3c-.8 1-1.4 2.3-1.8 3.9-.4 1.6-.6 3.5-.6 5.6 0 2.2.2 4 .5 5.5.4 1.5.9 2.8 1.5 3.7.7 1 1.5 1.6 2.4 2.1 1 .5 2 .7 3.2.7zm53.3 6.6c-1.2 0-1.9-.5-2.3-1.6l-.8-3.6c-.8.9-1.6 1.7-2.4 2.4-.8.7-1.8 1.3-2.7 1.8-1 .5-2 .9-3.2 1.2-1.1.3-2.3.4-3.7.4-2 0-3.9-.4-5.6-1.3s-3.2-2.1-4.4-3.7c-1.2-1.6-2.2-3.6-2.8-6-.7-2.4-1-5.1-1-8.2 0-2.8.4-5.3 1.1-7.7.8-2.4 1.8-4.4 3.2-6.2 1.4-1.7 3.1-3.1 5.1-4.1s4.2-1.5 6.6-1.5c2.1 0 3.9.3 5.3 1 1.5.7 2.8 1.6 4 2.7V5.9h9V60h-5.4zm-12-6.6c1.9 0 3.5-.4 4.8-1.2 1.3-.8 2.5-1.9 3.7-3.3V32.2c-1-1.2-2.1-2.1-3.3-2.6-1.2-.5-2.5-.8-3.9-.8s-2.6.3-3.7.8-2 1.3-2.8 2.3c-.8 1-1.4 2.3-1.8 3.9-.4 1.6-.6 3.5-.6 5.6 0 2.2.2 4 .5 5.5.4 1.5.9 2.8 1.5 3.7.7 1 1.5 1.6 2.4 2.1 1 .5 2 .7 3.2.7zm36.9-41.6c0 .8-.2 1.5-.5 2.2-.3.7-.7 1.3-1.3 1.8-.5.5-1.1.9-1.8 1.2-.7.3-1.5.5-2.3.5-.8 0-1.5-.2-2.2-.5-.7-.3-1.3-.7-1.8-1.2s-.9-1.1-1.2-1.8c-.3-.7-.5-1.4-.5-2.2 0-.8.2-1.6.5-2.3.3-.7.7-1.3 1.2-1.8s1.1-.9 1.8-1.2 1.4-.5 2.2-.5c.8 0 1.6.2 2.3.5.7.3 1.3.7 1.8 1.2s.9 1.1 1.3 1.8c.3.7.5 1.5.5 2.3zm-1.2 10.9V60h-9V22.7h9zm35.9 7.9c-.3.3-.5.6-.8.8-.3.2-.6.3-1.1.3-.5 0-.9-.1-1.3-.4-.4-.3-1-.6-1.6-.9-.6-.4-1.3-.7-2.2-.9-.8-.3-1.9-.4-3.1-.4-1.6 0-3 .3-4.1.9-1.2.6-2.2 1.4-3 2.5-.8 1.1-1.4 2.4-1.8 3.9-.4 1.5-.6 3.2-.6 5.1 0 2 .2 3.8.6 5.3s1 2.9 1.8 3.9c.8 1.1 1.8 1.9 2.9 2.4 1.1.5 2.4.8 3.9.8s2.6-.2 3.5-.5c.9-.4 1.6-.7 2.2-1.2.6-.4 1.1-.8 1.6-1.2.4-.4 1-.5 1.5-.5.7 0 1.3.3 1.6.8l2.6 3.3c-1 1.2-2.1 2.1-3.2 2.9-1.2.8-2.4 1.4-3.6 1.9-1.2.5-2.5.8-3.9 1-1.3.2-2.6.3-3.9.3-2.3 0-4.5-.4-6.5-1.3s-3.8-2.1-5.3-3.8-2.7-3.7-3.6-6.1c-.9-2.4-1.3-5.1-1.3-8.2 0-2.7.4-5.3 1.2-7.6.8-2.3 1.9-4.4 3.5-6.1 1.5-1.7 3.4-3.1 5.7-4 2.3-1 4.9-1.5 7.8-1.5 2.8 0 5.2.4 7.3 1.3 2.1.9 4 2.2 5.7 3.9l-2.5 3.3zm20.7 30c-3.3 0-5.7-.9-7.5-2.7-1.7-1.8-2.6-4.4-2.6-7.6V29.4h-3.8c-.5 0-.9-.2-1.2-.5-.3-.3-.5-.8-.5-1.4v-3.6l6-1 1.9-10.2c.1-.5.4-.9.7-1.1.3-.3.8-.4 1.3-.4h4.7V23h26.3v37h-9V29.4h-17.3v20.2c0 1.2.3 2.1.9 2.7.6.7 1.4 1 2.3 1 .6 0 1-.1 1.4-.2.4-.1.7-.3 1-.4s.5-.3.7-.4c.2-.1.4-.2.7-.2.3 0 .5.1.7.2.2.1.4.3.5.6l2.7 4.4c-1.3 1.1-2.8 1.9-4.5 2.5s-3.5.8-5.4.8zm26.8-49c0 .8-.2 1.5-.5 2.2-.3.7-.7 1.3-1.3 1.8-.5.5-1.1.9-1.9 1.2-.7.3-1.5.5-2.3.5-.8 0-1.5-.2-2.2-.5-.7-.3-1.3-.7-1.8-1.2s-.9-1.1-1.2-1.8c-.3-.7-.5-1.4-.5-2.2 0-.8.2-1.5.5-2.2.3-.7.7-1.3 1.2-1.8s1.1-.9 1.8-1.2c.7-.3 1.4-.5 2.2-.5.8 0 1.6.2 2.3.5.7.3 1.3.7 1.9 1.2.5.5.9 1.1 1.3 1.8s.5 1.4.5 2.2zm24.2 10.5c2.8 0 5.3.4 7.5 1.3 2.3.9 4.2 2.2 5.8 3.8 1.6 1.6 2.9 3.7 3.7 6 .9 2.4 1.3 5 1.3 8s-.4 5.6-1.3 8-2.1 4.4-3.7 6.1-3.6 3-5.8 3.9c-2.3.9-4.8 1.3-7.5 1.3-2.8 0-5.3-.4-7.6-1.3s-4.2-2.2-5.8-3.9c-1.6-1.7-2.9-3.7-3.7-6.1s-1.3-5-1.3-8c0-2.9.4-5.6 1.3-8 .9-2.4 2.1-4.4 3.7-6 1.6-1.6 3.6-2.9 5.8-3.8 2.2-.9 4.8-1.3 7.6-1.3zm0 31.5c3.1 0 5.4-1 6.9-3.1s2.2-5.1 2.2-9.2c0-4-.7-7.1-2.2-9.2-1.5-2.1-3.8-3.2-6.9-3.2-3.2 0-5.5 1.1-7 3.2s-2.3 5.2-2.3 9.2c0 4 .8 7.1 2.3 9.2 1.5 2.1 3.8 3.1 7 3.1zm25.2 6.4V22.7h5.5c1.2 0 1.9.5 2.3 1.6l.6 2.9c.8-.8 1.5-1.5 2.4-2.1.8-.6 1.7-1.2 2.7-1.6.9-.5 1.9-.8 3-1.1 1.1-.2 2.2-.4 3.5-.4 2 0 3.8.3 5.4 1 1.6.7 2.9 1.7 3.9 2.9 1.1 1.2 1.9 2.7 2.4 4.5.5 1.7.8 3.6.8 5.7V60h-9V36.2c0-2.3-.5-4-1.6-5.3-1-1.2-2.6-1.9-4.8-1.9-1.6 0-3 .4-4.4 1.1-1.4.7-2.6 1.7-3.9 2.9v27h-8.8zm77.9-12.4c.5 0 1 .2 1.4.6l3.9 4.2c-2.1 2.6-4.8 4.7-7.9 6.1-3.1 1.4-6.9 2.1-11.2 2.1-3.9 0-7.4-.7-10.5-2-3.1-1.3-5.8-3.2-8-5.6-2.2-2.4-3.9-5.2-5.1-8.5-1.2-3.3-1.8-6.9-1.8-10.8 0-4 .6-7.6 1.9-10.9 1.3-3.3 3-6.1 5.3-8.5 2.3-2.4 5-4.2 8.2-5.5 3.2-1.3 6.7-2 10.6-2 3.8 0 7.2.6 10.2 1.9 3 1.3 5.5 2.9 7.6 4.9l-3.3 4.5c-.2.3-.4.5-.7.8-.3.2-.7.3-1.3.3-.4 0-.7-.1-1.1-.3-.4-.2-.8-.5-1.3-.8-.5-.3-1-.6-1.6-1-.6-.4-1.3-.7-2.1-1-.8-.3-1.7-.6-2.8-.8-1.1-.2-2.3-.3-3.7-.3-2.4 0-4.5.4-6.5 1.3-2 .8-3.6 2.1-5 3.6-1.4 1.6-2.5 3.5-3.3 5.8-.8 2.3-1.2 4.9-1.2 7.8 0 3 .4 5.6 1.3 7.9.8 2.3 2 4.2 3.4 5.8 1.4 1.6 3.1 2.8 5.1 3.6 1.9.8 4 1.3 6.3 1.3 1.3 0 2.5-.1 3.6-.2s2.1-.4 3-.7c.9-.3 1.8-.7 2.6-1.2s1.6-1.1 2.4-1.8c.2-.2.5-.4.8-.5.3-.1.5-.1.8-.1zm25.8-25.5c2.4 0 4.5.4 6.5 1.1 2 .8 3.7 1.9 5.1 3.3 1.4 1.4 2.6 3.2 3.4 5.3.8 2.1 1.2 4.5 1.2 7.2 0 1.4-.1 2.3-.4 2.7s-.8.7-1.7.7h-23.1c.1 1.9.5 3.6 1 5s1.2 2.5 2.1 3.5c.9.9 1.9 1.6 3.1 2 1.2.4 2.5.7 4 .7s2.7-.2 3.8-.5c1.1-.3 2-.7 2.8-1.1.8-.4 1.5-.8 2.1-1.1.6-.3 1.2-.5 1.7-.5.8 0 1.3.3 1.7.8l2.6 3.3c-1 1.2-2.1 2.1-3.3 2.9s-2.5 1.4-3.9 1.9c-1.3.5-2.7.8-4.1 1-1.4.2-2.7.3-4.1.3-2.6 0-5-.4-7.2-1.3s-4.2-2.1-5.8-3.8c-1.7-1.7-2.9-3.8-3.9-6.3s-1.4-5.4-1.4-8.6c0-2.5.4-4.9 1.2-7.2.8-2.2 2-4.2 3.5-5.9 1.5-1.7 3.4-3 5.6-3.9 2.2-1 4.7-1.5 7.5-1.5zm.1 6.4c-2.6 0-4.7.7-6.1 2.2-1.5 1.5-2.4 3.6-2.8 6.3h17c0-1.2-.2-2.3-.5-3.3s-.8-1.9-1.5-2.7c-.7-.8-1.5-1.4-2.5-1.8-1.1-.5-2.2-.7-3.6-.7zM497.3 60V22.7h5.5c1.2 0 1.9.5 2.3 1.6l.6 2.9c.8-.8 1.5-1.5 2.4-2.1.8-.6 1.7-1.2 2.7-1.6.9-.5 1.9-.8 3-1.1 1.1-.2 2.2-.4 3.5-.4 2 0 3.8.3 5.4 1 1.6.7 2.9 1.7 3.9 2.9 1.1 1.2 1.9 2.7 2.4 4.5.5 1.7.8 3.6.8 5.7V60h-9V36.2c0-2.3-.5-4-1.6-5.3-1-1.2-2.6-1.9-4.8-1.9-1.6 0-3 .4-4.4 1.1-1.4.7-2.6 1.7-3.9 2.9v27h-8.8zm53 .6c-3.3 0-5.7-.9-7.5-2.7-1.7-1.8-2.6-4.4-2.6-7.6V29.4h-3.8c-.5 0-.9-.2-1.2-.5-.3-.3-.5-.8-.5-1.4v-3.6l6-1 1.9-10.2c.1-.5.4-.9.7-1.1.3-.3.8-.4 1.3-.4h4.7V23h10v6.4h-10v20.2c0 1.2.3 2.1.9 2.7.6.7 1.4 1 2.3 1 .6 0 1-.1 1.4-.2.4-.1.7-.3 1-.4.3-.1.5-.3.7-.4.2-.1.4-.2.7-.2.3 0 .5.1.7.2.2.1.4.3.5.6l2.7 4.4c-1.3 1.1-2.8 1.9-4.5 2.5s-3.6.8-5.4.8zm30.5-38.5c2.4 0 4.5.4 6.5 1.1 2 .8 3.7 1.9 5.1 3.3 1.4 1.4 2.6 3.2 3.4 5.3.8 2.1 1.2 4.5 1.2 7.2 0 1.4-.1 2.3-.4 2.7s-.8.7-1.7.7h-23.1c.1 1.9.5 3.6 1 5s1.2 2.5 2.1 3.5c.9.9 1.9 1.6 3.1 2 1.2.4 2.5.7 4 .7s2.7-.2 3.8-.5c1.1-.3 2-.7 2.8-1.1.8-.4 1.5-.8 2.1-1.1.6-.3 1.2-.5 1.7-.5.8 0 1.3.3 1.7.8l2.6 3.3c-1 1.2-2.1 2.1-3.3 2.9s-2.5 1.4-3.9 1.9c-1.3.5-2.7.8-4.1 1-1.4.2-2.7.3-4.1.3-2.6 0-5-.4-7.2-1.3s-4.2-2.1-5.8-3.8c-1.7-1.7-2.9-3.8-3.9-6.3s-1.4-5.4-1.4-8.6c0-2.5.4-4.9 1.2-7.2.8-2.2 2-4.2 3.5-5.9 1.5-1.7 3.4-3 5.6-3.9 2.2-1 4.7-1.5 7.5-1.5zm.2 6.4c-2.6 0-4.7.7-6.1 2.2-1.5 1.5-2.4 3.6-2.8 6.3h17c0-1.2-.2-2.3-.5-3.3s-.8-1.9-1.5-2.7c-.7-.8-1.5-1.4-2.5-1.8-1.1-.5-2.3-.7-3.6-.7zM603.8 60V22.7h5.3c.9 0 1.6.2 1.9.5.4.3.6.9.7 1.8l.5 4.2c1.2-2.2 2.6-4 4.2-5.3 1.6-1.3 3.5-1.9 5.7-1.9 1.7 0 3.1.4 4.1 1.1l-.6 6.7c-.1.4-.3.7-.5.9-.2.2-.5.3-.9.3s-.9-.1-1.6-.2c-.7-.1-1.4-.2-2.1-.2-1 0-1.9.1-2.7.4s-1.5.7-2.1 1.3c-.6.5-1.2 1.2-1.6 2-.5.8-.9 1.7-1.3 2.7v23h-9z"/></svg>